<svg width="91" height="100" viewBox="0 0 91 100" fill="none" xmlns="http://www.w3.org/2000/svg">
<circle cx="65.1665" cy="50" r="65" fill="#EABE8A"/>
<path d="M49.5544 40.6987L39.0312 26.434L34.5881 21.0555L30.4482 16.0439C30.2522 15.8067 30.145 15.5086 30.145 15.201C30.145 14.6444 30.4932 14.1473 31.0163 13.957L32.7173 13.3385C34.4282 12.7164 36.1955 12.2625 37.9944 11.9834L42.0713 11.3508L51.4252 11H56.6868H61.9483L72.7053 11.3508L74.953 11.6317C75.3249 11.6782 75.693 11.751 76.0546 11.8496L77.858 12.3415C78.006 12.3819 78.1409 12.4601 78.2494 12.5686C78.5576 12.8768 78.5943 13.364 78.3357 13.7149L75.5115 17.5477L59.8437 38.5941C57.8635 41.0312 56.6678 44.0108 56.4141 47.1407L56.1021 50.988L55.7732 56.6898C55.5252 60.9879 55.6352 65.2991 56.1021 69.5789L56.7327 75.359C56.7796 75.7894 56.9028 76.208 57.0964 76.5952C57.6438 77.6899 58.7035 78.4373 59.9184 78.5854L62.7668 78.9328L66.3084 79.3647C67.1264 79.4645 67.8993 79.7945 68.5371 80.3163L69.2018 80.8602C69.7912 81.3424 70.133 82.0637 70.133 82.8252C70.133 83.8045 69.5698 84.6964 68.6857 85.1174L66.1696 86.3156C65.5416 86.6146 64.8722 86.8178 64.1838 86.9181L59.6099 87.5852L58.3599 87.7675C55.4554 88.191 52.5241 88.4036 49.589 88.4036H46.5488C45.5918 88.4036 44.636 88.3332 43.6893 88.193L39.5755 87.5835C39.0648 87.5079 38.5811 87.306 38.1681 86.9963L37.5814 86.5563C37.1692 86.2471 36.9266 85.7619 36.9266 85.2467C36.9266 84.7315 37.1692 84.2463 37.5814 83.9372L38.406 83.3187C38.6658 83.1238 38.9501 82.9641 39.2516 82.8435L41.4328 81.971C42.0136 81.7387 42.6104 81.5488 43.2187 81.4028L45.0416 80.9653C47.0407 80.4855 48.7849 79.2686 49.9253 77.5581C50.6047 76.5389 51.0459 75.3799 51.2161 74.1669L51.8929 69.345C52.5151 64.9116 52.7228 60.4298 52.5131 55.9578L52.4775 55.1973L52.1267 47.7141L51.8694 45.9987C51.5784 44.0589 50.7798 42.2304 49.5544 40.6987Z" fill="#F8F4EF"/>
<path d="M37.5815 83.9371L38.4062 83.3186C38.666 83.1238 38.9503 82.964 39.2517 82.8434L39.9668 82.5574C39.5649 83.6291 40.0167 84.8328 41.0244 85.3754L41.6873 85.7324C42.0943 85.9515 42.5445 86.0784 43.0061 86.1041L51.1583 86.557C53.6641 86.6962 56.1773 86.5075 58.6341 85.9956L65.2601 84.6152C65.8483 84.4927 66.394 84.2182 66.843 83.819L67.7224 83.0374C68.0585 82.7387 68.2175 82.2883 68.1436 81.8448C68.0717 81.4134 67.789 81.0465 67.3902 80.8671L63.3516 79.0497L66.2915 79.3763C67.12 79.4684 67.9041 79.7983 68.5493 80.3261L69.202 80.8601C69.7914 81.3424 70.1332 82.0636 70.1332 82.8251C70.1332 83.8044 69.57 84.6964 68.6858 85.1174L66.1698 86.3155C65.5417 86.6146 64.8723 86.8177 64.184 86.9181L59.61 87.5851L58.36 87.7674C55.4556 88.191 52.5243 88.4036 49.5892 88.4036H46.549C45.5919 88.4036 44.6361 88.3332 43.6894 88.1929L39.5757 87.5835C39.065 87.5078 38.5813 87.306 38.1683 86.9962L37.5815 86.5562C37.1693 86.2471 36.9268 85.7619 36.9268 85.2467C36.9268 84.7314 37.1693 84.2462 37.5815 83.9371Z" fill="#EDE4DA" fill-opacity="0.4"/>
<path d="M49.7343 79.1063L51.1914 75.7759L50.9836 78.0625C50.9663 78.2527 50.9343 78.4412 50.888 78.6265L50.6909 79.4149C50.5629 79.927 50.6568 80.4694 50.9496 80.9086C51.2517 81.3616 51.7358 81.6609 52.2761 81.7284L54.2267 81.9722C54.8199 82.0464 55.4141 81.8425 55.8368 81.4198C56.2948 80.9618 56.4936 80.3052 56.3666 79.67L56.1022 78.3482C55.6358 76.1717 55.4007 73.952 55.4007 71.7261V70.8651L55.7409 73.4168C55.8257 74.0524 55.9759 74.6775 56.1894 75.2822L56.8646 77.1953C57.128 77.9417 57.637 78.5766 58.3082 78.9961L58.6443 79.2062C58.9699 79.4097 59.2331 79.6992 59.4049 80.0427L59.6108 80.4545C59.8896 81.0121 59.7803 81.6855 59.3395 82.1264C59.2092 82.2567 59.0552 82.3609 58.8859 82.4335L57.5575 83.0028C56.443 83.4804 55.2432 83.7267 54.0307 83.7267H50.5846C49.9319 83.7267 49.3129 83.4368 48.895 82.9353L48.7194 82.7246C48.5035 82.4655 48.3853 82.1389 48.3853 81.8017C48.3853 81.5315 48.4612 81.2667 48.6044 81.0376L49.3167 79.8979C49.475 79.6446 49.6146 79.38 49.7343 79.1063Z" fill="#EDE4DA" fill-opacity="0.4"/>
<path d="M38.3298 25.2647L32.2498 18.2493C33.6359 17.1711 35.242 16.4106 36.9544 16.0214L38.0193 15.7794C39.0038 15.5556 40.0064 15.4205 41.015 15.3757L50.0222 14.9754H63.1177H74.4226C75.2696 14.9754 76.0819 15.3119 76.6809 15.9108L71.7701 22.6924L63.8192 33.2155L61.3985 36.5165C59.5878 38.9857 58.0474 41.6422 56.8038 44.4402L56.5312 43.8043C56.2598 43.1709 55.7177 42.6934 55.0551 42.5041C54.6687 42.3937 54.2601 42.3869 53.8702 42.4844L53.3293 42.6196C52.8431 42.7412 52.3813 42.9454 51.9643 43.2234L51.1914 43.7387L49.7883 41.1664L43.9422 33.2155L38.3298 25.2647Z" fill="#FFEBD4"/>
<path d="M40.601 19.8169L38.227 19.5343C36.274 19.3018 34.3496 18.8712 32.4836 18.2493L33.1641 17.8712C35.5003 16.5733 38.0364 15.6737 40.6683 15.2092L52.3607 14.5077L69.4316 15.2092H74.1481C75.0403 15.2092 75.9158 15.4517 76.6809 15.9108C75.4551 16.9833 73.9697 17.7158 72.3725 18.0352L68.3586 18.838C67.2046 19.0688 66.0356 19.2167 64.8605 19.2806L49.6471 20.1074C46.629 20.2714 43.6023 20.1742 40.601 19.8169Z" fill="#FFF9F2"/>
<path fill-rule="evenodd" clip-rule="evenodd" d="M72.7053 11.3508L61.9483 11H56.6868H51.4252L42.0713 11.3508L37.9944 11.9834C36.1955 12.2625 34.4282 12.7164 32.7173 13.3385L30.8043 14.0341C30.4085 14.1781 30.145 14.5542 30.145 14.9754C30.145 15.3966 30.4085 15.7728 30.8043 15.9167L32.7173 16.6123H49.5544L72.7053 15.677L78.7854 14.2739V13.7092C78.7854 13.3221 78.6316 12.9509 78.3579 12.6772C78.1783 12.4976 77.9549 12.3679 77.7099 12.3011L76.0546 11.8496C75.693 11.751 75.3249 11.6782 74.953 11.6317L72.7053 11.3508ZM71.3026 11.5554L61.373 11.2339H56.5162H51.6593L43.025 11.5554L39.2601 12.1356C37.6006 12.3913 35.9698 12.8072 34.3906 13.3775L32.621 14.0165C32.258 14.1476 32.0161 14.4921 32.0161 14.878C32.0161 15.2639 32.258 15.6084 32.621 15.7395L34.3906 16.3785H49.9325L71.3026 15.5211L76.9149 14.2349V13.7211C76.9149 13.364 76.7724 13.0216 76.519 12.77C76.3541 12.6062 76.1493 12.4881 75.925 12.4273L73.8929 11.877L71.3026 11.5554Z" fill="#D5CFC7"/>
</svg>
