<svg width="92" height="100" viewBox="0 0 92 100" fill="none" xmlns="http://www.w3.org/2000/svg">
<circle cx="66.6667" cy="52" r="66" fill="#DCAFAD"/>
<path d="M78.8643 48.924L80.3327 79.0273C76.7896 78.5386 73.2913 77.7672 69.8713 76.7206L32.8917 65.4035C32.5808 65.3084 32.2783 65.1874 31.9874 65.042L31.216 64.6563C29.7067 63.9017 28.7533 62.3591 28.7533 60.6716V58.7375C28.7533 57.105 28.4418 55.4875 27.8356 53.9718L27.5742 53.3183C27.1406 52.2343 26.9178 51.0775 26.9178 49.91C26.9178 49.2546 26.8476 48.601 26.7083 47.9605L26.4418 46.7346C26.1519 45.4011 26.2018 44.0161 26.5869 42.7069C26.8063 41.9606 26.9178 41.1868 26.9178 40.409V38.75C26.9178 38.3165 26.838 37.8867 26.6824 37.4821C26.2563 36.3744 26.415 35.1269 27.1048 34.1612L27.7631 33.2395C28.4089 32.3356 29.3073 31.6425 30.3456 31.2475L43.3362 26.3054C44.8663 25.7233 46.4639 25.3373 48.0909 25.1565C52.8918 24.6231 57.719 25.9003 61.6279 28.7383L68.9522 34.0559L75.1931 39.3791C76.9586 40.7915 78.1034 42.837 78.3838 45.0805L78.8643 48.924Z" fill="#F9EFDD"/>
<path d="M68.9522 34.0559L75.1931 39.3791L77.2081 40.9911C77.6914 41.3777 78.0612 41.8876 78.2785 42.4671L78.3205 42.5792C78.4373 42.8907 78.4971 43.2206 78.4971 43.5532V44.4505C78.4971 44.6117 78.4331 44.7662 78.3191 44.8802C78.1053 45.094 77.7668 45.1181 77.5248 44.9367L77.3761 44.8251C77.2685 44.7444 77.1427 44.6914 77.0098 44.6706L71.3384 43.7844L48.0268 40.2969L32.2409 38.0942H28.3512C27.4876 38.0942 26.7132 37.5623 26.4032 36.7563C26.1515 36.1018 26.2453 35.3646 26.6529 34.794L27.7631 33.2395C28.4089 32.3356 29.3073 31.6425 30.3456 31.2475L43.3362 26.3054C44.8663 25.7233 46.4639 25.3373 48.0909 25.1565C52.8918 24.6231 57.719 25.9003 61.6279 28.7383L68.9522 34.0559Z" fill="#FFF7E9"/>
<path d="M58.1223 46.7213L73.7636 49.3803C75.57 49.6874 77.399 49.8418 79.2313 49.8418V52.228V55.7156V56.8169L72.9904 55.7156L53.717 52.228L31.3231 49.8418H28.4063C27.9195 49.8418 27.4488 49.6677 27.0792 49.3509C26.6272 48.9634 26.3671 48.3978 26.3671 47.8025V45.2529V44.3552C26.3671 43.7599 26.6272 43.1943 27.0792 42.8069C27.4488 42.4901 27.9195 42.316 28.4063 42.316H30.6443C31.096 42.316 31.547 42.3538 31.9924 42.4291L44.3556 44.5187L58.1223 46.7213Z" fill="#F8C0C1"/>
<path d="M58.6639 59.4331L72.3345 61.8378C75.1402 62.3314 77.8112 63.4078 80.175 64.9977L80.5335 67.9655L81.0287 70.3992C81.1762 71.1244 81.2506 71.8627 81.2506 72.6027C75.8999 69.8959 70.1922 67.9618 64.2982 66.8582L54.3617 64.9977L32.4921 62.5864H29.6746C29.18 62.5864 28.7026 62.4051 28.3326 62.077C27.8998 61.6931 27.6521 61.1423 27.6521 60.5639V57.9491V57.0038C27.6521 56.4253 27.8998 55.8746 28.3326 55.4907C28.7026 55.1625 29.18 54.9813 29.6746 54.9813H31.8249C32.2689 54.9813 32.712 55.0198 33.1493 55.0963L45.2195 57.2072L58.6639 59.4331Z" fill="#F8C0C1"/>
<path d="M52.2569 31.5429L52.243 33.5205C52.2392 34.0655 52.0545 34.5938 51.718 35.0225C51.2131 35.6656 50.4216 36.016 49.6061 35.9574L48.6458 35.8883L47.9137 35.8357C46.8935 35.7624 45.8802 35.6126 44.8824 35.3876L43.2876 35.0279C42.8333 34.9255 42.3921 34.7716 41.9726 34.5693L41.3418 34.2652C40.5376 33.8774 39.8834 33.2358 39.4802 32.4393C39.1951 31.8761 39.045 31.2543 39.0418 30.6231L39.0331 28.8802C39.0305 28.3636 39.1112 27.85 39.2721 27.3591C39.4887 26.6982 39.8462 26.0922 40.3198 25.583L40.9159 24.9421C41.2316 24.6026 41.5822 24.2975 41.962 24.0317L42.2662 23.8189C43.1651 23.1899 44.2344 22.85 45.3315 22.8445C46.4985 22.8387 47.6359 23.2115 48.573 23.907L48.7665 24.0506C49.529 24.6165 50.1492 25.3522 50.5781 26.1994L51.3677 27.759C51.9613 28.9314 52.2662 30.2287 52.2569 31.5429Z" fill="#D04345"/>
<path d="M46.0973 22.3594L45.6264 22.7125C44.7661 23.3575 44.125 24.2515 43.7901 25.2733L45.0208 25.0207C45.1664 24.9909 45.3146 24.9754 45.4633 24.9747C46.3811 24.9701 47.2103 25.5216 47.5608 26.3699L47.6274 26.5311L47.0348 26.3368C46.0589 26.017 45.0075 26.01 44.0275 26.3169L44.1021 26.4642C44.5798 27.408 44.6632 28.5028 44.3337 29.508L43.999 28.5746C43.7645 27.9205 43.2411 27.4113 42.5807 27.1949C41.9206 27.7915 41.7006 28.7356 42.029 29.5626L42.541 30.852L41.3721 30.1918C41.0698 30.0211 40.8165 29.7756 40.6364 29.4788C40.2628 28.8631 40.2441 28.0954 40.5872 27.4623L41.0109 26.6803C40.0678 27.2526 39.3165 28.0928 38.8527 29.0938L38.2433 30.4092L38.4633 27.9701L38.5071 27.1038C38.5458 26.3383 38.9614 25.6418 39.6166 25.2442L39.67 25.2117C39.8982 25.0733 40.1517 24.9818 40.4157 24.9428L40.444 24.9386C41.1769 24.8301 41.7856 24.317 42.0163 23.613C42.1433 23.2256 42.3881 22.8876 42.7166 22.6462L42.7874 22.5941C43.2355 22.2648 43.7904 22.1148 44.3434 22.1734L46.0973 22.3594Z" fill="#467843"/>
<path d="M62.5705 29.5361L63.1732 31.4196C63.3393 31.9387 63.3284 32.4982 63.1421 33.0104C62.8627 33.7789 62.2198 34.3583 61.4265 34.5566L60.4925 34.7901L59.7804 34.9681C58.7881 35.2162 57.7786 35.3895 56.7603 35.4865L55.1329 35.6415C54.6692 35.6856 54.2021 35.6768 53.7404 35.6153L53.0462 35.5227C52.1613 35.4047 51.3398 34.9988 50.7085 34.3675C50.2622 33.9211 49.9259 33.377 49.7263 32.7782L49.1751 31.1247C49.0117 30.6346 48.9285 30.1214 48.9285 29.6048C48.9285 28.9094 49.0794 28.2222 49.3708 27.5907L49.7376 26.7961C49.9319 26.3752 50.17 25.976 50.4482 25.6051L50.6709 25.3082C51.3292 24.4305 52.2394 23.7744 53.2802 23.4275C54.3873 23.0584 55.5843 23.0584 56.6915 23.4275L56.92 23.5037C57.8209 23.804 58.6394 24.3098 59.3108 24.9813L60.5469 26.2174C61.4762 27.1466 62.1699 28.2844 62.5705 29.5361Z" fill="#E5595B"/>
<path d="M54.8022 24.3275L54.4647 24.8096C53.8481 25.6905 53.5173 26.7398 53.5173 27.815L54.6082 27.1917C54.7372 27.1179 54.8733 27.0571 55.0143 27.0101C55.885 26.7199 56.8447 26.9857 57.442 27.6826L57.5556 27.815H56.9319C55.905 27.815 54.9037 28.1359 54.068 28.7328L54.1848 28.8496C54.9327 29.5975 55.3529 30.6119 55.3529 31.6697L54.7442 30.887C54.3175 30.3385 53.6616 30.0177 52.9667 30.0177C52.5252 30.7903 52.6102 31.7559 53.1798 32.4395L54.068 33.5053L52.7517 33.242C52.4112 33.1739 52.094 33.0195 51.8304 32.7936C51.2837 32.3249 51.0267 31.6013 51.1556 30.8928L51.3147 30.0177C50.5967 30.8553 50.1445 31.8877 50.0156 32.9833L49.8462 34.4231L49.2955 32.0368L49.0673 31.2C48.8656 30.4605 49.0436 29.6692 49.5424 29.0873L49.5831 29.0398C49.7567 28.8372 49.9692 28.6713 50.2079 28.552L50.2335 28.5392C50.8961 28.2079 51.3147 27.5306 51.3147 26.7898C51.3147 26.3822 51.442 25.9847 51.679 25.653L51.7301 25.5814C52.0533 25.129 52.5339 24.8135 53.0776 24.697L54.8022 24.3275Z" fill="#467843"/>
<path d="M57.4339 36.9233L57.1668 38.583C57.0932 39.0403 56.8698 39.4603 56.5317 39.777C56.0244 40.2521 55.3143 40.4443 54.6367 40.2897L53.8389 40.1076L53.2306 39.9689C52.383 39.7755 51.551 39.5187 50.7418 39.2008L49.4484 38.6927C49.08 38.5479 48.7292 38.3617 48.4029 38.1376L47.9122 37.8005C47.2867 37.3709 46.8199 36.7473 46.584 36.0261C46.4173 35.5161 46.3715 34.9743 46.4504 34.4436L46.6682 32.9782C46.7327 32.5439 46.8669 32.1228 47.0654 31.7312C47.3328 31.204 47.7114 30.741 48.1751 30.3744L48.7586 29.9129C49.0677 29.6685 49.4017 29.4574 49.7551 29.2832L50.0381 29.1437C50.8745 28.7314 51.8168 28.5839 52.7392 28.721C53.7204 28.8669 54.6278 29.327 55.3253 30.0324L55.4693 30.178C56.0368 30.752 56.4628 31.4501 56.7137 32.2173L57.1756 33.6295C57.5229 34.6912 57.6114 35.8205 57.4339 36.9233Z" fill="#F5676A"/>
<path d="M53.3795 29.0423L52.9382 29.278C52.1321 29.7088 51.478 30.3771 51.0647 31.1923L52.1313 31.139C52.2575 31.1327 52.384 31.1389 52.509 31.1575C53.2806 31.2722 53.906 31.8427 54.0909 32.6006L54.1261 32.7446L53.6533 32.5049C52.8748 32.1101 51.9923 31.9684 51.1293 32.0997L51.173 32.2331C51.4525 33.0877 51.381 34.0182 50.9744 34.8201L50.8138 33.9928C50.7012 33.4129 50.3273 32.9176 49.8005 32.6504C49.1688 33.0664 48.862 33.8311 49.0311 34.5683L49.2947 35.7177L48.398 35.0121C48.1661 34.8296 47.985 34.5906 47.872 34.318C47.6376 33.7526 47.721 33.1052 48.0911 32.6176L48.5481 32.0154C47.6818 32.3744 46.9421 32.9832 46.4232 33.7642L45.7413 34.7906L46.2412 32.7699L46.3899 32.0477C46.5212 31.4096 46.9603 30.8781 47.5622 30.6287L47.6113 30.6084C47.8208 30.5215 48.0456 30.4774 48.2725 30.4787L48.2968 30.4789C48.9265 30.4824 49.5042 30.1299 49.7889 29.5683C49.9457 29.2592 50.195 29.0069 50.5021 28.8465L50.5684 28.8119C50.9874 28.5931 51.4729 28.5387 51.9299 28.6594L53.3795 29.0423Z" fill="#688D66"/>
</svg>
