<svg width="92" height="100" viewBox="0 0 92 100" fill="none" xmlns="http://www.w3.org/2000/svg">
<circle cx="70.8333" cy="56.5" r="70.5" fill="#974B70"/>
<path d="M28.3265 42.4747H33.2812L52.5171 43.252L73.1132 42.4747H79.5252L79.8787 40.964C80.3443 38.9748 80.1902 36.8908 79.4371 34.9917C78.7333 33.2169 77.5367 31.6803 75.9883 30.5631L73.6719 28.8918C71.6972 27.467 69.4766 26.4188 67.1215 25.7998L61.5238 24.3287C57.5633 23.2877 53.4409 23.0091 49.3763 23.5076C46.6241 23.8451 43.9267 24.5355 41.3508 25.5617L36.3969 27.5352C34.3393 28.3549 32.4599 29.5655 30.8627 31.1001L29.5013 32.4081C28.7262 33.1528 28.1102 34.0472 27.6909 35.0369L27.4669 35.5654C26.4962 37.8564 26.824 40.4915 28.3265 42.4747Z" fill="#FFDAB1"/>
<path d="M43.5511 27.8306L43.3365 28.0257C43.1582 28.1879 43.333 28.4774 43.5595 28.395C43.5728 28.3902 43.5855 28.3842 43.5975 28.3769L44.4429 27.8697C44.5099 27.8295 44.5509 27.7571 44.5509 27.679C44.5509 27.5137 44.3769 27.4061 44.2291 27.4801L43.6136 27.7878C43.5909 27.7992 43.5699 27.8136 43.5511 27.8306Z" fill="#B08554"/>
<path d="M37.5818 30.8449L37.7769 31.0595C37.939 31.2379 38.2286 31.063 38.1462 30.8365C38.1414 30.8233 38.1353 30.8106 38.1281 30.7985L37.6209 29.9531C37.5807 29.8861 37.5083 29.8451 37.4302 29.8451C37.2648 29.8451 37.1573 30.0191 37.2312 30.167L37.539 30.7825C37.5503 30.8052 37.5647 30.8262 37.5818 30.8449Z" fill="#B08554"/>
<path d="M43.6483 32.0081L43.4337 32.2032C43.2553 32.3653 43.4302 32.6549 43.6567 32.5725C43.6699 32.5677 43.6826 32.5617 43.6947 32.5544L44.5401 32.0472C44.6071 32.007 44.6481 31.9346 44.6481 31.8565C44.6481 31.6912 44.4741 31.5836 44.3262 31.6576L43.7108 31.9653C43.6881 31.9766 43.6671 31.991 43.6483 32.0081Z" fill="#B08554"/>
<path d="M54.7232 27.9278L54.5086 28.1229C54.3303 28.285 54.5051 28.5746 54.7317 28.4922C54.7449 28.4874 54.7576 28.4813 54.7696 28.4741L55.6151 27.9669C55.682 27.9267 55.723 27.8543 55.723 27.7762C55.723 27.6108 55.5491 27.5033 55.4012 27.5772L54.7857 27.885C54.763 27.8963 54.742 27.9107 54.7232 27.9278Z" fill="#B08554" fill-opacity="0.5"/>
<path d="M55.1119 32.2024L54.8973 32.3975C54.719 32.5597 54.8938 32.8492 55.1203 32.7669C55.1335 32.7621 55.1463 32.756 55.1583 32.7488L56.0037 32.2415C56.0707 32.2013 56.1117 32.1289 56.1117 32.0508C56.1117 31.8855 55.9377 31.778 55.7899 31.8519L55.1744 32.1596C55.1517 32.171 55.1307 32.1854 55.1119 32.2024Z" fill="#B08554"/>
<path d="M62.258 31.4278L62.4532 31.6424C62.6153 31.8207 62.9048 31.6459 62.8225 31.4193C62.8177 31.4061 62.8116 31.3934 62.8044 31.3814L62.2971 30.5359C62.2569 30.469 62.1845 30.428 62.1064 30.428C61.9411 30.428 61.8336 30.6019 61.9075 30.7498L62.2152 31.3653C62.2266 31.388 62.241 31.409 62.258 31.4278Z" fill="#B08554"/>
<path d="M63.0785 27.7334L62.8639 27.9286C62.6855 28.0907 62.8604 28.3802 63.0869 28.2979C63.1001 28.2931 63.1128 28.287 63.1249 28.2798L63.9703 27.7725C64.0373 27.7323 64.0783 27.6599 64.0783 27.5818C64.0783 27.4165 63.9043 27.309 63.7564 27.3829L63.1409 27.6907C63.1182 27.702 63.0972 27.7164 63.0785 27.7334Z" fill="#B08554"/>
<path d="M69.4903 33.9511L69.2757 34.1462C69.0974 34.3083 69.2722 34.5979 69.4988 34.5155C69.512 34.5107 69.5247 34.5047 69.5367 34.4974L70.3822 33.9902C70.4491 33.95 70.4901 33.8776 70.4901 33.7995C70.4901 33.6342 70.3161 33.5266 70.1683 33.6006L69.5528 33.9083C69.5301 33.9196 69.5091 33.934 69.4903 33.9511Z" fill="#B08554" fill-opacity="0.5"/>
<path d="M60.3583 36.8656L60.1436 37.0608C59.9653 37.2229 60.1402 37.5124 60.3667 37.4301C60.3799 37.4253 60.3926 37.4192 60.4047 37.412L61.2501 36.9047C61.3171 36.8645 61.358 36.7921 61.358 36.714C61.358 36.5487 61.1841 36.4412 61.0362 36.5151L60.4207 36.8229C60.398 36.8342 60.377 36.8486 60.3583 36.8656Z" fill="#B08554"/>
<path d="M52.7801 38.4201L52.5655 38.6152C52.3872 38.7773 52.562 39.0669 52.7885 38.9845C52.8018 38.9797 52.8145 38.9737 52.8265 38.9664L53.6719 38.4592C53.7389 38.419 53.7799 38.3466 53.7799 38.2685C53.7799 38.1031 53.6059 37.9956 53.4581 38.0696L52.8426 38.3773C52.8199 38.3886 52.7989 38.403 52.7801 38.4201Z" fill="#B08554"/>
<path d="M39.9564 38.8087L39.7418 39.0038C39.5634 39.1659 39.7383 39.4555 39.9648 39.3731C39.978 39.3683 39.9907 39.3623 40.0028 39.355L40.8482 38.8478C40.9152 38.8076 40.9562 38.7352 40.9562 38.6571C40.9562 38.4918 40.7822 38.3842 40.6343 38.4582L40.0189 38.7659C39.9962 38.7772 39.9752 38.7916 39.9564 38.8087Z" fill="#B08554"/>
<path d="M34.1275 36.8656L33.9129 37.0608C33.7346 37.2229 33.9094 37.5124 34.136 37.4301C34.1492 37.4253 34.1619 37.4192 34.1739 37.412L35.0194 36.9047C35.0863 36.8645 35.1273 36.7921 35.1273 36.714C35.1273 36.5487 34.9534 36.4412 34.8055 36.5151L34.19 36.8229C34.1673 36.8342 34.1463 36.8486 34.1275 36.8656Z" fill="#B08554" fill-opacity="0.5"/>
<path d="M50.2543 26.1791L50.0396 26.3742C49.8613 26.5363 50.0361 26.8259 50.2627 26.7435C50.2759 26.7387 50.2886 26.7326 50.3007 26.7254L51.1461 26.2181C51.2131 26.178 51.254 26.1056 51.254 26.0274C51.254 25.8621 51.0801 25.7546 50.9322 25.8285L50.3167 26.1363C50.294 26.1476 50.273 26.162 50.2543 26.1791Z" fill="#B08554" fill-opacity="0.5"/>
<path d="M48.4624 34.9252L48.6575 35.1399C48.8196 35.3182 49.1092 35.1434 49.0268 34.9168C49.022 34.9036 49.0159 34.8909 49.0087 34.8789L48.5015 34.0334C48.4613 33.9664 48.3889 33.9255 48.3108 33.9255C48.1454 33.9255 48.0379 34.0994 48.1119 34.2473L48.4196 34.8628C48.4309 34.8855 48.4453 34.9065 48.4624 34.9252Z" fill="#B08554" fill-opacity="0.5"/>
<path d="M23.8194 51.0547L23.9038 50.9089C24.1921 50.4109 24.6021 49.9944 25.0955 49.6984C25.5589 49.4204 26.0819 49.257 26.6211 49.2217L40.6647 48.3039L58.0548 47.0409H75.542H77.4166C80.1827 47.0409 82.6963 48.6492 83.8554 51.1606L83.9589 51.3849C84.5486 52.6627 84.6984 54.0998 84.3848 55.4718C84.1912 56.319 83.8202 57.1257 83.3063 57.8265C82.4373 59.0114 81.1822 59.881 79.7646 60.2677L77.3196 60.9345C76.1398 61.2562 74.9224 61.4193 73.6994 61.4193H48.0482L26.9664 60.4478H26.7243C25.2911 60.4478 24.0072 59.5616 23.4989 58.2215C23.3506 57.8307 23.2747 57.4161 23.2747 56.9981V54.2301V53.0829C23.2747 52.3706 23.4626 51.671 23.8194 51.0547Z" fill="#6B4213"/>
<path d="M27.5458 60.0061L29.5555 60.4183C29.9657 60.5025 30.3833 60.5448 30.8021 60.5448H43.7735H59.8035L68.8327 61.5186C69.4023 61.58 69.9338 61.8344 70.3389 62.2395C71.4985 63.3991 71.2533 65.3409 69.8418 66.1759L66.9375 67.8939C66.1468 68.3616 65.245 68.6084 64.3264 68.6084H42.1406C40.0026 68.6084 37.8764 68.292 35.831 67.6695L26.7895 64.9177C25.9831 64.6723 25.3385 64.0629 25.0484 63.2715L24.9546 63.0157C24.6425 62.1645 24.8659 61.2093 25.5232 60.5849C26.0622 60.0728 26.8175 59.8567 27.5458 60.0061Z" fill="#FFECD6"/>
<path d="M25.0234 67.3454V63.3622L37.5559 65.9853L51.2127 66.9318C55.1808 67.2069 59.1666 67.075 63.1079 66.5383L80.011 64.2366V65.7018C80.011 67.774 79.3171 69.7865 78.04 71.4183C77.0399 72.6963 75.722 73.6894 74.2179 74.2987L72.0763 75.1662C69.938 76.0324 67.6525 76.4777 65.3454 76.4777H55.5289L42.8609 75.7361C38.0703 75.4557 33.3731 74.2907 29.0066 72.3002L27.0746 71.0749C25.7974 70.265 25.0234 68.8578 25.0234 67.3454Z" fill="#FFDAB1"/>
<path d="M25.8048 38.247L26.7859 39.0474C28.3478 40.3216 30.3017 41.0175 32.3175 41.0175H34.0349C35.2668 41.0175 36.4841 41.2826 37.6045 41.7947C38.7248 42.3068 39.9422 42.5719 41.174 42.5719H44.065L50.8068 41.6395C52.389 41.4207 53.9968 41.4714 55.5621 41.7893C58.0829 42.3014 60.6956 42.1166 63.1192 41.2548L63.7867 41.0175C65.4896 40.3868 67.3508 40.324 69.0924 40.8386L69.2438 40.8833C70.1975 41.1651 71.1916 41.2848 72.1849 41.2375L75.7278 41.0688C76.4443 41.0347 77.1562 40.9339 77.854 40.7677L78.9918 40.4968C80.232 40.2015 81.5282 40.2401 82.7487 40.6085C84.8275 41.2361 86.5132 42.7665 87.3382 44.7752L88.0498 46.5076C88.1944 46.8597 88.2688 47.2367 88.2688 47.6174V48.7364C88.2688 49.7316 87.462 50.5383 86.4669 50.5383C86.1825 50.5383 85.9023 50.471 85.6489 50.342L83.4598 49.2268C81.7675 48.3647 79.8952 47.9152 77.996 47.9152H76.805C75.2423 47.9152 73.7359 48.4986 72.5808 49.551L71.3203 50.6994C70.4737 51.4709 69.3695 51.8984 68.2241 51.8984H67.3189C66.2172 51.8984 65.2012 51.3042 64.6611 50.344C64.1209 49.3838 63.1049 48.7896 62.0032 48.7896H59.4149H52.3441C51.364 48.7896 50.3896 48.9373 49.4535 49.2278L47.5625 49.8147C46.0806 50.2746 44.4724 50.0729 43.15 49.2614C41.7626 48.4101 40.0646 48.232 38.5308 48.7769L34.761 50.1162C33.9739 50.3958 33.2366 50.7997 32.5773 51.3125L32.2247 51.5868C31.9585 51.7938 31.6682 51.9677 31.36 52.1046L30.7204 52.3889C29.7781 52.8077 28.6849 52.7 27.8424 52.1053C27.6477 51.9679 27.437 51.8548 27.215 51.7684L26.0602 51.3193C24.7334 50.8034 23.5167 50.04 22.4748 49.07L21.9647 48.5951C21.4806 48.1444 21.0668 47.6237 20.7371 47.0503L19.8831 45.5649C19.3303 44.6037 19.2868 43.4318 19.7666 42.4321C20.0279 41.8877 20.431 41.4236 20.9334 41.0887L21.7947 40.5145C22.2338 40.2218 22.4974 39.7291 22.4974 39.2015C22.4974 38.1308 23.541 37.3709 24.5599 37.6996L25.146 37.8887C25.386 37.9661 25.6094 38.0876 25.8048 38.247Z" fill="#A9C558"/>
<path d="M28.5756 44.2858L27.5969 44.1384C27.4653 44.1185 27.3309 44.1269 27.2028 44.1631C26.598 44.3336 26.3288 45.0391 26.6663 45.5692L26.8761 45.8988C27.0085 46.1067 27.2005 46.2701 27.427 46.3675L28.7152 46.9214L30.8748 47.8045C31.2684 47.9655 31.6798 48.0788 32.1004 48.1422C32.9478 48.2699 33.8136 48.1917 34.6244 47.9143L34.9401 47.8064C35.4843 47.6202 36.0503 47.5048 36.624 47.4631L37.4547 47.4027C37.6875 47.3857 37.9215 47.3947 38.1523 47.4295L40.5713 47.794C40.9551 47.8518 41.3131 47.5876 41.371 47.2038C41.4061 46.9709 41.3234 46.7358 41.1503 46.5762L40.4208 45.9032C40.3026 45.7941 40.1949 45.6743 40.099 45.5452L40.0703 45.5065C39.5826 44.8501 38.855 44.4132 38.0464 44.2914L36.2872 44.0263L36.1026 43.9985C34.7682 43.7974 33.4111 43.7983 32.0769 44.0011L31.4098 44.1437C30.9265 44.2469 30.4353 44.3092 29.9416 44.3298L29.6306 44.3428C29.2779 44.3575 28.9246 44.3384 28.5756 44.2858Z" fill="#979C4D" fill-opacity="0.4"/>
<path d="M67.9416 43.1968L66.8302 43.0294C66.637 43.0003 66.4397 43.0173 66.2544 43.0791C65.5188 43.3243 65.1872 44.1778 65.5643 44.8553L65.8391 45.3489C66.0136 45.6624 66.2824 45.9128 66.6074 46.0647L68.0536 46.7407L70.6238 47.8803C71.0918 48.0878 71.5855 48.2316 72.0917 48.3079C73.0981 48.4595 74.1268 48.3402 75.0717 47.9622L75.51 47.7869C76.1594 47.5271 76.8421 47.3599 77.538 47.2901L78.481 47.1956C78.7892 47.1647 79.1001 47.1724 79.4063 47.2186L82.147 47.6315C82.6648 47.7095 83.1478 47.353 83.2258 46.8353C83.2735 46.5187 83.1709 46.1981 82.9484 45.9679L82.1315 45.1231C81.9816 44.9681 81.8468 44.7992 81.7289 44.6188L81.7148 44.5973C81.1417 43.7203 80.2217 43.1296 79.1858 42.9735L77.2003 42.6744L77.0081 42.6454C75.3956 42.4024 73.7537 42.4329 72.1513 42.7354L71.3298 42.9469C70.7602 43.0936 70.1781 43.1868 69.5911 43.2253L69.2106 43.2502C68.7869 43.278 68.3614 43.2601 67.9416 43.1968Z" fill="#979C4D" fill-opacity="0.4"/>
<path d="M23.8778 57.1445H25.2176C27.8915 58.6725 30.9179 59.4762 33.9975 59.4762H41.1504L57.8451 60.1591C60.9592 60.2865 64.0784 60.164 67.1728 59.7926L74.6676 58.8933L83.3382 57.1445L82.4024 59.0451C81.9795 59.9039 81.7596 60.8484 81.7596 61.8056C81.7596 63.3692 81.1735 64.876 80.117 66.0285L78.5536 67.734L76.0277 70.7457C74.7404 69.3297 73.2376 68.1259 71.5748 67.1787L69.7167 66.1203C67.52 64.869 65.1812 63.8855 62.7503 63.191L58.249 61.9049L52.0826 60.9829C49.3117 60.5685 46.4807 60.8864 43.8707 61.9049L41.5235 62.8438C39.2685 63.7458 36.775 63.86 34.447 63.1679L27.2444 60.7391C26.509 60.4911 25.7038 60.5576 25.0189 60.9228L24.4216 61.2414C23.6826 61.6356 22.7727 61.5002 22.1804 60.9079C21.8235 60.551 21.623 60.067 21.623 59.5623V59.3992C21.623 58.6568 21.9886 57.9619 22.6004 57.5413C22.9763 57.2829 23.4216 57.1445 23.8778 57.1445Z" fill="#E4C420"/>
</svg>
