<svg width="92" height="100" viewBox="0 0 92 100" fill="none" xmlns="http://www.w3.org/2000/svg">
<circle cx="71.3334" cy="56.5" r="70.5" fill="#115B8F"/>
<path d="M26.9502 28.6668L28.6651 26.4973C29.7406 25.1368 30.9437 23.8823 32.2581 22.7509C35.4571 19.9974 39.2531 18.0263 43.3457 16.9938L49.8587 15.3506C53.9004 14.3309 58.1195 14.2318 62.2046 15.0607C65.9919 15.8291 69.5777 17.3777 72.7338 19.6077L74.2565 20.6836C79.5894 24.4518 83.7922 29.6048 86.4112 35.5865L86.665 36.1663C88.4831 40.3185 89.4216 44.8022 89.4216 49.3351V50.4183C89.4216 56.4549 87.5634 62.3452 84.0994 67.289C81.7285 70.6727 78.671 73.5187 75.1263 75.6414L73.1733 76.8109C68.1951 79.7921 62.609 81.613 56.8303 82.1383L55.1548 82.2906C50.7468 82.6914 46.3042 82.1398 42.128 80.6734L41.9872 80.6239C38.7676 79.4934 35.7644 77.8221 33.1067 75.6818C29.3178 72.6305 26.3273 68.7039 24.393 64.2401L23.7255 62.6995C22.388 59.6131 21.4798 56.3579 21.0264 53.0248L20.7822 51.2303C20.2513 47.3283 20.4968 43.3598 21.5045 39.553C22.5537 35.5891 24.4074 31.8836 26.9502 28.6668Z" fill="#FFFEFE"/>
<path d="M31.7925 32.1222L33.2089 30.3322C34.0973 29.2097 35.0909 28.1747 36.1764 27.2413C38.8164 24.9713 41.9485 23.3465 45.3247 22.4956L50.7045 21.1398C54.0402 20.2991 57.5221 20.2174 60.8937 20.9008C64.0205 21.5345 66.9812 22.8119 69.5877 24.6516L70.8484 25.5415C75.2466 28.6459 78.7134 32.8926 80.8745 37.8232L81.0853 38.3043C82.5858 41.7277 83.3605 45.4249 83.3605 49.1626V50.0499C83.3605 55.0309 81.8259 59.8909 78.9656 63.9688C77.0097 66.7573 74.488 69.1023 71.565 70.8508L69.9507 71.8165C65.84 74.2755 61.2283 75.7774 56.4578 76.2106L55.0736 76.3363C51.4362 76.6666 47.7702 76.212 44.3237 75.003L44.2032 74.9607C41.5477 74.0293 39.0704 72.652 36.8777 70.8881C33.7491 68.3713 31.2794 65.1314 29.6815 61.4478L29.1331 60.1836C28.0287 57.6376 27.2787 54.9522 26.9042 52.2024L26.7032 50.7263C26.2648 47.508 26.4675 44.2349 27.2994 41.0953C28.1653 37.8276 29.6948 34.7731 31.7925 32.1222Z" fill="#FBF3F3"/>
<path d="M33.1159 31.2922H32.4592C31.7304 31.2922 31.0315 31.5817 30.5162 32.097C29.743 32.8703 29.5018 34.0284 29.9022 35.046L30.6002 36.82C31.067 38.0066 31.921 39.0006 33.0237 39.6409L34.0053 40.2108L37.5573 42.1234C38.1812 42.4594 38.8788 42.6353 39.5874 42.6353C40.8268 42.6353 42.0054 42.0983 42.8186 41.163L43.9581 39.8526C44.6473 39.0601 45.4854 38.4105 46.4248 37.9408L47.1873 37.5595C47.8001 37.2531 48.4758 37.0936 49.1609 37.0936H51.1497C52.4887 37.0936 53.5742 36.0082 53.5742 34.6692C53.5742 33.8223 53.3235 32.9943 52.8537 32.2897L51.755 30.6417C51.5827 30.3831 51.4314 30.111 51.3028 29.8281C50.3659 27.7668 48.3105 26.4433 46.0462 26.4433H45.0019C42.7459 26.4433 40.5426 27.1261 38.682 28.402L38.5078 28.5214L37.2718 29.5514C36.7134 30.0168 36.0903 30.3986 35.4222 30.685L34.8227 30.9419C34.2834 31.173 33.7027 31.2922 33.1159 31.2922Z" fill="#DC9264" fill-opacity="0.3"/>
<path d="M46.537 27.3092H45.8803C45.1516 27.3092 44.4527 27.5987 43.9374 28.114C43.1641 28.8872 42.923 30.0454 43.3234 31.063L44.0213 32.837C44.4882 34.0235 45.3422 35.0176 46.4448 35.6578L47.4264 36.2278L50.9785 38.1404C51.6024 38.4764 52.2999 38.6522 53.0085 38.6522C54.2479 38.6522 55.4265 38.1152 56.2398 37.18L57.3792 35.8696C58.0684 35.077 58.9065 34.4275 59.8459 33.9578L60.6084 33.5765C61.2212 33.2701 61.8969 33.1106 62.5821 33.1106H64.5708C65.9098 33.1106 66.9953 32.0251 66.9953 30.6861C66.9953 29.8392 66.7446 29.0113 66.2748 28.3066L65.1762 26.6586C65.0038 26.4001 64.8526 26.128 64.724 25.8451C63.787 23.7837 61.7317 22.4603 59.4674 22.4603H58.4231C56.167 22.4603 53.9637 23.1431 52.1031 24.419L51.929 24.5384L50.6929 25.5684C50.1345 26.0338 49.5115 26.4156 48.8434 26.7019L48.2439 26.9588C47.7045 27.19 47.1238 27.3092 46.537 27.3092Z" fill="#DC9264" fill-opacity="0.3"/>
<path d="M55.2974 33.7414L55.8602 33.403C56.4847 33.0275 56.9345 32.4192 57.1106 31.7121C57.3748 30.6509 56.9846 29.5341 56.1171 28.8684L54.6048 27.7077C53.5933 26.9314 52.3491 26.5196 51.0742 26.5391L49.9393 26.5565L45.9096 26.7478C45.2018 26.7814 44.5134 26.9901 43.9061 27.3553C42.8439 27.994 42.1106 29.0615 41.8956 30.2821L41.5943 31.9923C41.4121 33.0267 41.0286 34.0152 40.4655 34.9018L40.0085 35.6215C39.6413 36.1999 39.1444 36.6848 38.5572 37.0378L36.8528 38.0627C35.7053 38.7527 35.3344 40.2423 36.0244 41.3898C36.4608 42.1156 37.1023 42.696 37.868 43.0578L39.6588 43.904C39.9398 44.0367 40.2096 44.192 40.4656 44.3682C42.3308 45.6519 44.7743 45.727 46.7148 44.5601L47.6097 44.022C49.5432 42.8594 51.0795 41.1389 52.0166 39.0866L52.1043 38.8946L52.6328 37.3749C52.8716 36.6883 53.2087 36.04 53.6338 35.4503L54.0151 34.9213C54.3583 34.4452 54.7945 34.0438 55.2974 33.7414Z" fill="#DC9264" fill-opacity="0.3"/>
<path d="M43.4199 35.4485H42.7633C42.0345 35.4485 41.3356 35.738 40.8203 36.2533C40.0471 37.0265 39.8059 38.1847 40.2063 39.2023L40.9043 40.9763C41.3711 42.1628 42.2251 43.1568 43.3278 43.7971L44.3093 44.367L47.8614 46.2797C48.4853 46.6156 49.1829 46.7915 49.8915 46.7915C51.1309 46.7915 52.3095 46.2545 53.1227 45.3193L54.2622 44.0089C54.9514 43.2163 55.7894 42.5667 56.7288 42.097L57.4914 41.7158C58.1042 41.4094 58.7799 41.2499 59.465 41.2499H61.4538C62.7928 41.2499 63.8782 40.1644 63.8782 38.8254C63.8782 37.9785 63.6275 37.1506 63.1578 36.4459L62.0591 34.7979C61.8867 34.5393 61.7355 34.2673 61.6069 33.9844C60.6699 31.923 58.6146 30.5995 56.3503 30.5995H55.306C53.0499 30.5995 50.8467 31.2824 48.986 32.5583L48.8119 32.6777L47.5759 33.7077C47.0175 34.173 46.3944 34.5549 45.7263 34.8412L45.1268 35.0981C44.5875 35.3293 44.0068 35.4485 43.4199 35.4485Z" fill="#DC9264" fill-opacity="0.3"/>
<path d="M58.0586 46.5782L58.7094 46.4907C59.4316 46.3936 60.0857 46.0135 60.5278 45.4342C61.1911 44.5648 61.2757 43.3848 60.7433 42.4296L59.8152 40.7645C59.1944 39.6507 58.2156 38.7794 57.0374 38.2917L55.9886 37.8577L52.2134 36.4354C51.5503 36.1856 50.8355 36.1043 50.1332 36.1987C48.9049 36.3638 47.8084 37.0531 47.127 38.0884L46.1723 39.5389C45.5949 40.4163 44.8508 41.1717 43.9824 41.7624L43.2775 42.2419C42.711 42.6272 42.0625 42.8753 41.3835 42.9666L39.4125 43.2316C38.0854 43.41 37.1543 44.6305 37.3327 45.9575C37.4456 46.7969 37.8043 47.584 38.3638 48.2198L39.6723 49.7067C39.8776 49.94 40.0637 50.1895 40.2289 50.4528C41.4322 52.3709 43.6455 53.4086 45.8897 53.1069L46.9246 52.9678C49.1606 52.6671 51.2532 51.6968 52.9272 50.1843L53.0839 50.0428L54.1716 48.8573C54.6631 48.3216 55.2297 47.8602 55.8537 47.4874L56.4136 47.1529C56.9173 46.8519 57.477 46.6564 58.0586 46.5782Z" fill="#DC9264" fill-opacity="0.3"/>
<path d="M45.2878 52.3142L45.9386 52.2267C46.6609 52.1295 47.315 51.7495 47.757 51.1701C48.4203 50.3007 48.505 49.1208 47.9726 48.1656L47.0444 46.5004C46.4237 45.3867 45.4448 44.5153 44.2666 44.0277L43.2179 43.5936L39.4427 42.1714C38.7795 41.9216 38.0648 41.8402 37.3625 41.9346C36.1341 42.0998 35.0376 42.7891 34.3562 43.8243L33.4015 45.2749C32.8241 46.1522 32.0801 46.9077 31.2116 47.4984L30.5067 47.9778C29.9402 48.3631 29.2918 48.6113 28.6128 48.7026L26.6417 48.9676C25.3147 49.146 24.3835 50.3664 24.562 51.6935C24.6748 52.5328 25.0336 53.32 25.5931 53.9558L26.9015 55.4427C27.1068 55.676 27.293 55.9255 27.4581 56.1887C28.6614 58.1068 30.8748 59.1446 33.1189 58.8429L34.1539 58.7037C36.3898 58.4031 38.4824 57.4327 40.1565 55.9203L40.3131 55.7788L41.4009 54.5932C41.8923 54.0576 42.4589 53.5962 43.0829 53.2233L43.6428 52.8888C44.1466 52.5879 44.7062 52.3924 45.2878 52.3142Z" fill="#DC9264" fill-opacity="0.3"/>
<path d="M35.7484 47.1066L35.2358 47.517C34.6669 47.9724 34.3021 48.6352 34.2219 49.3595C34.1014 50.4464 34.6369 51.5012 35.5854 52.0455L37.2389 52.9943C38.3448 53.6288 39.6327 53.8712 40.8937 53.6819L42.0162 53.5135L45.9845 52.7869C46.6815 52.6593 47.336 52.3607 47.8892 51.9179C48.8568 51.1434 49.4413 49.9876 49.4917 48.7493L49.5624 47.0142C49.6052 45.9647 49.8535 44.9339 50.2934 43.9802L50.6504 43.206C50.9374 42.5839 51.3652 42.0371 51.9001 41.6089L53.4527 40.3661C54.498 39.5293 54.6671 38.0036 53.8304 36.9583C53.3011 36.2971 52.588 35.8074 51.7809 35.5508L49.8934 34.9508C49.5972 34.8567 49.3091 34.7388 49.0319 34.5983C47.0122 33.5745 44.5806 33.8257 42.8129 35.2407L41.9976 35.8933C40.2363 37.3032 38.943 39.2131 38.2877 41.3719L38.2264 41.574L37.9051 43.1505C37.76 43.8628 37.5122 44.5502 37.1695 45.1913L36.8621 45.7665C36.5854 46.284 36.2066 46.7399 35.7484 47.1066Z" fill="#DC9264" fill-opacity="0.3"/>
<path d="M47.2927 43.8321L47.9435 43.7446C48.6657 43.6475 49.3198 43.2674 49.7619 42.6881C50.4252 41.8187 50.5099 40.6387 49.9775 39.6835L49.0493 38.0184C48.4285 36.9046 47.4497 36.0333 46.2715 35.5456L45.2228 35.1116L41.4475 33.6893C40.7844 33.4395 40.0696 33.3582 39.3673 33.4526C38.139 33.6177 37.0425 34.307 36.3611 35.3423L35.4064 36.7928C34.829 37.6702 34.085 38.4256 33.2165 39.0163L32.5116 39.4958C31.9451 39.8811 31.2967 40.1292 30.6176 40.2205L28.6466 40.4855C27.3196 40.664 26.3884 41.8844 26.5668 43.2114C26.6797 44.0508 27.0385 44.8379 27.598 45.4737L28.9064 46.9606C29.1117 47.1939 29.2979 47.4434 29.463 47.7067C30.6663 49.6248 32.8797 50.6625 35.1238 50.3608L36.1587 50.2217C38.3947 49.921 40.4873 48.9507 42.1614 47.4382L42.318 47.2967L43.4058 46.1112C43.8972 45.5755 44.4638 45.1141 45.0878 44.7413L45.6477 44.4068C46.1515 44.1058 46.7111 43.9103 47.2927 43.8321Z" fill="#DC9264" fill-opacity="0.3"/>
<path d="M62.4211 60.9249L63.0719 60.8374C63.7942 60.7403 64.4483 60.3602 64.8903 59.7808C65.5536 58.9114 65.6383 57.7315 65.1059 56.7763L64.1777 55.1111C63.557 53.9974 62.5781 53.126 61.3999 52.6384L60.3512 52.2044L56.576 50.7821C55.9128 50.5323 55.1981 50.4509 54.4958 50.5454C53.2674 50.7105 52.1709 51.3998 51.4895 52.4351L50.5348 53.8856C49.9574 54.7629 49.2134 55.5184 48.3449 56.1091L47.64 56.5885C47.0735 56.9739 46.4251 57.222 45.7461 57.3133L43.775 57.5783C42.448 57.7567 41.5168 58.9772 41.6953 60.3042C41.8081 61.1436 42.1669 61.9307 42.7264 62.5665L44.0348 64.0534C44.2401 64.2867 44.4263 64.5362 44.5914 64.7994C45.7947 66.7175 48.0081 67.7553 50.2522 67.4536L51.2872 67.3144C53.5231 67.0138 55.6157 66.0435 57.2898 64.531L57.4464 64.3895L58.5342 63.2039C59.0256 62.6683 59.5922 62.2069 60.2162 61.8341L60.7761 61.4996C61.2799 61.1986 61.8395 61.0031 62.4211 60.9249Z" fill="#DC9264" fill-opacity="0.3"/>
<path d="M49.6502 66.6608L50.301 66.5733C51.0233 66.4762 51.6774 66.0962 52.1194 65.5168C52.7827 64.6474 52.8674 63.4675 52.335 62.5123L51.4069 60.8471C50.7861 59.7334 49.8072 58.862 48.6291 58.3744L47.5803 57.9403L43.8051 56.5181C43.142 56.2682 42.4272 56.1869 41.7249 56.2813C40.4966 56.4465 39.4 57.1357 38.7187 58.171L37.764 59.6216C37.1865 60.4989 36.4425 61.2543 35.5741 61.845L34.8692 62.3245C34.3026 62.7098 33.6542 62.958 32.9752 63.0493L31.0042 63.3143C29.6771 63.4927 28.746 64.7131 28.9244 66.0402C29.0372 66.8795 29.396 67.6667 29.9555 68.3025L31.264 69.7893C31.4693 70.0226 31.6554 70.2721 31.8206 70.5354C33.0239 72.4535 35.2372 73.4913 37.4813 73.1895L38.5163 73.0504C40.7522 72.7498 42.8449 71.7794 44.5189 70.267L44.6756 70.1254L45.7633 68.9399C46.2547 68.4043 46.8213 67.9428 47.4454 67.57L48.0052 67.2355C48.509 66.9345 49.0686 66.739 49.6502 66.6608Z" fill="#DC9264" fill-opacity="0.3"/>
<path d="M26.7245 61.5434L26.2119 61.9538C25.6429 62.4092 25.2782 63.072 25.1979 63.7963C25.0775 64.8832 25.613 65.938 26.5615 66.4822L28.215 67.431C29.3209 68.0656 30.6088 68.3079 31.8698 68.1187L32.9922 67.9503L36.9605 67.2237C37.6576 67.0961 38.312 66.7975 38.8653 66.3546C39.8328 65.5801 40.4174 64.4244 40.4678 63.186L40.5385 61.4509C40.5813 60.4015 40.8296 59.3707 41.2695 58.4169L41.6265 57.6428C41.9134 57.0206 42.3413 56.4738 42.8762 56.0457L44.4288 54.8029C45.4741 53.9661 45.6432 52.4404 44.8064 51.395C44.2772 50.7339 43.5641 50.2441 42.757 49.9876L40.8694 49.3876C40.5733 49.2935 40.2852 49.1756 40.008 49.035C37.9883 48.0113 35.5567 48.2625 33.789 49.6775L32.9737 50.3301C31.2124 51.74 29.9191 53.6499 29.2638 55.8087L29.2025 56.0107L28.8812 57.5873C28.736 58.2995 28.4883 58.987 28.1456 59.628L27.8381 60.2032C27.5615 60.7208 27.1826 61.1767 26.7245 61.5434Z" fill="#DC9264" fill-opacity="0.3"/>
<path d="M54.9268 57.7702L55.5776 57.6827C56.2999 57.5856 56.954 57.2056 57.396 56.6262C58.0594 55.7568 58.144 54.5768 57.6116 53.6217L56.6835 51.9565C56.0627 50.8427 55.0838 49.9714 53.9057 49.4838L52.8569 49.0497L49.0817 47.6274C48.4186 47.3776 47.7038 47.2963 47.0015 47.3907C45.7732 47.5559 44.6767 48.2451 43.9953 49.2804L43.0406 50.7309C42.4632 51.6083 41.7191 52.3637 40.8507 52.9544L40.1458 53.4339C39.5793 53.8192 38.9308 54.0673 38.2518 54.1586L36.2808 54.4236C34.9537 54.6021 34.0226 55.8225 34.201 57.1495C34.3139 57.9889 34.6726 58.7761 35.2321 59.4118L36.5406 60.8987C36.7459 61.132 36.932 61.3815 37.0972 61.6448C38.3005 63.5629 40.5138 64.6007 42.7579 64.2989L43.7929 64.1598C46.0289 63.8591 48.1215 62.8888 49.7955 61.3764L49.9522 61.2348L51.0399 60.0493C51.5314 59.5137 52.098 59.0522 52.722 58.6794L53.2819 58.3449C53.7856 58.0439 54.3453 57.8484 54.9268 57.7702Z" fill="#DC9264" fill-opacity="0.3"/>
<path d="M51.1487 55.1404L50.7321 55.648C50.2698 56.2113 50.0503 56.9353 50.1217 57.6605C50.2289 58.7488 50.9712 59.6699 52.0118 60.0059L53.8259 60.5918C55.0393 60.9836 56.3495 60.9541 57.5439 60.5078L58.6072 60.1106L62.339 58.5782C62.9945 58.309 63.573 57.8814 64.0225 57.3336C64.8088 56.3755 65.1413 55.1238 64.9343 53.9018L64.6442 52.1897C64.4687 51.1541 64.4983 50.0942 64.7311 49.0701L64.9201 48.2388C65.072 47.5707 65.3774 46.9472 65.812 46.4175L67.0737 44.8802C67.9231 43.8451 67.7726 42.3174 66.7375 41.468C66.0829 40.9307 65.2838 40.5993 64.4411 40.5154L62.4702 40.3192C62.161 40.2885 61.8547 40.2328 61.5544 40.1527C59.3666 39.5693 57.0396 40.3185 55.6032 42.0689L54.9407 42.8761C53.5095 44.6201 52.6397 46.7565 52.4456 49.0042L52.4274 49.2145L52.4395 50.8234C52.445 51.5503 52.3449 52.2742 52.1424 52.9723L51.9607 53.5987C51.7972 54.1623 51.521 54.6868 51.1487 55.1404Z" fill="#DC9264" fill-opacity="0.3"/>
<path d="M56.5839 42.2388L56.1673 42.7464C55.705 43.3098 55.4854 44.0337 55.5569 44.759C55.6641 45.8472 56.4064 46.7683 57.447 47.1044L59.2611 47.6902C60.4745 48.0821 61.7846 48.0525 62.9791 47.6063L64.0423 47.2091L67.7742 45.6766C68.4297 45.4075 69.0082 44.9798 69.4577 44.432C70.244 43.474 70.5765 42.2222 70.3695 41.0003L70.0794 39.2881C69.9039 38.2526 69.9335 37.1927 70.1663 36.1685L70.3553 35.3372C70.5072 34.6692 70.8126 34.0456 71.2472 33.516L72.5088 31.9786C73.3583 30.9436 73.2078 29.4159 72.1727 28.5664C71.5181 28.0292 70.719 27.6977 69.8763 27.6139L67.9054 27.4177C67.5961 27.3869 67.2899 27.3312 66.9896 27.2511C64.8017 26.6678 62.4748 27.417 61.0384 29.1673L60.3759 29.9746C58.9447 31.7186 58.0748 33.8549 57.8807 36.1026L57.8626 36.313L57.8747 37.9219C57.8802 38.6488 57.7801 39.3726 57.5776 40.0707L57.3959 40.6971C57.2324 41.2607 56.9562 41.7852 56.5839 42.2388Z" fill="#DC9264" fill-opacity="0.3"/>
<path d="M76.8475 30.3573L76.9429 29.7077C77.0488 28.9866 76.864 28.2531 76.429 27.6684C75.7763 26.7909 74.6655 26.3841 73.6005 26.6323L71.7439 27.0651C70.5022 27.3545 69.3946 28.055 68.6009 29.0529L67.8944 29.9413L65.4858 33.1777C65.0628 33.7461 64.7874 34.4107 64.6844 35.1118C64.5043 36.3381 64.8643 37.5822 65.6715 38.5227L66.8024 39.8405C67.4864 40.6375 68.0072 41.5611 68.3355 42.5588L68.6019 43.3686C68.8159 44.0194 68.8756 44.7112 68.776 45.389L68.487 47.3567C68.2924 48.6815 69.2086 49.9131 70.5334 50.1077C71.3713 50.2308 72.2269 50.1031 72.9924 49.7407L74.7825 48.8932C75.0634 48.7602 75.3545 48.6501 75.6531 48.564C77.8288 47.9365 79.4369 46.0954 79.7659 43.8551L79.9177 42.8219C80.2455 40.5898 79.8901 38.3107 78.8982 36.2844L78.8053 36.0947L77.9659 34.7221C77.5866 34.102 77.2994 33.4301 77.1132 32.7275L76.9461 32.097C76.7958 31.5298 76.7622 30.9379 76.8475 30.3573Z" fill="#DC9264" fill-opacity="0.3"/>
<path d="M58.7828 52.3408L58.3662 52.8484C57.9039 53.4117 57.6843 54.1356 57.7557 54.8609C57.8629 55.9492 58.6052 56.8703 59.6458 57.2063L61.46 57.7922C62.6733 58.184 63.9835 58.1544 65.1779 57.7082L66.2412 57.311L69.9731 55.7786C70.6286 55.5094 71.207 55.0817 71.6566 54.534C72.4428 53.5759 72.7754 52.3242 72.5683 51.1022L72.2782 49.3901C72.1028 48.3545 72.1323 47.2946 72.3652 46.2705L72.5542 45.4392C72.7061 44.7711 73.0114 44.1475 73.4461 43.6179L74.7077 42.0806C75.5571 41.0455 75.4066 39.5178 74.3716 38.6684C73.7169 38.1311 72.9179 37.7997 72.0751 37.7158L70.1042 37.5196C69.795 37.4888 69.4887 37.4331 69.1885 37.3531C67.0006 36.7697 64.6737 37.5189 63.2372 39.2693L62.5748 40.0765C61.1435 41.8205 60.2737 43.9569 60.0796 46.2046L60.0614 46.4149L60.0736 48.0238C60.079 48.7507 59.9789 49.4745 59.7764 50.1727L59.5947 50.799C59.4313 51.3626 59.155 51.8871 58.7828 52.3408Z" fill="#DC9264" fill-opacity="0.3"/>
<path d="M46.1435 59.0499C44.1693 59.3063 41.9362 57.8684 40.267 56.9759C39.0122 56.3049 37.5647 55.463 39.6579 54.8524C42.8669 53.9165 47.549 54.2977 50.1434 56.5973C50.4106 56.8341 51.1014 57.5839 51.5097 57.2146C51.8697 56.8888 52.2395 55.982 52.3821 55.6508C52.9147 54.4138 53.4054 53.0883 53.5673 51.7414C53.7321 50.369 53.4201 48.049 51.7977 47.5933C49.9971 47.0875 48.2875 49.4666 47.378 50.622C45.8379 52.5786 44.4267 54.644 42.7196 56.4656C41.3836 57.8913 39.6232 59.4416 37.5016 59.0499C34.7287 58.538 33.0539 55.4475 32.1024 53.0747C31.41 51.3477 30.5814 48.2804 31.6909 46.5315C32.6609 45.0026 35.2336 45.6297 36.5715 46.0624C40.3677 47.2901 43.3639 49.9035 46.4562 52.301C47.5525 53.151 48.7229 54.3775 49.1887 52.4821C50.0117 49.1332 50.398 45.58 50.7854 42.1612C51.0918 39.4565 51.2809 36.7482 49.9953 34.2436C48.7785 31.8731 46.8516 30.6075 44.234 30.3835C41.9054 30.1843 39.6926 30.5856 37.5016 31.3465C36.9553 31.5362 35.4443 32.4332 34.8761 31.865C34.3424 31.3314 33.9906 30.3991 33.8308 29.684C33.4492 27.9759 34.1139 26.8008 35.9213 26.6223C39.1697 26.3013 42.9401 26.93 45.9048 28.2601C48.8046 29.5612 52.3221 32.1159 53.1393 35.4123C53.702 37.6822 52.5688 40.3362 51.0981 42.0295C49.3973 43.9879 45.8956 44.7174 43.4439 44.013C40.8948 43.2807 38.4688 40.548 36.9913 38.4411C36.335 37.5052 35.3003 35.5117 37.0489 35.1325C38.5094 34.8157 40.6098 34.888 41.9871 34.9843C44.8904 35.1874 47.7885 35.6173 50.1599 37.4534C51.0938 38.1765 52.3828 39.778 53.0734 40.7291C53.7169 41.6154 54.5326 43.783 55.6578 44.26C56.4498 44.5957 57.0597 43.7543 57.4767 43.3052C59.0824 41.576 60.4407 39.5706 61.8964 37.7168C62.7656 36.6099 65.5019 34.0675 64.5877 32.3506C63.8207 30.9101 61.2955 30.4135 59.9211 30.0626C57.0447 29.3282 53.309 28.7223 50.6702 30.5564C46.5775 33.4008 48.8836 43.5358 54.522 42.2929C57.7456 41.5823 60.7978 39.7245 63.8717 38.5728C66.3423 37.6471 68.6089 36.9242 71.1803 36.2847C74.1883 35.5366 77.6789 34.5923 80.8262 34.7292C83.3912 34.8407 83.0214 37.8806 82.7686 39.6756C82.3029 42.983 81.6397 46.271 78.4724 47.9389C73.1952 50.7178 65.4048 49.4542 63.7729 42.9513C62.7772 38.9837 65.5183 35.3831 69.1885 34.1448C71.9675 33.2072 76.5881 32.8844 78.5217 35.6098C79.4457 36.9121 79.5433 38.6066 80.0526 40.0707C80.5543 41.5131 79.8613 37.0011 79.46 35.5275C78.4097 31.6711 75.6719 29.3563 71.9045 28.2025C70.6496 27.8182 69.3039 27.5137 67.9786 27.7251C66.2646 27.9987 65.4294 29.3771 64.8593 30.8856C63.8381 33.588 63.5719 36.6844 63.7729 39.544C64.0253 43.1349 64.6244 46.9917 67.2791 49.6262C68.6217 50.9586 70.377 51.7612 71.707 53.0911C73.2021 54.5862 73.5478 56.9327 73.4107 58.9594C73.1924 62.1863 70.8669 63.9265 67.8552 64.7207C64.9448 65.4881 62.6565 65.5097 59.6577 65.0746C56.7142 64.6475 52.9357 63.6668 51.0981 61.0252C49.1015 58.155 50.8093 54.4536 53.7895 53.264C57.5589 51.7593 61.9882 52.6849 64.991 55.3298C66.6827 56.8199 67.8345 58.7717 69.1062 60.5972C69.2747 60.8392 69.455 61.3247 69.7317 61.2228C70.2243 61.0413 70.5942 58.8701 70.6206 58.7536C71.5166 54.7932 72.2748 50.819 73.2214 46.869C73.7777 44.5476 72.5834 43.7475 70.3161 43.4287C65.4067 42.7383 59.354 43.2036 55.3121 46.3752C51.7764 49.1496 50.8327 53.4413 51.2545 57.6919C51.593 61.1024 52.6303 64.4144 52.9417 67.8235C53.2019 70.671 52.4935 72.7509 49.2792 72.8358C45.4782 72.9362 41.4991 71.5647 38.1765 69.8153C35.1694 68.232 33.4819 65.8534 32.8432 62.5067C32.3434 59.888 32.476 56.1801 35.23 54.8031C37.5759 53.6301 39.4245 55.5927 40.1682 57.6672C41.0623 60.1613 41.3417 63.2036 41.2217 65.8318C41.1103 68.2715 40.3045 69.8654 37.7073 69.8482C34.4096 69.8264 32.5363 67.1439 31.1806 64.4326C29.5814 61.2341 28.3647 56.9173 28.8926 53.3134C29.193 51.2622 30.6513 49.6134 32.481 48.729C34.5965 47.7066 38.0188 47.156 39.5098 49.5027C42.4272 54.0946 37.3956 60.9017 32.1518 58.7536C29.9061 57.8337 28.7585 54.6044 28.6457 52.3833C28.3758 47.0713 35.8327 46.5954 39.4933 46.4492C45.6168 46.2048 53.4032 46.9001 57.6495 51.9883C60.5655 55.4824 60.0102 60.0293 57.7812 63.6589C56.6776 65.456 55.4254 66.7852 53.3697 67.3132C52.5068 67.5349 51.4596 67.5303 50.6537 67.9387C48.8839 68.8358 49.2776 72.2339 50.4562 73.4037C51.3541 74.2949 52.7444 74.3868 53.9294 74.3584C56.3667 74.3 58.885 73.8057 60.9087 72.3749C63.2238 70.7382 63.2341 68.4016 61.847 66.0622C60.7215 64.1639 58.3059 62.3209 55.9788 63.0911C53.8472 63.7965 52.0422 65.7502 50.1846 66.9511C49.0691 67.6722 46.2632 69.7599 44.8431 68.5313C43.5263 67.3922 43.0665 64.9105 42.769 63.338C42.5212 62.0279 42.2766 60.6724 42.4809 59.3298C42.8085 57.1772 44.314 55.9545 46.3904 55.4615C48.3574 54.9944 51.3464 55.0877 53.238 55.264C57.4807 55.6592 61.8784 56.4696 65.8717 57.9965C67.6329 58.6699 68.0952 59.0281 69.5259 59.9882C70.0001 60.3064 71.1494 61.3973 71.9045 61.0911C72.3588 60.9068 73.0281 60.0013 73.2378 59.7084C74.7899 57.5412 76.1719 55.2538 77.7234 53.0829C79.6053 50.4498 83.2618 47.0835 82.3736 43.4451C82.0327 42.049 80.8974 40.1883 79.4106 39.7579C76.3098 38.8603 73.2946 43.1866 71.9374 45.2064C69.6823 48.5627 68.3963 52.1229 67.2297 55.9389C67.0747 56.4457 66.6761 57.6872 66.3079 58.1281C65.3067 59.3271 63.5463 58.9752 62.2503 58.6878C59.7791 58.1398 57.7163 57.1012 56.6866 54.6796C55.3805 51.6082 55.0424 47.1042 58.3738 45.1571C61.8189 43.1435 67.1784 43.5778 70.4313 45.7332C73.7691 47.9449 75.5753 51.9638 77.2872 55.4286C77.428 55.7135 78.1653 58.0867 78.637 56.6961C80.0136 52.6368 80.4561 48.0556 81.0896 43.832C81.5987 40.4383 80.7599 38.2333 77.6329 36.4987C73.5416 34.2293 69.053 33.6914 64.4643 33.9473C62.0524 34.0818 59.6279 34.5219 58.0281 32.3341C56.7483 30.5841 55.6099 28.5455 54.5961 26.6305C53.9055 25.326 53.4716 24.3782 55.4109 24.433C60.3439 24.5723 65.5151 26.1538 70.1679 27.6758C71.5123 28.1155 74.9939 28.926 75.493 30.6634C75.6995 31.3825 75.3613 32.0082 74.9827 32.5975C73.8638 34.3392 72.0867 35.8161 70.2585 36.7621C64.8073 39.5828 58.5926 35.9054 55.4273 31.2971C55.3584 31.1968 55.0783 30.4995 54.8512 30.7375C53.3784 32.2804 51.9488 33.6572 50.1516 34.8609C47.8087 36.4301 45.0714 37.4048 42.8019 39.0666C41.6376 39.9192 40.9987 41.3099 40.4645 42.6057C40.1016 43.4859 39.8767 44.5652 39.2793 45.3299C38.7455 46.0132 36.797 43.5145 36.695 43.4122C34.371 41.0818 31.5097 38.5798 31.2053 35.0913C31.152 34.4806 31.1377 33.8757 31.3617 33.2971C31.4374 33.1015 31.8368 32.6522 32.0695 33.0255C32.3036 33.401 32.2994 34.3019 32.2835 34.6057C32.1717 36.7486 31.6244 38.8672 30.9255 40.8855C30.2943 42.7083 28.8511 44.6528 28.728 46.6221C28.66 47.7097 28.943 48.7294 29.9955 49.1241" stroke="#BA9539" stroke-width="0.634558" stroke-linecap="round"/>
<path d="M44.1122 56.1367C42.1811 55.6533 40.6286 53.4983 39.4015 52.0571C38.479 50.9737 37.4398 49.6607 39.6112 49.858C42.9401 50.1606 47.1585 52.2278 48.7321 55.3169C48.8942 55.6351 49.2629 56.5856 49.7779 56.3911C50.2321 56.2196 50.9079 55.5109 51.1618 55.2548C52.11 54.2982 53.0515 53.2441 53.6947 52.0497C54.3501 50.8327 54.9082 48.5593 53.5649 47.5418C52.074 46.4125 49.6128 48.0015 48.3437 48.7443C46.1946 50.002 44.1258 51.4081 41.8708 52.4792C40.1059 53.3175 37.9005 54.1166 36.0691 52.9761C33.6755 51.4854 33.2471 47.9965 33.2294 45.4401C33.2165 43.5795 33.5672 40.4217 35.2395 39.1998C36.7015 38.1315 38.8666 39.6561 39.9535 40.5482C43.0376 43.0792 44.8705 46.6074 46.8717 49.9698C47.5811 51.1618 48.2219 52.7314 49.3486 51.1377C51.3394 48.3218 52.9985 45.1561 54.6094 42.1158C55.8839 39.7106 57.0503 37.259 56.7698 34.4578C56.5043 31.8065 55.1738 29.9239 52.8195 28.758C50.7251 27.721 48.5188 27.2851 46.2013 27.192C45.6235 27.1687 43.8891 27.451 43.5681 26.7143C43.2666 26.0225 43.2801 25.0261 43.3929 24.3021C43.6625 22.5728 44.7109 21.7223 46.4584 22.2171C49.5991 23.1064 52.8784 25.0705 55.1511 27.3928C57.3742 29.6643 59.7136 33.3285 59.2686 36.6954C58.9621 39.0139 56.9367 41.0695 54.9487 42.1076C52.6495 43.3082 49.1236 42.7066 47.0993 41.1543C44.9946 39.5404 43.7361 36.1098 43.1316 33.6084C42.8631 32.4973 42.6292 30.2635 44.3953 30.5501C45.8705 30.7895 47.799 31.6249 49.0456 32.2183C51.6735 33.4692 54.2135 34.9292 55.7491 37.5054C56.3538 38.52 56.9678 40.4819 57.2627 41.6198C57.5375 42.68 57.5039 44.9957 58.3766 45.8512C58.991 46.4533 59.8664 45.8933 60.4187 45.6278C62.5456 44.6057 64.5433 43.236 66.5761 42.0431C67.7899 41.3307 71.2665 39.9653 71.0436 38.033C70.8566 36.4118 68.688 35.026 67.5371 34.1967C65.1287 32.4612 61.8733 30.531 58.7465 31.2729C53.8971 32.4234 52.3367 42.6996 58.039 43.605C61.2991 44.1226 64.8194 43.5098 68.1015 43.5621C70.7395 43.6042 73.1134 43.7604 75.7405 44.1056C78.8138 44.5095 82.408 44.9073 85.2872 46.1858C87.6336 47.2277 86.1776 49.9218 85.2859 51.4999C83.6427 54.4079 81.823 57.2255 78.2651 57.6194C72.3372 58.2758 65.5487 54.2504 66.4082 47.6012C66.9326 43.5443 70.8006 41.1957 74.6694 41.3855C77.5988 41.5293 82.0174 42.9187 82.8202 46.1626C83.2038 47.7126 82.675 49.3253 82.6135 50.8743C82.5529 52.4003 83.5582 47.9474 83.7236 46.4291C84.1565 42.4558 82.455 39.3001 79.3706 36.8483C78.3432 36.0316 77.2021 35.256 75.8913 34.9681C74.196 34.5958 72.9145 35.5733 71.8322 36.7688C69.8934 38.9105 68.5132 41.6949 67.6544 44.4299C66.576 47.8644 65.7229 51.6731 67.2302 55.0959C67.9925 56.8271 69.3326 58.2161 70.084 59.9403C70.9287 61.8786 70.3923 64.189 69.5234 66.0251C68.1401 68.9486 65.3393 69.7178 62.2457 69.3554C59.2564 69.0052 57.1187 68.1884 54.4868 66.6866C51.9034 65.2126 48.7454 62.9179 48.0012 59.7873C47.1926 56.3857 50.1359 53.5654 53.3447 53.5481C57.4033 53.5262 61.1872 56.0077 63.0146 59.5676C64.0441 61.5732 64.4022 63.811 64.9182 65.9752C64.9865 66.262 64.9768 66.7798 65.2716 66.7861C65.7964 66.7974 66.9348 64.9119 67.0019 64.8132C69.2844 61.4548 71.4435 58.0332 73.7692 54.7031C75.136 52.746 74.317 51.5646 72.3234 50.4386C68.0067 48.0005 62.2032 46.2198 57.2813 47.6934C52.9758 48.9824 50.5279 52.6317 49.3659 56.7421C48.4335 60.0401 48.1877 63.5021 47.2307 66.7888C46.4314 69.5342 45.0113 71.2109 41.9887 70.1144C38.4143 68.8176 35.2125 66.0858 32.7599 63.2424C30.5403 60.669 29.8396 57.838 30.4692 54.4896C30.9618 51.8695 32.4413 48.467 35.5081 48.1926C38.1205 47.9589 39.1232 50.4616 39.0567 52.6644C38.9767 55.3128 38.124 58.2464 37.0511 60.6486C36.0551 62.8786 34.7222 64.0673 32.3113 63.1014C29.25 61.875 28.4875 58.6932 28.2174 55.674C27.8988 52.1121 28.3453 47.6495 30.1546 44.4883C31.1845 42.6891 33.1447 41.6879 35.1711 41.534C37.514 41.3561 40.9006 42.0953 41.4299 44.8248C42.4658 50.1655 35.2932 54.6608 31.1983 50.7437C29.4447 49.0662 29.5577 45.6408 30.265 43.5324C31.9566 38.4896 39.071 40.774 42.5314 41.9768C48.3201 43.9889 55.3127 47.4839 57.4039 53.7725C58.8399 58.091 56.6601 62.1198 53.258 64.6828C51.5737 65.9517 49.922 66.7308 47.8157 66.4704C46.9315 66.3611 45.9585 65.9738 45.059 66.0593C43.0838 66.2469 42.2073 69.5536 42.8764 71.0734C43.3862 72.2313 44.6466 72.8253 45.7598 73.2322C48.0497 74.0693 50.5743 74.5303 52.9811 73.9387C55.7344 73.2621 56.5985 71.0912 56.1632 68.4066C55.8099 66.2281 54.2357 63.6294 51.7881 63.495C49.5463 63.3719 47.1517 64.5302 44.9836 64.9685C43.6817 65.2316 40.3067 66.1485 39.4342 64.4856C38.6253 62.9438 39.105 60.4659 39.4033 58.8935C39.6517 57.5836 39.9199 56.2325 40.6011 55.0576C41.6933 53.174 43.5417 52.5867 45.6545 52.8872C47.656 53.1719 50.4039 54.352 52.1 55.2078C55.9042 57.1274 59.7007 59.49 62.8589 62.3716C64.2518 63.6425 64.5511 64.1449 65.5316 65.5619C65.8565 66.0314 66.5272 67.4671 67.342 67.4583C67.8322 67.4529 68.7863 66.8549 69.0887 66.659C71.3258 65.2096 73.4486 63.5861 75.6866 62.1331C78.4012 60.3707 83.0355 58.575 83.5395 54.8638C83.7329 53.4398 83.3568 51.2927 82.1304 50.3484C79.5727 48.3789 75.1841 51.3027 73.1823 52.6862C69.8559 54.9851 67.3569 57.8283 64.8754 60.9532C64.5458 61.3683 63.7207 62.378 63.2168 62.6537C61.8464 63.4034 60.3367 62.432 59.2356 61.6906C57.1361 60.2768 55.596 58.5556 55.5233 55.9252C55.4311 52.589 56.7636 48.2733 60.5764 47.6795C64.5192 47.0654 69.3486 49.4298 71.5878 52.6256C73.8855 55.9048 74.0967 60.3059 74.4227 64.1567C74.4496 64.4734 74.2679 66.9519 75.2154 65.83C77.9813 62.5555 80.0687 58.4535 82.2031 54.7542C83.918 51.7819 83.9438 49.4229 81.6678 46.6648C78.6901 43.0563 74.7092 40.914 70.3447 39.4739C68.0508 38.7169 65.6334 38.2398 64.9445 35.6185C64.3935 33.5217 64.0795 31.2079 63.8363 29.0548C63.6706 27.5881 63.6134 26.5473 65.3983 27.3076C69.9387 29.2415 74.1732 32.6047 77.947 35.7229C79.0373 36.6238 81.9814 38.6516 81.8104 40.4511C81.7396 41.196 81.196 41.6545 80.6281 42.0646C78.9497 43.2764 76.7556 44.001 74.708 44.2128C68.6029 44.8444 64.1637 39.1489 62.9032 33.7021C62.8757 33.5835 62.87 32.8322 62.5716 32.9705C60.6365 33.8679 58.8025 34.6265 56.6896 35.0895C53.9351 35.6931 51.0309 35.5991 48.3109 36.3157C46.9154 36.6834 45.8121 37.7441 44.841 38.7547C44.1814 39.4412 43.5773 40.3636 42.7416 40.8568C41.9949 41.2975 41.0952 38.2593 41.0377 38.1268C39.727 35.1078 37.9791 31.7326 38.9717 28.3746C39.1454 27.7867 39.3533 27.2185 39.7734 26.7618C39.9154 26.6075 40.4515 26.3354 40.5315 26.7679C40.6121 27.2031 40.2786 28.04 40.1527 28.3169C39.265 30.2704 37.9807 32.0421 36.5921 33.665C35.3379 35.1306 33.2835 36.4126 32.4487 38.2004C31.9876 39.1878 31.8781 40.2404 32.7133 40.9926" stroke="#E4C26D" stroke-opacity="0.6" stroke-width="0.634558" stroke-linecap="round"/>
<path d="M40.1432 47.1647C39.1299 45.4511 39.5719 42.8322 39.7348 40.9463C39.8572 39.5287 40.061 37.8666 41.4466 39.5501C43.5709 42.1309 45.0649 46.5846 43.9732 49.8751C43.8608 50.214 43.4438 51.1443 43.944 51.3741C44.3852 51.5767 45.3644 51.5594 45.725 51.56C47.0718 51.5622 48.4834 51.4912 49.7852 51.1094C51.1116 50.7203 53.1211 49.5196 52.9009 47.8489C52.6565 45.9946 49.7963 45.3604 48.376 44.9796C45.9709 44.3347 43.5167 43.8512 41.17 42.9997C39.3333 42.3333 37.2148 41.3259 36.7391 39.2215C36.1174 36.4711 38.2983 33.7144 40.1045 31.9052C41.419 30.5884 43.912 28.6186 45.9565 28.9495C47.744 29.2388 48.1809 31.8506 48.3102 33.2508C48.6772 37.2236 47.4553 41.0071 46.4697 44.7937C46.1203 46.1361 45.454 47.695 47.3796 47.3766C50.782 46.8139 54.2 45.7694 57.495 44.7787C60.1018 43.9949 62.6656 43.1018 64.4612 40.9336C66.1608 38.8815 66.565 36.6119 65.7398 34.1177C65.0057 31.8989 63.7652 30.023 62.2027 28.3089C61.8132 27.8815 60.3935 26.846 60.6919 26.0999C60.9722 25.3992 61.6905 24.7085 62.2849 24.28C63.7045 23.2565 65.0464 23.4045 65.9225 24.9955C67.4971 27.8548 68.4045 31.568 68.3497 34.8169C68.2961 37.9948 67.3334 42.2342 64.6255 44.2838C62.7608 45.6952 59.8749 45.699 57.7392 45.0143C55.2693 44.2224 53.2194 41.2912 52.901 38.7602C52.57 36.1287 54.1261 32.8224 55.4807 30.6345C56.0825 29.6625 57.5072 27.9263 58.5445 29.3841C59.411 30.6018 60.1719 32.5608 60.6259 33.8647C61.5829 36.6133 62.3293 39.4464 61.5758 42.3493C61.279 43.4925 60.3148 45.3082 59.7126 46.3176C59.1515 47.2582 57.4804 48.8618 57.4852 50.0838C57.4886 50.9441 58.5023 51.1732 59.0792 51.3796C61.3012 52.1744 63.6795 52.6329 65.9568 53.2407C67.3166 53.6035 70.7313 55.1172 71.9493 53.6006C72.9712 52.3282 72.433 49.8116 72.2141 48.41C71.7561 45.4769 70.8414 41.8046 68.1162 40.1015C63.8896 37.4602 55.4824 43.5721 58.8458 48.265C60.7688 50.9481 63.6787 53.0217 65.9481 55.3934C67.7722 57.2997 69.3294 59.0982 70.9301 61.2098C72.8026 63.68 75.0455 66.5164 76.1595 69.4632C77.0674 71.8647 74.1275 72.7222 72.3781 73.197C69.1547 74.0717 65.8713 74.7573 63.0906 72.503C58.4576 68.7472 56.5504 61.0889 61.8847 57.0274C65.1393 54.5493 69.5285 55.6505 72.1124 58.5362C74.0689 60.7212 76.1858 64.841 74.4423 67.6919C73.6093 69.0541 72.0903 69.8113 70.9451 70.8561C69.8169 71.8855 73.6912 69.4712 74.8876 68.5219C78.0185 66.0374 79.0676 62.6092 78.6442 58.6919C78.5031 57.387 78.2529 56.0301 77.5365 54.8953C76.6099 53.4276 75.0139 53.2029 73.4028 53.2732C70.5166 53.399 67.5658 54.374 65.0166 55.6852C61.8154 57.3317 58.5063 59.4015 57.1306 62.8793C56.4348 64.6383 56.3885 66.5678 55.69 68.3142C54.9047 70.2773 52.8841 71.5193 50.9673 72.1917C47.9153 73.2622 45.3997 71.8102 43.4834 69.3548C41.6317 66.982 40.7104 64.8872 39.9291 61.9595C39.1622 59.0857 38.5752 55.2264 40.2794 52.4969C42.131 49.531 46.2059 49.6428 48.4732 51.9134C51.3411 54.7853 52.2351 59.2212 50.9868 63.023C50.2836 65.1649 48.9433 66.9924 47.7663 68.8804C47.6103 69.1306 47.235 69.4875 47.4377 69.7017C47.7986 70.083 49.9399 69.5678 50.0574 69.5461C54.0506 68.8096 58.0021 67.941 62.0056 67.2552C64.3585 66.8521 64.6234 65.4392 64.0233 63.2296C62.724 58.4452 59.9122 53.0651 55.4049 50.5993C51.462 48.4423 47.1456 49.2655 43.4048 51.3276C40.4033 52.9821 37.7677 55.2402 34.7569 56.8693C32.2421 58.2301 30.0513 58.3982 28.7072 55.4773C27.1176 52.0231 26.8109 47.8255 27.11 44.0824C27.3808 40.6948 28.9023 38.2068 31.7269 36.3014C33.937 34.8105 37.3973 33.4717 39.7478 35.4607C41.75 37.1549 40.6743 39.6271 39.0604 41.1279C37.1202 42.9322 34.4339 44.3873 31.971 45.3123C29.6846 46.171 27.9022 46.0581 26.895 43.6642C25.616 40.6244 27.3437 37.8459 29.3018 35.5319C31.6117 32.802 35.1002 29.9833 38.6207 29.0489C40.6244 28.517 42.7143 29.208 44.2479 30.5414C46.021 32.083 47.8752 35.0118 46.3055 37.3066C43.2341 41.7969 34.9953 39.8535 34.9041 34.1876C34.8651 31.7611 37.3813 29.4342 39.3783 28.4556C44.1546 26.115 47.5293 32.7816 49.1056 36.0887C51.7424 41.6208 54.1704 49.0516 51.1663 54.9588C49.1033 59.0154 44.7053 60.2961 40.4911 59.677C38.4047 59.3706 36.6896 58.7431 35.3945 57.0617C34.8509 56.3559 34.4426 55.3915 33.7497 54.8117C32.2281 53.5383 29.2598 55.2387 28.6488 56.7828C28.1833 57.9592 28.6465 59.2733 29.1394 60.3513C30.1532 62.5686 31.5995 64.6885 33.7118 65.985C36.1281 67.4682 38.2798 66.5572 39.8837 64.3608C41.1852 62.5785 41.9276 59.6323 40.3031 57.7966C38.8151 56.1153 36.3082 55.2258 34.4727 53.9914C33.3706 53.2502 30.3464 51.4935 30.9162 49.7042C31.4445 48.0452 33.5445 46.6451 34.8727 45.7522C35.9792 45.0083 37.1288 44.2496 38.4433 43.9085C40.5509 43.3617 42.2677 44.2639 43.5388 45.9781C44.743 47.6021 45.8346 50.3862 46.4177 52.1943C47.7257 56.2497 48.7131 60.611 48.8827 64.8829C48.9575 66.767 48.8103 67.333 48.4914 69.0263C48.3857 69.5874 47.8357 71.0736 48.4147 71.647C48.763 71.992 49.8589 72.2504 50.2108 72.3278C52.8141 72.9007 55.461 73.2699 58.0675 73.8409C61.229 74.5335 65.7634 76.5683 68.7578 74.3187C69.9067 73.4555 71.1698 71.679 70.9797 70.1429C70.5833 66.9391 65.4191 65.872 63.028 65.4201C59.0548 64.6694 55.2759 64.8898 51.3088 65.3206C50.7819 65.3778 49.4838 65.5004 48.9335 65.3357C47.437 64.8878 47.0671 63.131 46.8207 61.8266C46.351 59.3394 46.4931 57.0342 48.3133 55.1339C50.6218 52.7236 54.6285 50.6386 57.7305 52.9337C60.9383 55.307 62.6503 60.4043 61.9505 64.2432C61.2325 68.1824 58.2499 71.4257 55.7396 74.3639C55.5332 74.6056 53.6423 76.2182 55.1063 76.1039C59.3796 75.7702 63.7647 74.3723 67.8964 73.2909C71.2162 72.422 72.9126 70.7825 73.2752 67.225C73.7495 62.5706 72.4758 58.233 70.4331 54.1161C69.3594 51.9522 67.9999 49.8971 69.3805 47.5649C70.485 45.6992 71.9103 43.8498 73.2711 42.1636C74.1981 41.015 74.8984 40.2428 75.6119 42.0469C77.427 46.636 78.0104 52.012 78.4443 56.8882C78.5696 58.297 79.1961 61.8165 77.7958 62.9595C77.2161 63.4327 76.5079 63.3682 75.817 63.2524C73.7754 62.9101 71.7179 61.8583 70.1282 60.5506C65.3883 56.6513 66.3203 49.4905 69.3092 44.7658C69.3743 44.663 69.9048 44.1309 69.5967 44.0158C67.5983 43.2699 65.7698 42.4982 63.9555 41.3205C61.5902 39.7851 59.6161 37.6531 57.1947 36.2217C55.9524 35.4873 54.4224 35.4479 53.021 35.4673C52.069 35.4805 50.9883 35.699 50.0502 35.4511C49.2119 35.2296 50.7409 32.4544 50.7948 32.3203C52.0214 29.2662 53.194 25.6507 56.2805 23.9968C56.8208 23.7073 57.3712 23.4558 57.9913 23.4338C58.2009 23.4263 58.7712 23.6164 58.5197 23.9774C58.2668 24.3405 57.437 24.6914 57.1516 24.7965C55.1379 25.5379 52.975 25.8694 50.8446 26.022C48.9205 26.1598 46.5647 25.5992 44.7062 26.2618C43.6797 26.6278 42.8539 27.2896 42.9057 28.4124" stroke="#BA9539" stroke-width="0.634558" stroke-linecap="round"/>
<path d="M42.8745 42.8804C42.5581 40.915 43.9273 38.6392 44.7686 36.9435C45.401 35.6688 46.1985 34.1965 46.8725 36.2701C47.9057 39.449 47.6673 44.1406 45.4478 46.8039C45.2192 47.0781 44.4908 47.7915 44.8724 48.1883C45.2089 48.5382 46.1265 48.8802 46.462 49.0127C47.7147 49.5074 49.0544 49.9575 50.4057 50.0782C51.7825 50.2012 54.0919 49.8187 54.498 48.1832C54.9487 46.368 52.5186 44.7317 51.336 43.8578C49.3334 42.3779 47.2261 41.0303 45.3533 39.3795C43.8876 38.0875 42.2844 36.3752 42.6113 34.2425C43.0385 31.4553 46.0766 29.6873 48.4194 28.664C50.1244 27.9192 53.1651 26.9977 54.947 28.0534C56.5048 28.9764 55.9562 31.567 55.5645 32.9175C54.453 36.7492 51.932 39.8237 49.6298 42.9875C48.8136 44.1092 47.6233 45.3164 49.532 45.7243C52.9044 46.4449 56.4677 46.7229 59.8967 47.0059C62.6095 47.2299 65.3223 47.3364 67.7866 45.9751C70.119 44.6867 71.3253 42.7222 71.4694 40.099C71.5976 37.7654 71.1292 35.5658 70.3019 33.399C70.0956 32.8587 69.153 31.3757 69.7037 30.7905C70.2208 30.2408 71.142 29.8608 71.8519 29.6793C73.5475 29.2459 74.7423 29.8745 74.9758 31.6756C75.3955 34.9127 74.882 38.7005 73.6427 41.7043C72.4306 44.6424 69.9841 48.236 66.7142 49.1532C64.4624 49.7848 61.7751 48.7329 60.0378 47.3145C58.0286 45.6741 57.1928 42.1963 57.8222 39.7242C58.4766 37.154 61.1341 34.6459 63.1951 33.1049C64.1106 32.4204 66.0716 31.3256 66.5039 33.0618C66.865 34.512 66.8567 36.6136 66.8023 37.9932C66.6878 40.9013 66.3463 43.8112 64.5832 46.2374C63.8889 47.1928 62.3274 48.53 61.3978 49.2493C60.5316 49.9195 58.3898 50.8008 57.9473 51.94C57.6358 52.7418 58.4954 53.3259 58.957 53.729C60.7343 55.2813 62.7801 56.5779 64.6774 57.9765C65.8103 58.8115 68.4348 61.4692 70.123 60.5031C71.5395 59.6926 71.959 57.1535 72.2679 55.769C72.9144 52.8716 73.4062 49.1192 71.4926 46.5374C68.5249 42.5333 58.4649 45.1469 59.8789 50.7448C60.6873 53.9452 62.6372 56.9395 63.882 59.9769C64.8824 62.4182 65.674 64.6617 66.3915 67.2124C67.2308 70.1963 68.281 73.6565 68.24 76.8066C68.2067 79.3737 65.1569 79.0966 63.355 78.8986C60.035 78.5338 56.7283 77.9711 54.9647 74.856C52.0264 69.666 53.0523 61.8407 59.5024 60.0115C63.4379 58.8955 67.1203 61.5257 68.4697 65.1564C69.4916 67.9056 69.955 72.5142 67.2896 74.5299C66.0161 75.4931 64.3254 75.6423 62.8774 76.1959C61.4509 76.7413 65.9398 75.9113 67.4005 75.4653C71.2231 74.2981 73.4534 71.491 74.492 67.6902C74.838 66.4242 75.1013 65.0698 74.8496 63.7516C74.524 62.0467 73.1208 61.2538 71.5956 60.73C68.8634 59.7916 65.7604 59.6198 62.9082 59.9077C59.3266 60.2694 55.4898 60.9856 52.9374 63.7193C51.6465 65.1019 50.8978 66.8808 49.6089 68.2507C48.1601 69.7906 45.8252 70.2075 43.7952 70.1323C40.5632 70.0124 38.753 67.7409 37.8675 64.7548C37.0118 61.8691 36.9205 59.5825 37.2641 56.5719C37.6014 53.6168 38.4666 49.8102 41.051 47.893C43.859 45.8098 47.6107 47.4042 48.8905 50.3467C50.5094 54.0686 49.719 58.5241 47.1668 61.606C45.7289 63.3422 43.813 64.5529 42.0271 65.8796C41.7904 66.0555 41.3106 66.2504 41.4209 66.5239C41.6173 67.0107 43.7988 67.3144 43.9159 67.3372C47.9019 68.1122 51.8973 68.749 55.8743 69.5749C58.2116 70.0603 58.9749 68.8421 59.2245 66.5662C59.7651 61.6381 59.1157 55.6023 55.8225 51.6589C52.9418 48.2092 48.6233 47.3967 44.3875 47.9478C40.9889 48.3899 37.71 49.5276 34.312 49.9427C31.4737 50.2895 29.3732 49.6447 29.1905 46.4345C28.9744 42.6383 30.2241 38.6193 31.8715 35.2449C33.3625 32.1911 35.6886 30.4319 39.0143 29.6916C41.6166 29.1123 45.3268 29.1319 46.787 31.8427C48.0309 34.1518 46.1255 36.0593 44.0746 36.8658C41.6088 37.8355 38.5765 38.2073 35.9459 38.1675C33.5039 38.1304 31.8862 37.3735 31.8243 34.777C31.7457 31.4801 34.3699 29.526 37.0387 28.0885C40.187 26.3925 44.4647 25.045 48.0831 25.4629C50.1425 25.7007 51.8349 27.1081 52.7745 28.9101C53.8609 30.9934 54.5155 34.3974 52.2153 35.9591C47.7144 39.015 40.7572 34.193 42.7446 28.8863C43.5957 26.6136 46.7886 25.3682 49.0051 25.1878C54.3065 24.7562 55.0093 32.1952 55.2668 35.8497C55.6976 41.9629 55.2397 49.7669 50.2832 54.1661C46.8795 57.1872 42.3178 56.7706 38.622 54.6531C36.7922 53.6048 35.4254 52.3936 34.835 50.355C34.5872 49.4992 34.5599 48.4523 34.1271 47.6592C33.1766 45.9176 29.792 46.4146 28.6587 47.6282C27.7952 48.5529 27.7457 49.9454 27.8101 51.1289C27.9428 53.5633 28.5135 56.0654 30.0053 58.0446C31.7118 60.3088 34.0475 60.2479 36.3436 58.7902C38.2068 57.6074 39.9753 55.1368 39.1347 52.8342C38.3647 50.7251 36.3569 48.9804 35.1 47.1603C34.3453 46.0673 32.1731 43.3263 33.3579 41.8693C34.4564 40.5185 36.9229 39.9834 38.4857 39.6381C39.7876 39.3505 41.135 39.0648 42.4832 39.2281C44.6448 39.49 45.9127 40.9576 46.4688 43.018C46.9955 44.9698 46.9932 47.9603 46.8747 49.8564C46.6088 54.1092 45.9327 58.5295 44.5282 62.5674C43.9087 64.3483 43.5648 64.8213 42.6486 66.2806C42.3451 66.7642 41.2896 67.9463 41.6187 68.6917C41.8167 69.1402 42.7422 69.7815 43.0414 69.9823C45.2548 71.4677 47.5832 72.7793 49.8003 74.264C52.4895 76.0649 55.9656 79.6171 59.5752 78.6186C60.9603 78.2354 62.7856 77.0439 63.1705 75.5447C63.9733 72.418 59.5572 69.536 57.497 68.2409C54.0736 66.089 50.4759 64.9121 46.6262 63.8621C46.1148 63.7227 44.8618 63.362 44.4098 63.0074C43.1809 62.0432 43.4791 60.2729 43.7269 58.9688C44.1993 56.4821 45.1747 54.3886 47.5638 53.2856C50.594 51.8866 55.0856 51.4114 57.1333 54.682C59.2508 58.0642 58.9799 63.4345 56.9246 66.7515C54.8156 70.1551 50.8535 72.0829 47.4425 73.8994C47.162 74.0488 44.8123 74.8581 46.2167 75.2872C50.316 76.5396 54.9085 76.8424 59.1495 77.347C62.5571 77.7525 64.7355 76.847 66.3741 73.6685C68.5179 69.5101 68.9188 65.0072 68.5233 60.4284C68.3155 58.0217 67.8018 55.6118 69.9398 53.9461C71.65 52.6136 73.653 51.4136 75.5362 50.3419C76.8191 49.6119 77.7533 49.1494 77.7576 51.0894C77.7685 56.0245 76.3452 61.2414 74.9656 65.9384C74.567 67.2955 73.8629 70.8002 72.1416 71.3519C71.429 71.5803 70.7934 71.2613 70.1928 70.9008C68.4178 69.8355 66.8875 68.1041 65.8863 66.3056C62.9009 60.9428 66.3873 54.6191 70.8971 51.3149C70.9953 51.2429 71.6837 50.9417 71.439 50.722C69.8519 49.2968 68.4322 47.9099 67.1744 46.1502C65.5345 43.8561 64.4769 41.1498 62.7468 38.9319C61.8591 37.7941 60.4496 37.1979 59.1382 36.7034C58.2473 36.3674 57.1616 36.1756 56.3791 35.6017C55.6799 35.089 58.1181 33.0653 58.2172 32.9602C60.4758 30.5663 62.8895 27.6301 66.3671 27.2197C66.9759 27.1478 67.5801 27.1151 68.1652 27.3213C68.363 27.3911 68.8243 27.7766 68.4583 28.0206C68.09 28.266 67.1894 28.2892 66.8853 28.2826C64.74 28.2361 62.6057 27.7536 60.5671 27.1164C58.7259 26.541 56.7384 25.1577 54.7662 25.0946C53.677 25.0598 52.6664 25.3737 52.304 26.4377" stroke="#E4C26D" stroke-opacity="0.6" stroke-width="0.634558" stroke-linecap="round"/>
<path d="M49.3837 30.6577L51.822 29.8424C53.0563 29.4275 54.4186 29.8215 55.241 30.8312L55.9958 31.758C56.886 32.8508 57.2568 34.2769 57.0118 35.6649L56.8971 36.3146C56.7102 37.3735 56.2322 38.3594 55.5166 39.1619L54.9963 39.7454C53.9428 40.9268 52.3395 41.4572 50.7893 41.137C49.8864 40.9505 49.064 40.4872 48.4366 39.8116L47.8756 39.2074C47.5576 38.8651 47.2814 38.4862 47.0527 38.0787L46.7368 37.516C45.9165 36.0545 45.9234 34.2698 46.7549 32.8147C47.3364 31.7972 48.2722 31.0293 49.3837 30.6577Z" fill="#843914"/>
<path d="M61.1597 32.909L63.598 32.0937C64.8323 31.6789 66.1946 32.0729 67.017 33.0825L67.7718 34.0093C68.662 35.1022 69.0328 36.5282 68.7878 37.9163L68.6731 38.566C68.4862 39.6248 68.0082 40.6107 67.2926 41.4132L66.7723 41.9967C65.7188 43.1781 64.1155 43.7085 62.5653 43.3883C61.6624 43.2018 60.84 42.7386 60.2126 42.0629L59.6516 41.4588C59.3336 41.1164 59.0574 40.7375 58.8287 40.3301L58.5129 39.7673C57.6925 38.3059 57.6994 36.5211 58.5309 35.066C59.1124 34.0485 60.0482 33.2807 61.1597 32.909Z" fill="#843914"/>
<path d="M50.769 42.2605L53.2073 41.4452C54.4417 41.0304 55.804 41.4244 56.6263 42.434L57.3812 43.3608C58.2714 44.4537 58.6422 45.8797 58.3972 47.2678L58.2825 47.9175C58.0956 48.9763 57.6176 49.9622 56.902 50.7647L56.3817 51.3482C55.3282 52.5296 53.7249 53.06 52.1747 52.7398C51.2717 52.5533 50.4494 52.0901 49.822 51.4144L49.2609 50.8103C48.943 50.4679 48.6668 50.089 48.4381 49.6816L48.1222 49.1188C47.3019 47.6574 47.3088 45.8726 48.1403 44.4175C48.7218 43.4 49.6576 42.6322 50.769 42.2605Z" fill="#843914"/>
<path d="M62.4278 49.2752L64.5709 48.5586C65.6558 48.194 66.8531 48.5403 67.5759 49.4277L68.2394 50.2423C69.0218 51.2029 69.3477 52.4562 69.1324 53.6762L69.0316 54.2473C68.8673 55.1779 68.4472 56.0444 67.8182 56.7498L67.3609 57.2626C66.435 58.301 65.0257 58.7672 63.6632 58.4858C62.8696 58.3219 62.1468 57.9147 61.5954 57.3209L61.1023 56.7898C60.8228 56.4889 60.5801 56.1559 60.379 55.7978L60.1014 55.3032C59.3804 54.0187 59.3865 52.45 60.1173 51.1711C60.6284 50.2767 61.4509 49.6019 62.4278 49.2752Z" fill="#843914"/>
<path d="M52.0776 58.5601L54.2207 57.8435C55.3056 57.4789 56.5029 57.8251 57.2257 58.7126L57.8892 59.5271C58.6716 60.4877 58.9975 61.7411 58.7822 62.9611L58.6814 63.5321C58.5171 64.4628 58.097 65.3293 57.468 66.0346L57.0107 66.5475C56.0847 67.5859 54.6755 68.052 53.313 67.7706C52.5194 67.6067 51.7966 67.1995 51.2452 66.6057L50.752 66.0747C50.4726 65.7738 50.2298 65.4408 50.0288 65.0827L49.7512 64.588C49.0302 63.3035 49.0362 61.7349 49.7671 60.4559C50.2782 59.5616 51.1006 58.8867 52.0776 58.5601Z" fill="#843914"/>
<path d="M39.1663 44.5118L41.6046 43.6965C42.8389 43.2817 44.2012 43.6756 45.0236 44.6853L45.7784 45.6121C46.6686 46.705 47.0394 48.131 46.7944 49.5191L46.6797 50.1687C46.4928 51.2276 46.0148 52.2135 45.2992 53.016L44.7789 53.5995C43.7254 54.7809 42.1221 55.3113 40.5719 54.9911C39.669 54.8046 38.8466 54.3413 38.2192 53.6657L37.6582 53.0616C37.3402 52.7192 37.064 52.3403 36.8353 51.9329L36.5194 51.3701C35.6991 49.9087 35.706 48.1239 36.5375 46.6688C37.119 45.6513 38.0548 44.8834 39.1663 44.5118Z" fill="#843914"/>
</svg>
