<svg width="92" height="100" viewBox="0 0 92 100" fill="none" xmlns="http://www.w3.org/2000/svg">
<circle cx="68" cy="50.5" r="67.5" fill="#A2B489"/>
<path d="M23.0498 27.0851L24.7863 24.8884C25.8752 23.5109 27.0934 22.2407 28.4242 21.0952C31.6632 18.3072 35.5067 16.3115 39.6505 15.266L46.245 13.6023C50.3372 12.5698 54.6091 12.4695 58.7453 13.3087C62.58 14.0868 66.2107 15.6547 69.4063 17.9127L70.948 19.002C76.3477 22.8174 80.603 28.0348 83.2548 34.0913L83.5118 34.6783C85.3526 38.8826 86.3029 43.4224 86.3029 48.0119V49.1087C86.3029 55.2208 84.4214 61.1848 80.914 66.1905C78.5135 69.6165 75.4177 72.4981 71.8287 74.6474L69.8513 75.8315C64.8108 78.85 59.1548 80.6936 53.3038 81.2256L51.6073 81.3798C47.1442 81.7855 42.646 81.2271 38.4176 79.7423L38.275 79.6923C35.0152 78.5476 31.9744 76.8553 29.2834 74.6883C25.4471 71.5988 22.4192 67.623 20.4607 63.1034L19.7848 61.5436C18.4306 58.4185 17.5111 55.1226 17.0519 51.7478L16.8047 49.9308C16.2672 45.98 16.5157 41.9619 17.536 38.1075C18.5984 34.094 20.4753 30.3421 23.0498 27.0851Z" fill="#FFFEFE"/>
<path d="M27.9525 30.5837L29.3867 28.7713C30.2861 27.6347 31.2922 26.5867 32.3912 25.6418C35.0643 23.3433 38.2355 21.6982 41.654 20.8367L47.101 19.4639C50.4786 18.6127 54.004 18.53 57.4178 19.2219C60.5837 19.8635 63.5814 21.1569 66.2205 23.0196L67.497 23.9206C71.9502 27.0639 75.4604 31.3637 77.6485 36.3561L77.862 36.8432C79.3812 40.3093 80.1656 44.0528 80.1656 47.8373V48.7356C80.1656 53.7789 78.6119 58.6998 75.7158 62.8287C73.7354 65.6521 71.1821 68.0264 68.2226 69.7968L66.5881 70.7746C62.4259 73.2644 57.7565 74.785 52.9264 75.2237L51.5249 75.351C47.8419 75.6854 44.1301 75.225 40.6404 74.001L40.5185 73.9582C37.8297 73.0151 35.3215 71.6205 33.1013 69.8346C29.9336 67.2862 27.433 64.0059 25.8151 60.2761L25.2598 58.9962C24.1416 56.4184 23.3822 53.6993 23.003 50.9151L22.7995 49.4205C22.3557 46.162 22.5609 42.8479 23.4032 39.6691C24.28 36.3605 25.8285 33.2678 27.9525 30.5837Z" fill="#FBF3F3"/>
<path d="M29.2927 29.7435H28.6279C27.89 29.7435 27.1823 30.0366 26.6606 30.5583C25.8777 31.3412 25.6335 32.5139 26.0389 33.5442L26.7456 35.3404C27.2183 36.5418 28.083 37.5483 29.1994 38.1965L30.1933 38.7736L33.7897 40.7102C34.4215 41.0503 35.1278 41.2284 35.8452 41.2284C37.1001 41.2284 38.2935 40.6847 39.1169 39.7377L40.2706 38.4109C40.9684 37.6085 41.817 36.9508 42.7681 36.4752L43.5402 36.0892C44.1607 35.7789 44.8448 35.6174 45.5385 35.6174H47.5522C48.9079 35.6174 50.007 34.5184 50.007 33.1626C50.007 32.3051 49.7532 31.4668 49.2775 30.7534L48.1651 29.0848C47.9906 28.8229 47.8374 28.5475 47.7072 28.261C46.7585 26.1739 44.6775 24.8339 42.3849 24.8339H41.3275C39.0432 24.8339 36.8124 25.5252 34.9285 26.8171L34.7522 26.938L33.5007 27.9809C32.9353 28.4521 32.3044 28.8387 31.6279 29.1286L31.021 29.3887C30.4749 29.6228 29.8869 29.7435 29.2927 29.7435Z" fill="#D0D587"/>
<path d="M42.8816 25.7106H42.2167C41.4788 25.7106 40.7712 26.0037 40.2494 26.5254C39.4665 27.3084 39.2224 28.481 39.6277 29.5113L40.3344 31.3075C40.8071 32.5089 41.6718 33.5154 42.7883 34.1636L43.7821 34.7407L47.3786 36.6773C48.0103 37.0174 48.7166 37.1955 49.4341 37.1955C50.689 37.1955 51.8823 36.6518 52.7058 35.7048L53.8595 34.378C54.5573 33.5756 55.4058 32.9179 56.357 32.4423L57.1291 32.0563C57.7495 31.746 58.4337 31.5845 59.1274 31.5845H61.141C62.4968 31.5845 63.5958 30.4855 63.5958 29.1297C63.5958 28.2722 63.342 27.4339 62.8664 26.7205L61.754 25.0519C61.5794 24.79 61.4263 24.5146 61.2961 24.2281C60.3474 22.141 58.2664 20.801 55.9737 20.801H54.9164C52.6321 20.801 50.4013 21.4923 48.5173 22.7842L48.341 22.9051L47.0895 23.948C46.5241 24.4192 45.8933 24.8058 45.2168 25.0957L44.6098 25.3558C44.0637 25.5899 43.4758 25.7106 42.8816 25.7106Z" fill="#C1C676"/>
<path d="M51.7515 32.2232L52.3213 31.8806C52.9536 31.5003 53.409 30.8845 53.5873 30.1685C53.8548 29.094 53.4598 27.9633 52.5814 27.2892L51.0502 26.114C50.026 25.328 48.7663 24.911 47.4755 24.9308L46.3264 24.9484L42.2462 25.1421C41.5295 25.1761 40.8325 25.3874 40.2176 25.7572C39.1422 26.4038 38.3997 27.4847 38.182 28.7206L37.8769 30.4522C37.6924 31.4995 37.3041 32.5004 36.7341 33.3981L36.2713 34.1268C35.8995 34.7124 35.3963 35.2034 34.8018 35.5609L33.0761 36.5985C31.9143 37.2971 31.5387 38.8054 32.2374 39.9673C32.6793 40.7021 33.3288 41.2898 34.1041 41.6561L35.9172 42.5129C36.2017 42.6473 36.4749 42.8045 36.7341 42.9829C38.6227 44.2827 41.0967 44.3587 43.0615 43.1773L43.9676 42.6324C45.9253 41.4553 47.4808 39.7132 48.4296 37.6353L48.5184 37.4408L49.0535 35.9021C49.2953 35.207 49.6367 34.5506 50.067 33.9535L50.4532 33.4178C50.8006 32.9358 51.2423 32.5294 51.7515 32.2232Z" fill="#979C4D"/>
<path d="M39.7253 33.9516H39.0605C38.3226 33.9516 37.6149 34.2448 37.0932 34.7665C36.3103 35.5494 36.0661 36.7221 36.4715 37.7524L37.1782 39.5486C37.6509 40.75 38.5156 41.7565 39.632 42.4047L40.6259 42.9818L44.2224 44.9184C44.8541 45.2585 45.5604 45.4366 46.2779 45.4366C47.5327 45.4366 48.7261 44.8929 49.5495 43.9459L50.7032 42.6191C51.401 41.8167 52.2496 41.159 53.2008 40.6834L53.9728 40.2974C54.5933 39.9871 55.2775 39.8256 55.9712 39.8256H57.9848C59.3405 39.8256 60.4396 38.7266 60.4396 37.3708C60.4396 36.5133 60.1858 35.675 59.7101 34.9616L58.5977 33.293C58.4232 33.0311 58.2701 32.7557 58.1399 32.4692C57.1912 30.3821 55.1101 29.0421 52.8175 29.0421H51.7601C49.4758 29.0421 47.245 29.7334 45.3611 31.0253L45.1848 31.1462L43.9333 32.1891C43.3679 32.6603 42.7371 33.0469 42.0606 33.3368L41.4536 33.5969C40.9075 33.831 40.3195 33.9516 39.7253 33.9516Z" fill="#BABF6C"/>
<path d="M54.5472 45.2206L55.2062 45.132C55.9375 45.0337 56.5998 44.6489 57.0473 44.0622C57.719 43.182 57.8047 41.9872 57.2656 41.0201L56.3259 39.3341C55.6973 38.2064 54.7062 37.3242 53.5133 36.8305L52.4514 36.391L48.629 34.9509C47.9575 34.698 47.2338 34.6156 46.5228 34.7112C45.2791 34.8784 44.1688 35.5763 43.4789 36.6245L42.5123 38.0932C41.9276 38.9815 41.1743 39.7464 40.295 40.3445L39.5812 40.83C39.0077 41.2201 38.3511 41.4714 37.6636 41.5638L35.6679 41.8321C34.3242 42.0128 33.3815 43.2485 33.5621 44.5921C33.6764 45.442 34.0396 46.239 34.6061 46.8827L35.931 48.3882C36.1388 48.6244 36.3273 48.8771 36.4945 49.1436C37.7129 51.0857 39.9539 52.1365 42.2261 51.831L43.274 51.6901C45.5379 51.3857 47.6567 50.4032 49.3517 48.8718L49.5103 48.7285L50.6117 47.5281C51.1093 46.9858 51.683 46.5186 52.3148 46.1411L52.8817 45.8024C53.3917 45.4977 53.9584 45.2997 54.5472 45.2206Z" fill="#D0D587"/>
<path d="M41.6166 51.0283L42.2755 50.9397C43.0068 50.8414 43.6691 50.4566 44.1167 49.87C44.7883 48.9897 44.874 47.795 44.335 46.8279L43.3952 45.1418C42.7667 44.0142 41.7755 43.1319 40.5827 42.6382L39.5208 42.1987L35.6983 40.7586C35.0269 40.5057 34.3032 40.4233 33.5921 40.5189C32.3484 40.6862 31.2382 41.384 30.5483 42.4323L29.5816 43.901C28.997 44.7893 28.2436 45.5542 27.3643 46.1523L26.6506 46.6377C26.077 47.0279 25.4204 47.2791 24.7329 47.3715L22.7372 47.6399C21.3936 47.8205 20.4508 49.0562 20.6314 50.3999C20.7457 51.2497 21.109 52.0467 21.6755 52.6905L23.0003 54.196C23.2082 54.4322 23.3966 54.6848 23.5638 54.9513C24.7822 56.8934 27.0233 57.9442 29.2954 57.6387L30.3433 57.4978C32.6073 57.1934 34.7261 56.2109 36.4211 54.6796L36.5797 54.5363L37.681 53.3359C38.1786 52.7936 38.7523 52.3264 39.3841 51.9489L39.951 51.6102C40.4611 51.3054 41.0277 51.1075 41.6166 51.0283Z" fill="#C1C676"/>
<path d="M31.9581 45.7557L31.439 46.1712C30.863 46.6323 30.4937 47.3033 30.4124 48.0367C30.2905 49.1372 30.8327 50.2053 31.793 50.7563L33.4672 51.7169C34.587 52.3595 35.891 52.6048 37.1677 52.4132L38.3042 52.2427L42.3222 51.507C43.0279 51.3778 43.6906 51.0755 44.2507 50.6271C45.2304 49.8429 45.8222 48.6727 45.8733 47.4189L45.9449 45.662C45.9882 44.5995 46.2397 43.5558 46.685 42.5901L47.0465 41.8063C47.337 41.1763 47.7702 40.6227 48.3118 40.1892L49.8838 38.9308C50.9423 38.0836 51.1135 36.5388 50.2662 35.4803C49.7304 34.8109 49.0083 34.3151 48.1912 34.0553L46.28 33.4478C45.9801 33.3525 45.6884 33.2331 45.4077 33.0908C43.3628 32.0543 40.9008 32.3086 39.1109 33.7413L38.2855 34.4021C36.5021 35.8296 35.1926 37.7634 34.5291 39.9492L34.467 40.1538L34.1417 41.7501C33.9948 42.4712 33.7439 43.1673 33.3969 43.8164L33.0856 44.3987C32.8056 44.9227 32.422 45.3844 31.9581 45.7557Z" fill="#979C4D"/>
<path d="M43.6466 42.4401L44.3056 42.3515C45.0368 42.2532 45.6991 41.8684 46.1467 41.2818C46.8183 40.4015 46.904 39.2068 46.365 38.2397L45.4252 36.5537C44.7967 35.426 43.8056 34.5437 42.6127 34.05L41.5508 33.6105L37.7283 32.1705C37.0569 31.9175 36.3332 31.8351 35.6221 31.9308C34.3784 32.098 33.2682 32.7959 32.5783 33.8441L31.6116 35.3128C31.027 36.2011 30.2736 36.966 29.3943 37.5641L28.6806 38.0495C28.107 38.4397 27.4505 38.6909 26.763 38.7833L24.7673 39.0517C23.4236 39.2323 22.4808 40.468 22.6615 41.8117C22.7757 42.6615 23.139 43.4585 23.7055 44.1023L25.0303 45.6078C25.2382 45.844 25.4267 46.0966 25.5939 46.3631C26.8122 48.3053 29.0533 49.356 31.3255 49.0505L32.3734 48.9096C34.6373 48.6052 36.7561 47.6227 38.4511 46.0914L38.6097 45.9481L39.7111 44.7477C40.2087 44.2054 40.7823 43.7382 41.4142 43.3607L41.981 43.022C42.4911 42.7173 43.0577 42.5193 43.6466 42.4401Z" fill="#BABF6C"/>
<path d="M58.9645 59.7467L59.6234 59.6581C60.3547 59.5598 61.017 59.175 61.4646 58.5883C62.1362 57.7081 62.2219 56.5134 61.6829 55.5462L60.7431 53.8602C60.1146 52.7325 59.1234 51.8503 57.9306 51.3566L56.8687 50.9171L53.0462 49.477C52.3748 49.2241 51.6511 49.1417 50.94 49.2373C49.6963 49.4045 48.5861 50.1024 47.8962 51.1507L46.9295 52.6194C46.3449 53.5077 45.5915 54.2726 44.7122 54.8706L43.9985 55.3561C43.4249 55.7462 42.7683 55.9975 42.0808 56.0899L40.0851 56.3583C38.7415 56.5389 37.7987 57.7746 37.9793 59.1183C38.0936 59.9681 38.4569 60.7651 39.0234 61.4089L40.3482 62.9143C40.5561 63.1506 40.7445 63.4032 40.9117 63.6697C42.1301 65.6118 44.3712 66.6626 46.6433 66.3571L47.6912 66.2162C49.9552 65.9118 52.074 64.9293 53.769 63.398L53.9276 63.2547L55.0289 62.0543C55.5265 61.512 56.1002 61.0447 56.732 60.6673L57.2989 60.3286C57.809 60.0238 58.3756 59.8259 58.9645 59.7467Z" fill="#D0D587"/>
<path d="M46.0338 65.5544L46.6928 65.4658C47.4241 65.3675 48.0863 64.9827 48.5339 64.3961C49.2055 63.5158 49.2912 62.3211 48.7522 61.354L47.8124 59.668C47.1839 58.5403 46.1928 57.658 44.9999 57.1643L43.938 56.7248L40.1155 55.2848C39.4441 55.0318 38.7204 54.9495 38.0093 55.0451C36.7656 55.2123 35.6554 55.9102 34.9655 56.9584L33.9988 58.4271C33.4142 59.3154 32.6609 60.0803 31.7815 60.6784L31.0678 61.1638C30.4942 61.554 29.8377 61.8052 29.1502 61.8977L27.1545 62.166C25.8108 62.3467 24.868 63.5824 25.0487 64.926C25.1629 65.7759 25.5262 66.5729 26.0927 67.2166L27.4175 68.7221C27.6254 68.9583 27.8139 69.2109 27.9811 69.4775C29.1994 71.4196 31.4405 72.4703 33.7127 72.1648L34.7606 72.0239C37.0245 71.7195 39.1433 70.7371 40.8383 69.2057L40.9969 69.0624L42.0983 67.862C42.5959 67.3197 43.1695 66.8525 43.8014 66.475L44.3683 66.1363C44.8783 65.8316 45.445 65.6336 46.0338 65.5544Z" fill="#C1C676"/>
<path d="M22.8211 60.373L22.3021 60.7885C21.726 61.2496 21.3567 61.9207 21.2755 62.654C21.1535 63.7545 21.6957 64.8226 22.656 65.3736L24.3302 66.3343C25.45 66.9768 26.754 67.2221 28.0308 67.0306L29.1673 66.86L33.1852 66.1244C33.891 65.9951 34.5536 65.6928 35.1138 65.2444C36.0934 64.4602 36.6853 63.29 36.7364 62.0362L36.8079 60.2794C36.8512 59.2168 37.1027 58.1731 37.5481 57.2074L37.9096 56.4236C38.2001 55.7936 38.6333 55.24 39.1748 54.8065L40.7469 53.5481C41.8053 52.7009 41.9765 51.1561 41.1293 50.0976C40.5934 49.4282 39.8714 48.9324 39.0542 48.6726L37.143 48.0651C36.8431 47.9698 36.5514 47.8504 36.2708 47.7081C34.2259 46.6716 31.7638 46.9259 29.974 48.3586L29.1485 49.0194C27.3652 50.4469 26.0556 52.3807 25.3922 54.5665L25.3301 54.7711L25.0048 56.3674C24.8578 57.0885 24.6069 57.7846 24.26 58.4337L23.9487 59.016C23.6686 59.54 23.285 60.0017 22.8211 60.373Z" fill="#979C4D"/>
<path d="M51.3763 56.5525L52.0353 56.4639C52.7666 56.3656 53.4289 55.9808 53.8764 55.3942C54.5481 54.5139 54.6338 53.3192 54.0947 52.3521L53.155 50.6661C52.5264 49.5384 51.5353 48.6561 50.3424 48.1624L49.2805 47.7229L45.4581 46.2829C44.7867 46.0299 44.0629 45.9476 43.3519 46.0432C42.1082 46.2104 40.9979 46.9083 40.308 47.9565L39.3414 49.4252C38.7567 50.3135 38.0034 51.0784 37.1241 51.6765L36.4104 52.1619C35.8368 52.5521 35.1802 52.8033 34.4927 52.8958L32.497 53.1641C31.1534 53.3448 30.2106 54.5805 30.3912 55.9241C30.5055 56.774 30.8687 57.571 31.4352 58.2147L32.7601 59.7202C32.9679 59.9564 33.1564 60.209 33.3236 60.4756C34.542 62.4177 36.783 63.4684 39.0552 63.1629L40.1031 63.022C42.367 62.7176 44.4858 61.7352 46.1808 60.2038L46.3394 60.0605L47.4408 58.8601C47.9384 58.3178 48.5121 57.8506 49.1439 57.4731L49.7108 57.1344C50.2208 56.8297 50.7875 56.6317 51.3763 56.5525Z" fill="#BABF6C"/>
<path d="M47.5509 53.8899L47.1292 54.4038C46.6611 54.9742 46.4387 55.7072 46.5111 56.4415C46.6196 57.5434 47.3712 58.4761 48.4248 58.8163L50.2616 59.4095C51.4902 59.8063 52.8167 59.7763 54.0261 59.3245L55.1027 58.9223L58.8813 57.3707C59.545 57.0982 60.1307 56.6651 60.5858 56.1105C61.3819 55.1405 61.7186 53.8731 61.509 52.6358L61.2153 50.9023C61.0376 49.8538 61.0675 48.7806 61.3033 47.7436L61.4946 46.9019C61.6484 46.2255 61.9576 45.5942 62.3977 45.0579L63.6751 43.5013C64.5352 42.4533 64.3828 40.9065 63.3348 40.0464C62.6719 39.5025 61.8629 39.1669 61.0096 39.0819L59.0141 38.8833C58.7009 38.8521 58.3909 38.7958 58.0868 38.7147C55.8716 38.124 53.5155 38.8826 52.0611 40.6549L51.3904 41.4722C49.9413 43.238 49.0605 45.4011 48.864 47.6769L48.8456 47.8899L48.8579 49.5189C48.8634 50.2549 48.7621 50.9878 48.5571 51.6947L48.3731 52.3289C48.2076 52.8995 47.9279 53.4306 47.5509 53.8899Z" fill="#D0D587"/>
<path d="M53.0541 40.8269L52.6323 41.3409C52.1642 41.9113 51.9419 42.6442 52.0142 43.3785C52.1228 44.4804 52.8744 45.4131 53.928 45.7533L55.7648 46.3465C56.9934 46.7433 58.3199 46.7133 59.5293 46.2615L60.6059 45.8593L64.3844 44.3077C65.0481 44.0352 65.6338 43.6022 66.089 43.0475C66.8851 42.0775 67.2218 40.8101 67.0122 39.5728L66.7184 37.8393C66.5408 36.7908 66.5707 35.7176 66.8065 34.6806L66.9978 33.839C67.1516 33.1625 67.4608 32.5312 67.9009 31.9949L69.1783 30.4383C70.0383 29.3903 69.886 27.8435 68.838 26.9835C68.1751 26.4395 67.3661 26.1039 66.5128 26.0189L64.5172 25.8203C64.2041 25.7892 63.894 25.7328 63.59 25.6517C61.3748 25.061 59.0187 25.8196 57.5643 27.5919L56.8936 28.4092C55.4444 30.175 54.5637 32.3381 54.3672 34.6139L54.3488 34.8269L54.3611 36.4559C54.3666 37.1919 54.2653 37.9248 54.0602 38.6317L53.8763 39.2659C53.7107 39.8365 53.431 40.3676 53.0541 40.8269Z" fill="#C1C676"/>
<path d="M73.5714 28.7968L73.6681 28.139C73.7753 27.4089 73.5881 26.6662 73.1477 26.0742C72.4869 25.1858 71.3622 24.7738 70.2839 25.0252L68.404 25.4633C67.1467 25.7564 66.0253 26.4657 65.2217 27.4761L64.5063 28.3755L62.0676 31.6524C61.6393 32.228 61.3605 32.9009 61.2562 33.6108C61.0739 34.8523 61.4384 36.112 62.2556 37.0643L63.4007 38.3986C64.0932 39.2056 64.6206 40.1407 64.9529 41.1509L65.2226 41.9709C65.4394 42.6298 65.4998 43.3302 65.399 44.0165L65.1064 46.0088C64.9093 47.3502 65.837 48.5973 67.1784 48.7943C68.0268 48.9189 68.8931 48.7896 69.6681 48.4227L71.4806 47.5646C71.765 47.4299 72.0598 47.3185 72.3622 47.2313C74.565 46.5959 76.1932 44.7317 76.5264 42.4634L76.68 41.4173C77.012 39.1572 76.6521 36.8496 75.6478 34.798L75.5538 34.606L74.7038 33.2162C74.3198 32.5883 74.029 31.908 73.8404 31.1966L73.6713 30.5582C73.5191 29.9839 73.4851 29.3847 73.5714 28.7968Z" fill="#979C4D"/>
<path d="M55.2807 51.0552L54.8589 51.5692C54.3908 52.1396 54.1685 52.8726 54.2408 53.6069C54.3493 54.7088 55.1009 55.6414 56.1546 55.9817L57.9914 56.5748C59.2199 56.9716 60.5465 56.9416 61.7559 56.4898L62.8324 56.0877L66.611 54.536C67.2747 54.2635 67.8604 53.8305 68.3156 53.2759C69.1116 52.3058 69.4484 51.0384 69.2387 49.8012L68.945 48.0676C68.7673 47.0191 68.7972 45.9459 69.033 44.909L69.2244 44.0673C69.3782 43.3908 69.6874 42.7595 70.1274 42.2233L71.4048 40.6667C72.2649 39.6187 72.1125 38.0719 71.0645 37.2118C70.4017 36.6678 69.5926 36.3322 68.7393 36.2473L66.7438 36.0487C66.4307 36.0175 66.1206 35.9611 65.8166 35.88C63.6013 35.2893 61.2453 36.048 59.7909 37.8202L59.1201 38.6376C57.671 40.4034 56.7903 42.5664 56.5937 44.8423L56.5754 45.0552L56.5876 46.6843C56.5932 47.4203 56.4918 48.1531 56.2868 48.86L56.1028 49.4942C55.9373 50.0649 55.6576 50.5959 55.2807 51.0552Z" fill="#BABF6C"/>
<path d="M82.3198 48.4363L82.8615 48.0507C83.4626 47.6228 83.8691 46.9737 83.9916 46.246C84.1755 45.1542 83.6944 44.0572 82.7666 43.4529L81.1493 42.3994C80.0675 41.6947 78.7794 41.3762 77.4939 41.4955L76.3496 41.6017L72.2965 42.1096C71.5846 42.1988 70.906 42.4633 70.3214 42.8794C69.2991 43.6071 68.6422 44.7421 68.5205 45.9911L68.35 47.741C68.2468 48.7995 67.9369 49.8273 67.4378 50.7664L67.0327 51.5286C66.7071 52.1411 66.2434 52.6695 65.6782 53.0717L64.0377 54.2394C62.9332 55.0256 62.6752 56.5584 63.4614 57.6629C63.9586 58.3615 64.6515 58.8972 65.4528 59.2027L67.3267 59.917C67.6207 60.0291 67.9052 60.1647 68.1774 60.3225C70.1606 61.4728 72.6331 61.3577 74.5009 60.0282L75.3623 59.415C77.2233 58.0904 78.6397 56.2334 79.4254 54.0885L79.4989 53.8878L79.9137 52.3124C80.1011 51.6006 80.3909 50.9199 80.7739 50.2914L81.1175 49.7275C81.4267 49.2201 81.8357 48.7808 82.3198 48.4363Z" fill="#D0D587"/>
<path d="M73.5874 59.6021L74.129 59.2165C74.7302 58.7887 75.1367 58.1395 75.2592 57.4118C75.443 56.32 74.9619 55.2231 74.0342 54.6188L72.4168 53.5652C71.3351 52.8606 70.047 52.5421 68.7615 52.6614L67.6171 52.7676L63.5641 53.2755C62.8522 53.3647 62.1735 53.6292 61.589 54.0452C60.5667 54.773 59.9098 55.9079 59.7881 57.1569L59.6175 58.9069C59.5144 59.9653 59.2045 60.9932 58.7054 61.9322L58.3002 62.6944C57.9747 63.307 57.5109 63.8353 56.9458 64.2376L55.3053 65.4053C54.2008 66.1915 53.9427 67.7242 54.7289 68.8287C55.2262 69.5273 55.9191 70.0631 56.7204 70.3685L58.5942 71.0828C58.8883 71.1949 59.1728 71.3305 59.445 71.4884C61.4282 72.6386 63.9007 72.5235 65.7684 71.194L66.6298 70.5809C68.4908 69.2562 69.9073 67.3993 70.693 65.2543L70.7665 65.0536L71.1813 63.4782C71.3687 62.7665 71.6585 62.0857 72.0415 61.4572L72.3851 60.8933C72.6943 60.3859 73.1033 59.9467 73.5874 59.6021Z" fill="#C1C676"/>
<path d="M50.6357 65.8391L50.3702 66.4486C50.0755 67.1251 50.0617 67.891 50.3316 68.5777C50.7367 69.6081 51.7143 70.3003 52.8208 70.3401L54.7498 70.4095C56.04 70.456 57.308 70.0651 58.3482 69.3005L59.2742 68.6198L62.4859 66.0959C63.05 65.6526 63.4953 65.0762 63.7819 64.4184C64.283 63.2679 64.2611 61.9568 63.7218 60.8237L62.9662 59.2361C62.5091 58.2759 62.2451 57.2353 62.1889 56.1733L62.1433 55.3113C62.1067 54.6186 62.2319 53.9268 62.5089 53.2909L63.3131 51.4448C63.8545 50.2018 63.2858 48.7553 62.0429 48.2139C61.2567 47.8714 60.3868 47.7693 59.5427 47.9205L57.5687 48.274C57.259 48.3294 56.9453 48.3598 56.6307 48.3648C54.3383 48.401 52.2787 49.7737 51.3631 51.8756L50.9409 52.845C50.0286 54.9392 49.7716 57.2605 50.2035 59.5036L50.244 59.7135L50.7003 61.2774C50.9065 61.9839 51.009 62.7166 51.0046 63.4526L51.0007 64.113C50.9972 64.7071 50.873 65.2944 50.6357 65.8391Z" fill="#979C4D"/>
<path d="M74.1174 49.1477L74.6591 48.7621C75.2602 48.3342 75.6667 47.6851 75.7892 46.9574C75.9731 45.8656 75.492 44.7687 74.5642 44.1643L72.9469 43.1108C71.8651 42.4062 70.577 42.0877 69.2915 42.207L68.1472 42.3132L64.0941 42.8211C63.3822 42.9103 62.7036 43.1748 62.119 43.5908C61.0967 44.3186 60.4398 45.4535 60.3181 46.7025L60.1476 48.4525C60.0444 49.5109 59.7345 50.5388 59.2354 51.4778L58.8303 52.24C58.5047 52.8525 58.041 53.3809 57.4758 53.7832L55.8353 54.9509C54.7308 55.7371 54.4728 57.2698 55.259 58.3743C55.7562 59.0729 56.4491 59.6087 57.2504 59.9141L59.1243 60.6284C59.4183 60.7405 59.7028 60.8761 59.975 61.034C61.9582 62.1842 64.4307 62.0691 66.2985 60.7396L67.1599 60.1264C69.0209 58.8018 70.4374 56.9449 71.223 54.7999L71.2966 54.5992L71.7114 53.0238C71.8988 52.3121 72.1885 51.6313 72.5715 51.0028L72.9151 50.4389C73.2243 49.9315 73.6333 49.4922 74.1174 49.1477Z" fill="#BABF6C"/>
<path d="M39.506 70.5753L38.9555 70.9481C38.3445 71.3618 37.9229 72.0012 37.7834 72.7258C37.574 73.8131 38.0293 74.9209 38.9426 75.5468L40.5348 76.638C41.5998 77.3678 42.8801 77.7163 44.1681 77.6272L45.3145 77.5478L49.3784 77.135C50.0922 77.0625 50.7768 76.814 51.371 76.4117C52.4101 75.7081 53.0934 74.5889 53.2443 73.3431L53.4558 71.5976C53.5837 70.5419 53.9176 69.5215 54.4385 68.5945L54.8614 67.842C55.2012 67.2372 55.6772 66.7199 56.2516 66.3309L57.919 65.202C59.0417 64.4419 59.3355 62.9156 58.5754 61.793C58.0947 61.083 57.4145 60.5311 56.6206 60.207L54.764 59.449C54.4727 59.33 54.1914 59.1878 53.923 59.0236C51.9673 57.8272 49.4928 57.8844 47.5944 59.1698L46.7188 59.7626C44.8273 61.0433 43.3677 62.8665 42.532 64.9924L42.4538 65.1914L42.0022 66.7566C41.7982 67.4638 41.4926 68.1376 41.095 68.7569L40.7382 69.3126C40.4172 69.8126 39.998 70.2422 39.506 70.5753Z" fill="#D0D587"/>
<path d="M48.4973 59.6171L47.9467 59.9899C47.3357 60.4036 46.9141 61.0431 46.7746 61.7676C46.5652 62.8549 47.0205 63.9628 47.9338 64.5886L49.5261 65.6798C50.591 66.4096 51.8713 66.7582 53.1593 66.669L54.3057 66.5896L58.3696 66.1768C59.0834 66.1043 59.768 65.8558 60.3622 65.4535C61.4013 64.75 62.0846 63.6307 62.2355 62.3849L62.447 60.6394C62.5749 59.5837 62.9088 58.5633 63.4298 57.6363L63.8526 56.8838C64.1925 56.279 64.6684 55.7617 65.2429 55.3728L66.9102 54.2438C68.0329 53.4837 68.3267 51.9574 67.5666 50.8348C67.0859 50.1248 66.4057 49.5729 65.6118 49.2488L63.7552 48.4908C63.4639 48.3718 63.1826 48.2296 62.9142 48.0654C60.9585 46.869 58.484 46.9262 56.5856 48.2116L55.71 48.8044C53.8185 50.0851 52.3589 51.9083 51.5232 54.0342L51.445 54.2332L50.9934 55.7984C50.7894 56.5056 50.4838 57.1794 50.0862 57.7987L49.7294 58.3544C49.4085 58.8544 48.9893 59.284 48.4973 59.6171Z" fill="#C1C676"/>
<path d="M71.5889 53.9195L71.8686 53.3163C72.179 52.6469 72.2109 51.8816 71.957 51.1888C71.5762 50.1491 70.6151 49.4343 69.5098 49.3685L67.583 49.2539C66.2943 49.1773 65.0174 49.5383 63.9596 50.2784L63.018 50.9372L59.748 53.3851C59.1736 53.8151 58.7149 54.3809 58.4131 55.0318C57.8851 56.1702 57.8763 57.4816 58.3889 58.627L59.1072 60.2318C59.5416 61.2025 59.7812 62.249 59.8125 63.312L59.8378 64.1748C59.8582 64.8682 59.7169 65.5568 59.425 66.1861L58.5779 68.0129C58.0075 69.2428 58.5421 70.7022 59.772 71.2726C60.5499 71.6334 61.4172 71.7558 62.2646 71.6245L64.2463 71.3174C64.5573 71.2692 64.8716 71.2462 65.1863 71.2486C67.4788 71.266 69.57 69.9419 70.5346 67.8621L70.9795 66.9029C71.9405 64.8306 72.2519 62.5159 71.8725 60.2633L71.837 60.0525L71.4175 58.4784C71.2279 57.7672 71.1426 57.0323 71.1642 56.2966L71.1836 55.6366C71.201 55.0426 71.3389 54.4585 71.5889 53.9195Z" fill="#979C4D"/>
<path d="M47.7224 70.0563L47.1718 70.429C46.5608 70.8427 46.1392 71.4822 45.9997 72.2068C45.7903 73.294 46.2456 74.4019 47.1589 75.0278L48.7512 76.1189C49.8161 76.8487 51.0964 77.1973 52.3844 77.1082L53.5308 77.0288L57.5947 76.616C58.3085 76.5435 58.9931 76.2949 59.5873 75.8927C60.6264 75.1891 61.3097 74.0698 61.4606 72.824L61.6721 71.0786C61.8 70.0228 62.1339 69.0025 62.6548 68.0754L63.0777 67.3229C63.4176 66.7182 63.8935 66.2008 64.468 65.8119L66.1353 64.6829C67.258 63.9228 67.5518 62.3966 66.7917 61.274C66.311 60.5639 65.6308 60.0121 64.8369 59.6879L62.9803 58.9299C62.689 58.811 62.4077 58.6687 62.1393 58.5045C60.1836 57.3082 57.7091 57.3653 55.8107 58.6507L54.9351 59.2435C53.0436 60.5242 51.584 62.3475 50.7483 64.4734L50.6701 64.6723L50.2185 66.2376C50.0145 66.9447 49.7089 67.6185 49.3113 68.2379L48.9545 68.7936C48.6336 69.2936 48.2143 69.7232 47.7224 70.0563Z" fill="#BABF6C"/>
<path d="M46.6174 43.568L47.2889 45.9181C47.3472 46.1221 47.3767 46.3333 47.3767 46.5455C47.3767 47.6339 46.6085 48.5711 45.5411 48.7845L45.0539 48.882C44.2963 49.0335 43.5096 48.8753 42.8694 48.4428L41.9267 47.8058C41.0759 47.231 40.3992 46.4338 39.9701 45.5009L39.1508 43.7199C38.8053 42.9688 38.7835 42.1088 39.0905 41.3412C39.3466 40.7009 39.8145 40.1679 40.4162 39.831L41.0334 39.4853C41.4561 39.2486 41.9325 39.1243 42.417 39.1243C43.3291 39.1243 44.1853 39.5636 44.7172 40.3045L45.7033 41.6779C46.1145 42.2506 46.4237 42.89 46.6174 43.568Z" fill="#BA211E"/>
<path d="M31.6329 37.8057L32.3499 39.8293C32.4312 40.0589 32.4728 40.3008 32.4728 40.5444C32.4728 41.5954 31.71 42.4911 30.6724 42.6584L29.3699 42.8685C28.5624 42.9988 27.7346 42.8571 27.0164 42.4657L25.6432 41.7175C24.6356 41.1684 23.8008 40.3497 23.2323 39.353L22.3271 37.7661C21.8736 36.971 21.8455 36.0022 22.2523 35.1821C22.5345 34.6132 23.005 34.1595 23.5838 33.8981L24.6032 33.4377C25.1326 33.1986 25.707 33.0749 26.288 33.0749C27.4561 33.0749 28.5686 33.574 29.3454 34.4465L30.243 35.4548C30.854 36.1411 31.3261 36.9395 31.6329 37.8057Z" fill="#DD1E1B"/>
<path d="M61.9669 58.3488L63.6567 57.0245C63.8485 56.8743 64.0645 56.7578 64.2954 56.6802C65.2917 56.3454 66.3837 56.7831 66.8729 57.7133L67.4869 58.8811C67.8676 59.605 67.997 60.4348 67.8548 61.2403L67.583 62.7803C67.3836 63.9103 66.8734 64.9624 66.1098 65.8188L64.8939 67.1823C64.2847 67.8656 63.3753 68.2008 62.4684 68.0765C61.8392 67.9902 61.2592 67.6888 60.827 67.2234L60.0659 66.4038C59.6706 65.978 59.3704 65.473 59.1853 64.9223C58.8132 63.815 58.9319 62.6015 59.5115 61.5873L60.1813 60.4152C60.6372 59.6173 61.2436 58.9156 61.9669 58.3488Z" fill="#DD1E1B"/>
<path d="M68.4354 35.8986L70.1252 34.5743C70.317 34.4241 70.533 34.3076 70.7639 34.23C71.7602 33.8952 72.8522 34.3329 73.3414 35.2631L73.9554 36.4309C74.3361 37.1548 74.4655 37.9846 74.3234 38.7901L74.0515 40.3301C73.8521 41.4601 73.3419 42.5122 72.5783 43.3686L71.3624 44.7321C70.7532 45.4154 69.8438 45.7506 68.9369 45.6263C68.3077 45.54 67.7277 45.2386 67.2956 44.7732L66.5344 43.9536C66.1391 43.5278 65.8389 43.0228 65.6538 42.4721C65.2817 41.3648 65.4004 40.1513 65.98 39.1371L66.6498 37.965C67.1057 37.1672 67.7121 36.4654 68.4354 35.8986Z" fill="#E42B28"/>
<path d="M52.0999 24.6495L54.1325 25.3405C54.3631 25.4189 54.5787 25.5361 54.77 25.687C55.595 26.3382 55.8254 27.4919 55.3139 28.41L54.6718 29.5626C54.2738 30.2771 53.6497 30.8391 52.8975 31.1604L51.4594 31.7747C50.4042 32.2255 49.2443 32.3735 48.1097 32.2022L46.3033 31.9296C45.3981 31.7929 44.6203 31.2148 44.2286 30.3874C43.9569 29.8134 43.8922 29.163 44.0456 28.5467L44.3158 27.4613C44.4562 26.8975 44.7149 26.3701 45.0749 25.914C45.7986 24.9971 46.8796 24.433 48.0458 24.3639L49.3934 24.284C50.3107 24.2296 51.2298 24.3537 52.0999 24.6495Z" fill="#BA211E"/>
<path d="M35.1795 42.3684L34.9144 41.8676C34.2649 40.6407 33.373 39.5584 32.2927 38.6865C32.9418 40.109 33.7446 41.4562 34.6868 42.704L35.6653 43.9999C36.496 45.1666 36.7265 46.6572 36.287 48.0203L36.236 48.1784L35.1251 51.7883C36.0309 50.6661 36.669 49.3522 36.9911 47.9464L37.3948 46.1844L38.3738 47.7632C39.1412 48.8938 39.5116 50.2471 39.4271 51.611L39.4094 51.8978C39.3709 52.5189 39.25 53.132 39.0497 53.7211L38.45 55.4859L38.7947 54.9016C39.5754 53.5785 40.0453 52.0954 40.169 50.5642L41.2007 52.6361L42.532 54.581C43.3573 55.7865 44.4442 56.7899 45.7117 57.5163C45.0335 56.969 44.4442 56.32 43.9646 55.5924L42.3078 53.0791L41.263 50.8838L42.1041 51.1427C43.6387 51.6149 45.2406 51.8317 46.8455 51.7842L43.7395 51.3053L42.7562 51.0901C42.0175 50.9285 41.3265 50.5971 40.7381 50.1221C40.2477 49.7263 39.8388 49.2392 39.534 48.6877L38.7592 47.2857L37.3709 45.3765L38.7612 45.5927C39.1018 45.6456 39.4459 45.673 39.7906 45.6745L40.1829 45.6762C41.0596 45.6799 41.9237 45.4673 42.6985 45.0572L42.4495 45.077C41.0946 45.1847 39.7321 45.1442 38.3859 44.9564C37.2743 44.8395 36.2823 44.207 35.7073 43.2484L35.1795 42.3684Z" fill="#4B6B0E"/>
<path d="M34.2628 45.1873L35.7099 44.0532C35.8742 43.9245 36.0591 43.8248 36.2569 43.7583C37.1101 43.4716 38.0453 43.8464 38.4642 44.6431L38.9901 45.6431C39.3161 46.2631 39.427 46.9738 39.3052 47.6635L39.0724 48.9824C38.9016 49.9501 38.4647 50.8512 37.8107 51.5846L36.7695 52.7523C36.2477 53.3374 35.469 53.6245 34.6923 53.518C34.1534 53.4442 33.6567 53.186 33.2866 52.7875L32.6348 52.0855C32.2962 51.721 32.0392 51.2885 31.8807 50.8168C31.562 49.8686 31.6636 48.8293 32.16 47.9607L32.7336 46.9569C33.1241 46.2737 33.6434 45.6727 34.2628 45.1873Z" fill="#DD1E1B"/>
<path d="M58.4601 36.0695L59.9072 34.9354C60.0714 34.8067 60.2564 34.707 60.4542 34.6405C61.3074 34.3538 62.2426 34.7286 62.6615 35.5253L63.1874 36.5253C63.5134 37.1453 63.6242 37.856 63.5025 38.5457L63.2697 39.8646C63.0989 40.8323 62.662 41.7334 62.008 42.4668L60.9667 43.6345C60.445 44.2196 59.6662 44.5067 58.8895 44.4002C58.3507 44.3264 57.854 44.0682 57.4839 43.6697L56.8321 42.9677C56.4935 42.6032 56.2364 42.1707 56.0779 41.699C55.7592 40.7508 55.8609 39.7115 56.3572 38.8429L56.9309 37.8391C57.3213 37.1559 57.8407 36.5549 58.4601 36.0695Z" fill="#DD1E1B"/>
<path d="M49.3419 59.3901L50.789 58.256C50.9533 58.1273 51.1382 58.0276 51.336 57.9611C52.1892 57.6744 53.1244 58.0493 53.5433 58.8459L54.0692 59.8459C54.3952 60.4659 54.5061 61.1766 54.3843 61.8664L54.1515 63.1852C53.9807 64.1529 53.5438 65.054 52.8898 65.7874L51.8486 66.9551C51.3268 67.5402 50.5481 67.8273 49.7714 67.7208C49.2325 67.647 48.7358 67.3888 48.3657 66.9903L47.7139 66.2884C47.3753 65.9238 47.1183 65.4913 46.9598 65.0197C46.6411 64.0714 46.7427 63.0321 47.2391 62.1635L47.8127 61.1598C48.2032 60.4765 48.7225 59.8755 49.3419 59.3901Z" fill="#E42B28"/>
<path d="M45.5357 57.6229L45.3125 58.1437C44.7656 59.4197 44.4836 60.7935 44.4836 62.1818C45.1829 60.7832 45.727 59.3124 46.1062 57.7954L46.5 56.2201C46.8862 54.841 47.9014 53.7254 49.2381 53.2113L49.3932 53.1516L52.9 51.7489C51.4578 51.7489 50.0346 52.0775 48.7384 52.7098L47.1137 53.5023L47.7274 51.7489C48.1253 50.4417 48.9457 49.3034 50.06 48.5126L50.2944 48.3462C50.8019 47.9861 51.3549 47.6952 51.9391 47.481L53.6891 46.8393L53.0179 46.938C51.498 47.1615 50.0488 47.7273 48.7795 48.5927L49.7439 46.4886L50.4211 44.2311C50.8409 42.8318 50.9391 41.3558 50.7083 39.9133C50.7083 40.7847 50.5734 41.6509 50.3084 42.4812L49.3932 45.3489L48.3411 47.5407L48.0143 46.7236C47.418 45.2328 46.5806 43.8502 45.5357 42.6311L47.1137 45.3489L47.5639 46.2491C47.9021 46.9255 48.0781 47.6714 48.0781 48.4276C48.0781 49.0577 47.9559 49.6819 47.7181 50.2654L47.1137 51.7489L46.5 54.0283L45.7951 52.8107C45.6224 52.5124 45.4275 52.2274 45.2122 51.9583L44.9671 51.6519C44.4195 50.9673 43.7113 50.4285 42.9055 50.0831L43.0773 50.2644C44.012 51.2511 44.8364 52.3368 45.5357 53.5023C46.1429 54.4407 46.2737 55.61 45.8889 56.6594L45.5357 57.6229Z" fill="#5D8F00"/>
<path d="M58.5986 63.5845L58.3754 64.1054C57.8286 65.3814 57.5466 66.7552 57.5466 68.1434C58.2459 66.7449 58.79 65.274 59.1692 63.7571L59.563 62.1818C59.9492 60.8026 60.9644 59.6871 62.3011 59.173L62.4562 59.1133L65.963 57.7106C64.5208 57.7106 63.0976 58.0392 61.8013 58.6715L60.1767 59.464L60.7904 57.7106C61.1883 56.4033 62.0087 55.2651 63.123 54.4743L63.3574 54.3079C63.8648 53.9478 64.4179 53.6568 65.0021 53.4426L66.7521 52.801L66.0808 52.8997C64.561 53.1232 63.1117 53.689 61.8425 54.5544L62.8069 52.4503L63.4841 50.1928C63.9039 48.7935 64.0021 47.3175 63.7713 45.8749C63.7713 46.7464 63.6364 47.6126 63.3714 48.4428L62.4562 51.3106L61.4041 53.5023L61.0773 52.6853C60.481 51.1945 59.6436 49.8119 58.5986 48.5927L60.1767 51.3106L60.6269 52.2108C60.965 52.8872 61.1411 53.633 61.1411 54.3892C61.1411 55.0194 61.0188 55.6435 60.7811 56.2271L60.1767 57.7106L59.563 59.99L58.8581 58.7724C58.6854 58.474 58.4905 58.1891 58.2752 57.92L58.0301 57.6136C57.4824 56.929 56.7743 56.3902 55.9685 56.0448L56.1403 56.2261C57.075 57.2128 57.8994 58.2985 58.5986 59.464C59.2059 60.4024 59.3367 61.5717 58.9519 62.6211L58.5986 63.5845Z" fill="#517017"/>
<path d="M49.2068 33.0753L48.9417 32.5745C48.2922 31.3475 47.4003 30.2652 46.32 29.3933C46.9691 30.8158 47.772 32.163 48.7142 33.4109L49.6927 34.7067C50.5234 35.8734 50.7538 37.364 50.3144 38.7271L50.2634 38.8853L49.1524 42.4952C50.0582 41.3729 50.6964 40.059 51.0185 38.6532L51.4221 36.8913L52.4011 38.4701C53.1685 39.6007 53.539 40.954 53.4545 42.3178L53.4367 42.6047C53.3982 43.2257 53.2773 43.8389 53.0771 44.428L52.4773 46.1927L52.8221 45.6084C53.6027 44.2853 54.0726 42.8022 54.1964 41.271L55.228 43.343L56.5594 45.2879C57.3846 46.4933 58.4715 47.4968 59.739 48.2232C59.0609 47.6758 58.4715 47.0268 57.9919 46.2992L56.3352 43.7859L55.2904 41.5907L56.1315 41.8495C57.6661 42.3218 59.2679 42.5385 60.8729 42.4911L57.7668 42.0121L56.7836 41.797C56.0448 41.6353 55.3539 41.3039 54.7654 40.829C54.2751 40.4332 53.8662 39.946 53.5614 39.3945L52.7866 37.9925L51.3982 36.0833L52.7885 36.2995C53.1291 36.3525 53.4732 36.3798 53.8179 36.3813L54.2103 36.383C55.0869 36.3868 55.951 36.1742 56.7258 35.764L56.4769 35.7838C55.122 35.8915 53.7594 35.8511 52.4133 35.6632C51.3017 35.5464 50.3096 34.9138 49.7347 33.9553L49.2068 33.0753Z" fill="#5D8F00"/>
<path d="M39.8048 63.4092L41.3732 64.9587C41.9809 65.559 41.9966 66.5351 41.4086 67.1547C40.7426 67.8566 39.6061 67.7941 39.021 67.0234L38.8951 66.8576C38.8361 66.7798 38.7706 66.7071 38.6994 66.6403L37.8741 65.8657C37.3365 65.3612 37.0315 64.6567 37.0315 63.9194V63.016C37.0315 62.7129 37.1791 62.4288 37.4271 62.2545C37.7803 62.0064 38.2578 62.0338 38.5804 62.3206L39.8048 63.4092Z" fill="#B46D4F"/>
<path d="M53.1562 57.7607L55.2781 57.1622C56.1002 56.9303 56.9568 57.3987 57.2051 58.216C57.4865 59.1418 56.8709 60.0991 55.9118 60.2272L55.7054 60.2548C55.6086 60.2677 55.513 60.2888 55.4197 60.3177L54.3387 60.6527C53.6344 60.871 52.8712 60.7883 52.2301 60.4241L51.4446 59.978C51.181 59.8283 51.0069 59.5596 50.9779 59.2579C50.9366 58.8282 51.1962 58.4265 51.6049 58.2877L53.1562 57.7607Z" fill="#B46D4F"/>
<path d="M64.2276 46.7143L66.0055 46.2128C66.6943 46.0185 67.412 46.411 67.6201 47.0958C67.8559 47.8715 67.3401 48.6736 66.5364 48.781L66.3635 48.8041C66.2824 48.8149 66.2023 48.8325 66.1242 48.8568L65.2184 49.1375C64.6283 49.3204 63.9888 49.2511 63.4516 48.946L62.7934 48.5721C62.5726 48.4467 62.4267 48.2216 62.4024 47.9688C62.3678 47.6088 62.5853 47.2722 62.9277 47.1559L64.2276 46.7143Z" fill="#B46D4F"/>
<path d="M44.5891 35.6677L46.3671 35.1662C47.0559 34.9719 47.7736 35.3643 47.9817 36.0491C48.2175 36.8249 47.7016 37.627 46.898 37.7343L46.7251 37.7574C46.644 37.7683 46.5639 37.7859 46.4857 37.8101L45.5799 38.0909C44.9898 38.2738 44.3504 38.2044 43.8132 37.8993L43.155 37.5255C42.9342 37.4001 42.7883 37.1749 42.764 36.9221C42.7294 36.5621 42.9469 36.2256 43.2893 36.1092L44.5891 35.6677Z" fill="#B46D4F"/>
<path d="M28.8084 44.7855L30.5863 44.284C31.2752 44.0897 31.9929 44.4821 32.201 45.1669C32.4367 45.9427 31.9209 46.7448 31.1173 46.8521L30.9444 46.8752C30.8632 46.8861 30.7832 46.9037 30.705 46.9279L29.7992 47.2087C29.2091 47.3916 28.5696 47.3222 28.0324 47.0171L27.3742 46.6433C27.1534 46.5179 27.0075 46.2927 26.9832 46.0399C26.9486 45.6799 27.1661 45.3434 27.5085 45.227L28.8084 44.7855Z" fill="#B46D4F"/>
</svg>
