<svg width="92" height="100" viewBox="0 0 92 100" fill="none" xmlns="http://www.w3.org/2000/svg">
<circle cx="71.3334" cy="56.5" r="70.5" fill="#D8EAEA"/>
<path d="M48.0619 33.4312L49.7421 32.0225L53.6211 35.1575L56.2784 38.789C55.3783 39.3139 54.6149 40.0441 54.0507 40.9201L53.2885 42.1034C52.2397 43.7317 51.6972 45.6343 51.7295 47.5709C51.7452 48.5078 51.8952 49.4377 52.175 50.332L52.6435 51.8293C52.716 52.0613 52.7606 52.3011 52.7762 52.5437C52.8216 53.2492 52.6204 53.9486 52.2069 54.5221L51.9923 54.8198C51.846 55.0227 51.6813 55.2117 51.5003 55.3844L31.3686 74.5943C31.0098 74.9366 30.6123 75.2357 30.1839 75.4854L29.1913 76.0643C28.7878 76.2996 28.3252 76.4139 27.8585 76.3936C27.3169 76.3701 26.7987 76.1666 26.3858 75.8153L24.2378 73.9876L16.3197 65.6178C16.1588 65.4477 16.018 65.2596 15.9 65.0573C15.5298 64.4225 15.4009 63.6755 15.5369 62.9532L15.5553 62.8555C15.6302 62.458 15.7771 62.0774 15.9887 61.7327L25.5776 46.1138L31.7375 37.8053C32.1379 37.2652 32.6439 36.8121 33.2247 36.4734L33.5253 36.2981C34.1225 35.9499 34.8046 35.7742 35.4957 35.7906C35.739 35.7963 35.9812 35.8259 36.2188 35.8788L37.6872 36.2056C38.6981 36.4306 39.735 36.5161 40.769 36.4596C42.5636 36.3616 44.3092 35.8383 45.8618 34.9329L46.2384 34.7133C46.8815 34.3383 47.4915 33.9094 48.0619 33.4312Z" fill="#A0C2C4"/>
<path d="M48.7419 32.7137L97.4164 -16.7182L101.973 -8.90499L55.7951 39.0708L55.2784 38.1848C54.6548 37.1153 53.8952 36.1312 53.0186 35.2569L52.0171 34.2579L50.8797 33.3227C50.2825 32.8317 49.5081 32.6111 48.7419 32.7137Z" fill="#B68E68"/>
<path d="M39.2775 38.8805L35.7072 36.6449C37.3329 36.8461 38.9728 36.9086 40.6092 36.8315L42.9827 36.7198L42.9421 36.7435C41.6872 37.4753 40.964 38.8626 41.0828 40.3103L39.2775 38.8805Z" fill="#8CAEB0" fill-opacity="0.6"/>
<path d="M49.2914 49.3682L51.7302 52.8029C51.4351 51.1916 51.2777 49.558 51.2597 47.92L51.2336 45.5439L51.2123 45.5859C50.5545 46.8811 49.2115 47.6835 47.7593 47.6489L49.2914 49.3682Z" fill="#8CAEB0" fill-opacity="0.6"/>
<path d="M80.0648 40.8933L104.805 -5.15938L102.174 -9.67009L80.6435 30.4096L76.6019 37.7315C74.4355 40.64 71.8316 43.1954 68.8829 45.3067L68.4594 45.61L67.334 46.5047C64.3553 48.8726 61.6261 51.5382 59.1885 54.4601L58.4708 55.3205L56.4403 58.5269C55.7724 59.5816 55.2015 60.6948 54.7347 61.8527L53.9843 63.7139C53.5152 64.8774 53.2683 66.1186 53.2566 67.3731C53.2371 69.4564 53.8664 71.4941 55.0571 73.2036L55.6028 73.9871C56.2226 74.8769 57.0113 75.6361 57.9239 76.2216C59.591 77.291 61.5864 77.7267 63.5475 77.4495L63.7042 77.4274C64.8202 77.2697 65.8949 76.8965 66.8685 76.3288L67.9347 75.7071C69.868 74.5797 71.5242 73.0337 72.7819 71.1825L73.6839 69.8549C74.479 68.6846 75.1596 67.4407 75.7165 66.1401L76.3799 64.5907C77.2649 62.5237 77.8875 60.3541 78.2333 58.1324C78.4769 56.5671 78.5819 54.9833 78.5471 53.3996L78.426 47.8935L78.4381 47.5303C78.5146 45.2292 79.0686 42.9691 80.0648 40.8933Z" fill="#B68E68"/>
<path d="M62.5319 52.8444L68.21 48.2416C70.4313 46.4409 72.7875 44.8132 75.2576 43.3727L76.2187 42.8123L77.419 50.4236L77.5597 53.6602C77.6966 56.8072 77.2312 59.9514 76.1888 62.9239L75.9705 63.5464C74.9896 66.3432 73.4431 68.908 71.4273 71.0807L70.7358 71.8261C69.7489 72.8898 68.6103 73.8019 67.3568 74.5329L65.9786 75.3366C65.0017 75.9062 63.9106 76.2519 62.7839 76.3485L62.7193 76.354C61.3273 76.4734 59.9299 76.197 58.6881 75.5566C57.8032 75.1002 57.0193 74.4703 56.3832 73.7043L56.2991 73.6031C55.3266 72.4322 54.7056 71.0099 54.5078 69.5008L54.4326 68.9266C54.2486 67.5227 54.363 66.0957 54.7682 64.739L55.2244 63.2115C56.034 60.5011 57.4873 58.0268 59.4604 55.9998L62.5319 52.8444Z" fill="#A17B57"/>
<path d="M54.7681 64.739L55.4828 62.3462C56.1179 60.22 57.3675 58.329 59.0746 56.9112L58.8462 59.0195C58.6541 60.7933 59.0353 62.582 59.9341 64.1233L60.063 64.3443C61.0806 66.0893 62.7415 67.3659 64.6894 67.9004C66.6906 68.4494 68.8286 68.1698 70.6212 67.1244L74.9872 64.5785C74.6587 66.6697 73.7143 68.6155 72.2746 70.1673L70.7357 71.8261C69.7488 72.8898 68.6102 73.802 67.3567 74.5329L65.9785 75.3366C65.0016 75.9062 63.9105 76.2519 62.7838 76.3485L62.7192 76.354C61.3272 76.4734 59.9298 76.197 58.688 75.5566C57.8031 75.1002 57.0192 74.4703 56.3831 73.7044L56.299 73.6031C55.3265 72.4322 54.7055 71.0099 54.5077 69.5008L54.4325 68.9266C54.2485 67.5227 54.3629 66.0957 54.7681 64.739Z" fill="#946C45"/>
</svg>
