<svg width="91" height="100" viewBox="0 0 91 100" fill="none" xmlns="http://www.w3.org/2000/svg">
<circle cx="75" cy="52" r="75" fill="#CEE0EF"/>
<path d="M47.0619 33.4312L48.7421 32.0226L52.6211 35.1576L55.2784 38.7891C54.3783 39.314 53.6149 40.0442 53.0507 40.9202L52.2885 42.1035C51.2397 43.7317 50.6972 45.6344 50.7295 47.5709C50.7452 48.5079 50.8952 49.4377 51.175 50.332L51.6435 51.8294C51.716 52.0613 51.7606 52.3012 51.7762 52.5437C51.8216 53.2493 51.6204 53.9486 51.2069 54.5221L50.9923 54.8199C50.846 55.0228 50.6813 55.2118 50.5003 55.3845L30.3686 74.5943C30.0098 74.9366 29.6123 75.2357 29.1839 75.4855L28.1913 76.0643C27.7878 76.2996 27.3252 76.414 26.8585 76.3937C26.3169 76.3702 25.7987 76.1666 25.3858 75.8153L23.2378 73.9877L15.3197 65.6179C15.1588 65.4478 15.018 65.2597 14.9 65.0574C14.5298 64.4225 14.4009 63.6755 14.5369 62.9533L14.5553 62.8556C14.6302 62.458 14.7771 62.0775 14.9887 61.7327L24.5776 46.1138L30.7375 37.8054C31.1379 37.2653 31.6439 36.8121 32.2247 36.4734L32.5253 36.2982C33.1225 35.9499 33.8046 35.7742 34.4957 35.7906C34.739 35.7964 34.9812 35.8259 35.2188 35.8788L36.6872 36.2057C37.6981 36.4307 38.735 36.5162 39.769 36.4597C41.5636 36.3617 43.3092 35.8384 44.8618 34.933L45.2384 34.7134C45.8815 34.3384 46.4915 33.9095 47.0619 33.4312Z" fill="#A5BBCC"/>
<path d="M47.7419 32.7138L96.4164 -16.7181L100.973 -8.90493L54.7951 39.0709L54.2784 38.1849C53.6548 37.1154 52.8952 36.1312 52.0186 35.2569L51.0171 34.258L49.8797 33.3227C49.2825 32.8318 48.5081 32.6112 47.7419 32.7138Z" fill="#B68E68"/>
<path d="M38.2775 38.8805L34.7072 36.645C36.3329 36.8462 37.9728 36.9086 39.6092 36.8316L41.9827 36.7199L41.9421 36.7436C40.6872 37.4753 39.964 38.8626 40.0828 40.3104L38.2775 38.8805Z" fill="#7996A5" fill-opacity="0.6"/>
<path d="M48.2914 49.3683L50.7302 52.803C50.4351 51.1916 50.2777 49.5581 50.2597 47.92L50.2336 45.544L50.2123 45.586C49.5545 46.8811 48.2115 47.6835 46.7593 47.6489L48.2914 49.3683Z" fill="#7996A5" fill-opacity="0.6"/>
<path d="M79.0648 40.8934L103.805 -5.15932L101.174 -9.67003L79.6435 30.4096L75.6019 37.7316C73.4355 40.6401 70.8316 43.1954 67.8829 45.3068L67.4594 45.6101L66.334 46.5047C63.3553 48.8726 60.6261 51.5383 58.1885 54.4602L57.4708 55.3206L55.4403 58.527C54.7724 59.5817 54.2015 60.6948 53.7347 61.8527L52.9843 63.714C52.5152 64.8775 52.2683 66.1187 52.2566 67.3731C52.2371 69.4564 52.8664 71.4942 54.0571 73.2037L54.6028 73.9872C55.2226 74.8769 56.0113 75.6362 56.9239 76.2216C58.591 77.291 60.5864 77.7268 62.5475 77.4496L62.7042 77.4274C63.8202 77.2697 64.8949 76.8966 65.8685 76.3289L66.9347 75.7071C68.868 74.5798 70.5242 73.0337 71.7819 71.1826L72.6839 69.8549C73.479 68.6847 74.1596 67.4407 74.7165 66.1402L75.3799 64.5907C76.2649 62.5238 76.8875 60.3541 77.2333 58.1324C77.4769 56.5671 77.5819 54.9834 77.5471 53.3997L77.426 47.8935L77.4381 47.5304C77.5146 45.2292 78.0686 42.9691 79.0648 40.8934Z" fill="#B68E68"/>
<path d="M61.5319 52.8445L67.21 48.2416C69.4313 46.4409 71.7875 44.8132 74.2576 43.3728L75.2187 42.8123L76.419 50.4237L76.5597 53.6602C76.6966 56.8073 76.2312 59.9515 75.1888 62.924L74.9705 63.5464C73.9896 66.3433 72.4431 68.908 70.4273 71.0808L69.7358 71.8261C68.7489 72.8899 67.6103 73.802 66.3568 74.533L64.9786 75.3366C64.0017 75.9063 62.9106 76.2519 61.7839 76.3485L61.7193 76.3541C60.3273 76.4735 58.9299 76.197 57.6881 75.5566C56.8032 75.1003 56.0193 74.4703 55.3832 73.7044L55.2991 73.6031C54.3266 72.4322 53.7056 71.0099 53.5078 69.5008L53.4326 68.9266C53.2486 67.5227 53.363 66.0958 53.7682 64.7391L54.2244 63.2116C55.034 60.5012 56.4873 58.0269 58.4604 55.9999L61.5319 52.8445Z" fill="#A17B57"/>
<path d="M53.7681 64.7391L54.4828 62.3463C55.1179 60.22 56.3675 58.3291 58.0746 56.9113L57.8462 59.0195C57.6541 60.7933 58.0353 62.5821 58.9341 64.1233L59.063 64.3444C60.0806 66.0893 61.7415 67.366 63.6894 67.9004C65.6906 68.4495 67.8286 68.1698 69.6212 67.1245L73.9872 64.5785C73.6587 66.6697 72.7143 68.6156 71.2746 70.1674L69.7357 71.8262C68.7488 72.8899 67.6102 73.802 66.3567 74.533L64.9785 75.3367C64.0016 75.9063 62.9105 76.2519 61.7838 76.3486L61.7192 76.3541C60.3272 76.4735 58.9298 76.197 57.688 75.5567C56.8031 75.1003 56.0192 74.4704 55.3831 73.7044L55.299 73.6031C54.3265 72.4323 53.7055 71.01 53.5077 69.5008L53.4325 68.9266C53.2485 67.5227 53.3629 66.0958 53.7681 64.7391Z" fill="#946C45"/>
</svg>
