<svg width="97" height="97" viewBox="0 0 97 97" fill="none" xmlns="http://www.w3.org/2000/svg">
<rect width="97" height="97" fill="#7D3458"/>
<path d="M15.5483 24.4076L17.485 21.9575C18.6994 20.4211 20.0581 19.0045 21.5424 17.7268C25.1549 14.6173 29.4417 12.3915 34.0634 11.2254L41.4184 9.36982C45.9826 8.2183 50.7471 8.10642 55.3603 9.04244C59.6372 9.91022 63.6867 11.659 67.2508 14.1773L68.9703 15.3923C74.9927 19.6476 79.7387 25.4668 82.6963 32.2218L82.983 32.8765C85.036 37.5656 86.0959 42.6289 86.0959 47.7478V48.971C86.0959 55.788 83.9975 62.4398 80.0856 68.0228C77.4082 71.8439 73.9555 75.0578 69.9525 77.4549L67.7471 78.7757C62.1253 82.1422 55.8171 84.1985 49.2913 84.7917L47.3991 84.9638C42.4213 85.4163 37.4043 84.7934 32.6883 83.1374L32.5293 83.0816C28.8935 81.8049 25.502 79.9175 22.5008 77.5005C18.222 74.0548 14.8449 69.6205 12.6606 64.5797L11.9067 62.84C10.3963 59.3545 9.37077 55.6784 8.85866 51.9144L8.58295 49.888C7.98343 45.4815 8.26062 41 9.39858 36.7011C10.5835 32.2248 12.6768 28.0402 15.5483 24.4076Z" fill="#FFFEFE"/>
<path d="M21.0164 28.3096L22.6159 26.2883C23.6191 25.0206 24.7412 23.8517 25.967 22.7978C28.9484 20.2342 32.4853 18.3995 36.298 17.4386L42.3732 15.9074C46.1403 14.9581 50.0723 14.8658 53.8797 15.6375C57.4107 16.3532 60.7542 17.7957 63.6976 19.8733L65.1213 20.8782C70.0881 24.3839 74.0031 29.1796 76.4436 34.7477L76.6817 35.291C78.3761 39.1569 79.2509 43.332 79.2509 47.553V48.555C79.2509 54.1799 77.518 59.6682 74.2879 64.2733C72.0791 67.4223 69.2315 70.0704 65.9306 72.045L64.1076 73.1355C59.4654 75.9125 54.2576 77.6085 48.8704 78.0977L47.3072 78.2397C43.1995 78.6127 39.0596 78.0992 35.1675 76.734L35.0315 76.6863C32.0327 75.6344 29.2352 74.0791 26.759 72.0871C23.226 69.2449 20.437 65.5862 18.6325 61.4264L18.0132 59.9988C16.766 57.1237 15.9191 54.0911 15.4961 50.9857L15.2691 49.3188C14.7741 45.6845 15.003 41.9882 15.9425 38.4428C16.9203 34.7526 18.6475 31.3033 21.0164 28.3096Z" fill="#FBF3F3"/>
<path d="M22.5111 27.3725H21.7695C20.9466 27.3725 20.1573 27.6994 19.5754 28.2814C18.7022 29.1546 18.4298 30.4625 18.882 31.6116L19.6702 33.6149C20.1974 34.9549 21.1618 36.0774 22.407 36.8004L23.5155 37.4441L27.5267 39.604C28.2313 39.9834 29.019 40.182 29.8193 40.182C31.2189 40.182 32.5498 39.5755 33.4682 38.5194L34.755 37.0396C35.5333 36.1446 36.4797 35.411 37.5405 34.8806L38.4016 34.4501C39.0936 34.104 39.8567 33.9239 40.6304 33.9239H42.8763C44.3884 33.9239 45.6142 32.6981 45.6142 31.186C45.6142 30.2296 45.3311 29.2947 44.8006 28.4989L43.5599 26.6379C43.3652 26.3459 43.1945 26.0386 43.0492 25.7191C41.9911 23.3913 39.6701 21.8967 37.113 21.8967H35.9338C33.386 21.8967 30.8979 22.6678 28.7967 24.1087L28.6001 24.2435L27.2043 25.4067C26.5737 25.9322 25.8701 26.3634 25.1156 26.6867L24.4386 26.9769C23.8295 27.2379 23.1738 27.3725 22.5111 27.3725Z" fill="#D0D587"/>
<path d="M37.6671 22.8745H36.9255C36.1026 22.8745 35.3133 23.2014 34.7314 23.7833C33.8582 24.6565 33.5858 25.9644 34.038 27.1136L34.8262 29.1169C35.3534 30.4568 36.3178 31.5794 37.563 32.3024L38.6715 32.946L42.6827 35.1059C43.3873 35.4853 44.175 35.6839 44.9753 35.6839C46.3749 35.6839 47.7058 35.0775 48.6242 34.0213L49.911 32.5415C50.6893 31.6465 51.6357 30.913 52.6966 30.3826L53.5576 29.952C54.2496 29.606 55.0127 29.4259 55.7864 29.4259H58.0323C59.5444 29.4259 60.7702 28.2001 60.7702 26.688C60.7702 25.7316 60.4871 24.7966 59.9566 24.0008L58.7159 22.1398C58.5212 21.8478 58.3505 21.5406 58.2052 21.2211C57.1471 18.8932 54.8261 17.3987 52.269 17.3987H51.0898C48.542 17.3987 46.0539 18.1698 43.9528 19.6106L43.7561 19.7454L42.3603 20.9086C41.7297 21.4342 41.0261 21.8653 40.2716 22.1887L39.5946 22.4788C38.9855 22.7399 38.3298 22.8745 37.6671 22.8745Z" fill="#C1C676"/>
<path d="M47.5599 30.1382L48.1954 29.7561C48.9007 29.332 49.4087 28.6451 49.6075 27.8465C49.9059 26.6482 49.4653 25.387 48.4856 24.6352L46.7778 23.3245C45.6355 22.4478 44.2305 21.9828 42.7908 22.0049L41.5092 22.0245L36.9585 22.2405C36.1592 22.2784 35.3817 22.5141 34.6959 22.9265C33.4965 23.6478 32.6683 24.8533 32.4255 26.2317L32.0853 28.163C31.8795 29.3311 31.4465 30.4474 30.8106 31.4487L30.2946 32.2614C29.8798 32.9145 29.3187 33.4621 28.6556 33.8608L26.7309 35.0181C25.435 35.7973 25.0162 37.4795 25.7954 38.7754C26.2882 39.595 27.0126 40.2504 27.8773 40.659L29.8996 41.6146C30.2169 41.7645 30.5216 41.9398 30.8107 42.1388C32.9171 43.5885 35.6764 43.6733 37.8678 42.3556L38.8784 41.7479C41.0618 40.435 42.7967 38.492 43.855 36.1744L43.954 35.9576L44.5509 34.2414C44.8205 33.4661 45.2013 32.734 45.6812 32.0681L46.1119 31.4706C46.4994 30.933 46.992 30.4797 47.5599 30.1382Z" fill="#979C4D"/>
<path d="M34.1468 32.066H33.4053C32.5823 32.066 31.793 32.3929 31.2111 32.9749C30.3379 33.8481 30.0656 35.1559 30.5177 36.3051L31.3059 38.3084C31.8331 39.6484 32.7975 40.7709 34.0427 41.4939L35.1512 42.1375L39.1625 44.2974C39.867 44.6768 40.6548 44.8754 41.455 44.8754C42.8546 44.8754 44.1856 44.269 45.1039 43.2129L46.3907 41.7331C47.169 40.838 48.1154 40.1045 49.1763 39.5741L50.0374 39.1435C50.7294 38.7975 51.4925 38.6174 52.2662 38.6174H54.512C56.0241 38.6174 57.2499 37.3916 57.2499 35.8795C57.2499 34.9231 56.9668 33.9881 56.4363 33.1924L55.1956 31.3313C55.001 31.0393 54.8302 30.7321 54.685 30.4126C53.6269 28.0848 51.3058 26.5902 48.7488 26.5902H47.5695C45.0218 26.5902 42.5337 27.3613 40.4325 28.8021L40.2359 28.937L38.84 30.1002C38.2094 30.6257 37.5058 31.0569 36.7513 31.3802L36.0744 31.6704C35.4653 31.9314 34.8095 32.066 34.1468 32.066Z" fill="#BABF6C"/>
<path d="M50.6779 44.6345L51.4128 44.5357C52.2285 44.4261 52.9671 43.9969 53.4663 43.3426C54.2154 42.3608 54.311 41.0283 53.7098 39.9497L52.6616 38.0692C51.9606 36.8115 50.8552 35.8275 49.5247 35.2768L48.3404 34.7867L44.0771 33.1805C43.3282 32.8984 42.5211 32.8066 41.728 32.9132C40.3409 33.0997 39.1026 33.8781 38.3331 35.0472L37.255 36.6852C36.6029 37.676 35.7627 38.5291 34.782 39.1962L33.986 39.7376C33.3462 40.1727 32.6139 40.453 31.8471 40.5561L29.6213 40.8553C28.1227 41.0568 27.0712 42.435 27.2727 43.9336C27.4001 44.8815 27.8053 45.7704 28.4371 46.4884L29.9147 48.1675C30.1465 48.431 30.3567 48.7127 30.5432 49.01C31.9021 51.1761 34.4016 52.348 36.9358 52.0073L38.1046 51.8501C40.6296 51.5106 42.9927 50.4148 44.8832 48.7069L45.0601 48.5471L46.2885 47.2082C46.8435 46.6034 47.4833 46.0823 48.188 45.6613L48.8203 45.2835C49.3891 44.9436 50.0211 44.7229 50.6779 44.6345Z" fill="#D0D587"/>
<path d="M36.2563 51.112L36.9912 51.0132C37.8068 50.9035 38.5455 50.4744 39.0447 49.8201C39.7937 48.8383 39.8894 47.5058 39.2881 46.4271L38.24 44.5467C37.539 43.289 36.4336 42.305 35.1031 41.7543L33.9188 41.2641L29.6555 39.658C28.9066 39.3759 28.0994 39.284 27.3063 39.3907C25.9192 39.5772 24.681 40.3555 23.9115 41.5246L22.8334 43.1627C22.1813 44.1535 21.3411 45.0066 20.3603 45.6736L19.5643 46.2151C18.9246 46.6502 18.1923 46.9304 17.4255 47.0335L15.1997 47.3328C13.7011 47.5343 12.6495 48.9125 12.851 50.4111C12.9785 51.359 13.3836 52.2479 14.0154 52.9659L15.4931 54.645C15.7249 54.9084 15.9351 55.1902 16.1216 55.4875C17.4805 57.6536 19.98 58.8255 22.5142 58.4848L23.6829 58.3276C26.208 57.9881 28.5711 56.8923 30.4616 55.1844L30.6385 55.0245L31.8669 53.6857C32.4218 53.0809 33.0617 52.5598 33.7664 52.1387L34.3986 51.761C34.9675 51.4211 35.5995 51.2003 36.2563 51.112Z" fill="#C1C676"/>
<path d="M25.4836 45.2314L24.9047 45.6948C24.2622 46.2091 23.8503 46.9575 23.7597 47.7755C23.6236 49.0029 24.2283 50.1941 25.2995 50.8087L27.1667 51.8801C28.4156 52.5968 29.87 52.8704 31.294 52.6567L32.5616 52.4665L37.0429 51.646C37.83 51.5019 38.5691 51.1647 39.1938 50.6646C40.2865 49.79 40.9466 48.4848 41.0036 47.0864L41.0834 45.127C41.1317 43.9419 41.4122 42.7778 41.9089 41.7007L42.3121 40.8265C42.6361 40.1239 43.1193 39.5064 43.7233 39.0229L45.4766 37.6194C46.6571 36.6745 46.848 34.9515 45.9031 33.771C45.3054 33.0244 44.5001 32.4714 43.5887 32.1817L41.4571 31.5041C41.1227 31.3978 40.7973 31.2646 40.4843 31.106C38.2035 29.9499 35.4576 30.2335 33.4613 31.8315L32.5407 32.5684C30.5517 34.1605 29.0911 36.3174 28.3511 38.7553L28.2819 38.9834L27.9191 40.7638C27.7551 41.5682 27.4753 42.3445 27.0884 43.0684L26.7412 43.7179C26.4288 44.3024 26.0009 44.8173 25.4836 45.2314Z" fill="#979C4D"/>
<path d="M38.5202 41.5334L39.2551 41.4346C40.0707 41.3249 40.8094 40.8958 41.3086 40.2415C42.0577 39.2597 42.1533 37.9272 41.552 36.8485L40.5039 34.9681C39.8029 33.7104 38.6975 32.7264 37.367 32.1757L36.1827 31.6855L31.9194 30.0794C31.1705 29.7973 30.3634 29.7054 29.5703 29.8121C28.1831 29.9986 26.9449 30.7769 26.1754 31.946L25.0973 33.5841C24.4452 34.5749 23.605 35.428 22.6243 36.095L21.8282 36.6365C21.1885 37.0716 20.4562 37.3518 19.6894 37.4549L17.4636 37.7542C15.965 37.9557 14.9134 39.3339 15.1149 40.8325C15.2424 41.7804 15.6475 42.6693 16.2794 43.3872L17.757 45.0664C17.9888 45.3298 18.199 45.6116 18.3855 45.9089C19.7444 48.0749 22.2439 49.2469 24.7781 48.9061L25.9469 48.749C28.4719 48.4095 30.835 47.3137 32.7255 45.6057L32.9024 45.4459L34.1308 44.1071C34.6857 43.5022 35.3256 42.9811 36.0303 42.5601L36.6625 42.1824C37.2314 41.8425 37.8634 41.6217 38.5202 41.5334Z" fill="#BABF6C"/>
<path d="M55.6047 60.8358L56.3396 60.737C57.1552 60.6274 57.8939 60.1982 58.3931 59.5439C59.1421 58.5621 59.2377 57.2296 58.6365 56.151L57.5884 54.2705C56.8874 53.0128 55.782 52.0288 54.4515 51.4781L53.2672 50.988L49.0039 49.3818C48.255 49.0997 47.4478 49.0078 46.6547 49.1145C45.2676 49.301 44.0293 50.0794 43.2599 51.2485L42.1818 52.8865C41.5297 53.8773 40.6895 54.7304 39.7087 55.3975L38.9127 55.9389C38.273 56.374 37.5407 56.6543 36.7739 56.7574L34.5481 57.0566C33.0494 57.2581 31.9979 58.6363 32.1994 60.1349C32.3269 61.0828 32.732 61.9717 33.3638 62.6897L34.8414 64.3688C35.0733 64.6323 35.2835 64.914 35.47 65.2113C36.8288 67.3774 39.3284 68.5493 41.8626 68.2086L43.0313 68.0514C45.5564 67.7119 47.9195 66.6161 49.81 64.9082L49.9869 64.7483L51.2152 63.4095C51.7702 62.8047 52.4101 62.2836 53.1147 61.8626L53.747 61.4848C54.3159 61.1449 54.9479 60.9241 55.6047 60.8358Z" fill="#D0D587"/>
<path d="M41.1828 67.3134L41.9177 67.2146C42.7333 67.105 43.472 66.6758 43.9712 66.0215C44.7203 65.0397 44.8159 63.7072 44.2146 62.6286L43.1665 60.7481C42.4655 59.4904 41.3601 58.5064 40.0296 57.9557L38.8453 57.4656L34.582 55.8594C33.8331 55.5773 33.026 55.4854 32.2329 55.5921C30.8457 55.7786 29.6075 56.557 28.838 57.7261L27.7599 59.3641C27.1078 60.3549 26.2676 61.208 25.2869 61.8751L24.4908 62.4165C23.8511 62.8516 23.1188 63.1319 22.352 63.235L20.1262 63.5342C18.6276 63.7357 17.576 65.1139 17.7775 66.6125C17.905 67.5604 18.3101 68.4493 18.9419 69.1673L20.4196 70.8464C20.6514 71.1099 20.8616 71.3916 21.0481 71.6889C22.407 73.855 24.9065 75.0269 27.4407 74.6862L28.6095 74.529C31.1345 74.1895 33.4976 73.0937 35.3881 71.3858L35.565 71.2259L36.7934 69.8871C37.3483 69.2823 37.9882 68.7612 38.6929 68.3402L39.3251 67.9624C39.894 67.6225 40.526 67.4017 41.1828 67.3134Z" fill="#C1C676"/>
<path d="M15.2932 61.5344L14.7142 61.9978C14.0717 62.5121 13.6599 63.2606 13.5692 64.0785C13.4332 65.3059 14.0379 66.4971 15.109 67.1117L16.9763 68.1832C18.2252 68.8998 19.6796 69.1735 21.1036 68.9598L22.3711 68.7695L26.8524 67.9491C27.6396 67.8049 28.3787 67.4677 29.0034 66.9676C30.0961 66.093 30.7562 64.7878 30.8131 63.3894L30.893 61.43C30.9413 60.2449 31.2217 59.0808 31.7185 58.0038L32.1216 57.1295C32.4457 56.427 32.9288 55.8095 33.5328 55.326L35.2862 53.9225C36.4667 52.9775 36.6576 51.2546 35.7127 50.0741C35.115 49.3274 34.3097 48.7744 33.3983 48.4847L31.2667 47.8071C30.9322 47.7008 30.6069 47.5677 30.2939 47.409C28.0131 46.2529 25.2671 46.5366 23.2709 48.1345L22.3502 48.8715C20.3612 50.4636 18.9007 52.6204 18.1607 55.0583L18.0914 55.2865L17.7286 57.0668C17.5647 57.8712 17.2849 58.6475 16.8979 59.3714L16.5507 60.021C16.2383 60.6054 15.8105 61.1203 15.2932 61.5344Z" fill="#979C4D"/>
<path d="M47.1413 57.2733L47.8762 57.1745C48.6918 57.0649 49.4305 56.6357 49.9297 55.9814C50.6788 54.9996 50.7744 53.6671 50.1731 52.5885L49.125 50.708C48.424 49.4503 47.3186 48.4663 45.9881 47.9156L44.8038 47.4255L40.5405 45.8193C39.7916 45.5372 38.9845 45.4453 38.1914 45.552C36.8042 45.7385 35.566 46.5169 34.7965 47.686L33.7184 49.324C33.0663 50.3148 32.2261 51.1679 31.2454 51.835L30.4493 52.3764C29.8096 52.8115 29.0773 53.0918 28.3105 53.1949L26.0847 53.4941C24.5861 53.6956 23.5345 55.0738 23.736 56.5724C23.8635 57.5203 24.2686 58.4092 24.9004 59.1272L26.3781 60.8063C26.6099 61.0698 26.8201 61.3515 27.0066 61.6488C28.3655 63.8149 30.865 64.9868 33.3992 64.6461L34.568 64.4889C37.093 64.1494 39.4561 63.0536 41.3466 61.3457L41.5235 61.1858L42.7519 59.847C43.3068 59.2422 43.9467 58.7211 44.6514 58.3001L45.2836 57.9223C45.8525 57.5824 46.4845 57.3616 47.1413 57.2733Z" fill="#BABF6C"/>
<path d="M42.8744 54.3035L42.404 54.8768C41.8819 55.5129 41.6339 56.3305 41.7146 57.1495C41.8356 58.3784 42.6739 59.4186 43.849 59.7981L45.8977 60.4597C47.2679 60.9022 48.7475 60.8688 50.0963 60.3649L51.297 59.9163L55.5114 58.1858C56.2516 57.8818 56.9049 57.3989 57.4125 56.7803C58.3004 55.6983 58.676 54.2848 58.4421 52.9048L58.1145 50.9714C57.9164 49.802 57.9497 48.605 58.2127 47.4485L58.4261 46.5097C58.5977 45.7553 58.9425 45.0511 59.4333 44.453L60.8581 42.7169C61.8173 41.548 61.6474 39.8229 60.4785 38.8636C59.7392 38.2569 58.8369 37.8826 57.8852 37.7879L55.6595 37.5663C55.3103 37.5316 54.9644 37.4687 54.6253 37.3783C52.1546 36.7195 49.5269 37.5656 47.9047 39.5422L47.1566 40.4538C45.5404 42.4232 44.5581 44.8358 44.3389 47.3741L44.3184 47.6116L44.3321 49.4285C44.3382 50.2494 44.2252 51.0668 43.9965 51.8552L43.7914 52.5625C43.6067 53.199 43.2948 53.7913 42.8744 54.3035Z" fill="#D0D587"/>
<path d="M49.0121 39.7341L48.5417 40.3073C48.0196 40.9435 47.7716 41.761 47.8523 42.58C47.9733 43.809 48.8116 44.8492 49.9867 45.2287L52.0354 45.8902C53.4056 46.3328 54.8852 46.2993 56.234 45.7954L57.4347 45.3469L61.6491 43.6163C62.3893 43.3123 63.0425 42.8294 63.5502 42.2108C64.4381 41.1289 64.8136 39.7153 64.5798 38.3354L64.2522 36.4019C64.0541 35.2325 64.0874 34.0356 64.3504 32.879L64.5638 31.9403C64.7354 31.1858 65.0802 30.4817 65.571 29.8836L66.9958 28.1475C67.955 26.9786 67.7851 25.2534 66.6162 24.2941C65.8769 23.6874 64.9745 23.3131 64.0229 23.2184L61.7972 22.9969C61.448 22.9621 61.1021 22.8992 60.763 22.8088C58.2923 22.15 55.6646 22.9961 54.0424 24.9727L53.2943 25.8843C51.6781 27.8538 50.6958 30.2663 50.4766 32.8046L50.4561 33.0421L50.4697 34.859C50.4759 35.6799 50.3629 36.4973 50.1342 37.2857L49.929 37.9931C49.7444 38.6295 49.4325 39.2218 49.0121 39.7341Z" fill="#C1C676"/>
<path d="M71.8955 26.3166L72.0033 25.5829C72.1228 24.7687 71.9141 23.9403 71.4229 23.28C70.6859 22.2892 69.4314 21.8297 68.2288 22.11L66.1322 22.5987C64.7298 22.9256 63.4791 23.7166 62.5828 24.8436L61.7849 25.8467L59.065 29.5015C58.5873 30.1435 58.2763 30.894 58.16 31.6857C57.9566 33.0705 58.3632 34.4754 59.2747 35.5376L60.5518 37.0257C61.3242 37.9258 61.9124 38.9688 62.283 40.0955L62.5839 41.01C62.8256 41.7449 62.893 42.5261 62.7805 43.2916L62.4542 45.5136C62.2344 47.0096 63.2691 48.4006 64.7651 48.6203C65.7114 48.7593 66.6776 48.6151 67.542 48.2058L69.5635 47.2488C69.8807 47.0986 70.2095 46.9743 70.5467 46.877C73.0036 46.1684 74.8196 44.0892 75.1912 41.5593L75.3626 40.3926C75.7328 37.8719 75.3314 35.2981 74.2113 33.0099L74.1064 32.7957L73.1584 31.2457C72.7301 30.5454 72.4058 29.7866 72.1955 28.9931L72.0068 28.2812C71.8371 27.6406 71.7992 26.9723 71.8955 26.3166Z" fill="#979C4D"/>
<path d="M51.4955 51.142L51.0251 51.7152C50.503 52.3514 50.255 53.1689 50.3357 53.9879C50.4567 55.2169 51.295 56.2571 52.4701 56.6366L54.5188 57.2981C55.889 57.7407 57.3686 57.7072 58.7174 57.2033L59.9181 56.7548L64.1325 55.0242C64.8727 54.7202 65.5259 54.2373 66.0336 53.6187C66.9215 52.5368 67.297 51.1232 67.0632 49.7433L66.7356 47.8098C66.5375 46.6404 66.5708 45.4435 66.8338 44.2869L67.0472 43.3482C67.2188 42.5937 67.5636 41.8895 68.0544 41.2915L69.4792 39.5554C70.4384 38.3865 70.2685 36.6613 69.0996 35.702C68.3603 35.0953 67.4579 34.721 66.5063 34.6263L64.2806 34.4048C63.9314 34.37 63.5855 34.3071 63.2464 34.2167C60.7757 33.5579 58.148 34.404 56.5258 36.3806L55.7777 37.2922C54.1615 39.2617 53.1792 41.6742 52.96 44.2125L52.9395 44.45L52.9531 46.2669C52.9593 47.0878 52.8463 47.9052 52.6176 48.6936L52.4124 49.401C52.2278 50.0374 51.9159 50.6297 51.4955 51.142Z" fill="#BABF6C"/>
<path d="M81.6533 48.2211L82.2574 47.791C82.9279 47.3138 83.3813 46.5898 83.5179 45.7782C83.723 44.5605 83.1864 43.337 82.1516 42.663L80.3478 41.488C79.1413 40.7021 77.7046 40.3468 76.2708 40.4799L74.9946 40.5983L70.4741 41.1648C69.6801 41.2643 68.9232 41.5593 68.2712 42.0234C67.131 42.835 66.3983 44.1009 66.2626 45.4939L66.0724 47.4457C65.9574 48.6261 65.6117 49.7726 65.055 50.8199L64.6032 51.67C64.2401 52.3532 63.7229 52.9425 63.0925 53.3911L61.2629 54.6935C60.031 55.5704 59.7432 57.2798 60.62 58.5117C61.1746 59.2909 61.9475 59.8884 62.8411 60.2291L64.9311 61.0258C65.259 61.1508 65.5763 61.3021 65.8799 61.4781C68.0918 62.761 70.8495 62.6326 72.9327 61.1498L73.8934 60.4659C75.969 58.9885 77.5489 56.9174 78.4251 54.5251L78.5071 54.3013L78.9698 52.5442C79.1788 51.7504 79.5019 50.9911 79.9291 50.2901L80.3124 49.6612C80.6572 49.0953 81.1134 48.6054 81.6533 48.2211Z" fill="#D0D587"/>
<path d="M71.9138 60.6746L72.5179 60.2445C73.1884 59.7673 73.6418 59.0433 73.7784 58.2317C73.9835 57.014 73.4469 55.7905 72.4121 55.1165L70.6083 53.9415C69.4017 53.1556 67.9651 52.8003 66.5313 52.9334L65.2551 53.0518L60.7346 53.6183C59.9406 53.7178 59.1837 54.0128 58.5317 54.4769C57.3915 55.2885 56.6588 56.5544 56.5231 57.9474L56.3329 59.8992C56.2179 61.0796 55.8722 62.2261 55.3155 63.2734L54.8637 64.1235C54.5006 64.8067 53.9834 65.3959 53.353 65.8446L51.5233 67.147C50.2915 68.0238 50.0037 69.7333 50.8805 70.9652C51.4351 71.7444 52.208 72.3419 53.1016 72.6826L55.1916 73.4793C55.5195 73.6043 55.8368 73.7556 56.1404 73.9316C58.3523 75.2145 61.11 75.0861 63.1931 73.6033L64.1539 72.9194C66.2295 71.442 67.8093 69.3709 68.6856 66.9786L68.7676 66.7548L69.2303 64.9977C69.4393 64.2039 69.7624 63.4446 70.1896 62.7436L70.5729 62.1147C70.9177 61.5488 71.3739 61.0589 71.9138 60.6746Z" fill="#C1C676"/>
<path d="M46.3154 67.6308L46.0193 68.3107C45.6906 69.0652 45.6751 69.9193 45.9762 70.6852C46.4281 71.8345 47.5184 72.6065 48.7525 72.6509L50.9039 72.7283C52.3429 72.7801 53.7571 72.3442 54.9173 71.4914L55.95 70.7322L59.5322 67.9173C60.1614 67.4228 60.658 66.78 60.9776 66.0463C61.5366 64.7632 61.5121 63.3008 60.9106 62.037L60.0678 60.2663C59.5581 59.1954 59.2636 58.0348 59.2009 56.8503L59.1501 55.889C59.1092 55.1163 59.2488 54.3448 59.5578 53.6355L60.4547 51.5765C61.0586 50.1902 60.4243 48.5769 59.0381 47.973C58.1612 47.5911 57.191 47.4772 56.2496 47.6458L54.0479 48.04C53.7025 48.1019 53.3526 48.1357 53.0017 48.1413C50.445 48.1817 48.1479 49.7128 47.1267 52.057L46.6557 53.1382C45.6383 55.4739 45.3516 58.0629 45.8334 60.5647L45.8785 60.7988L46.3874 62.543C46.6174 63.3311 46.7317 64.1483 46.7268 64.9692L46.7225 65.7057C46.7185 66.3683 46.5801 67.0233 46.3154 67.6308Z" fill="#979C4D"/>
<path d="M72.5051 49.0145L73.1092 48.5845C73.7797 48.1073 74.2331 47.3832 74.3698 46.5717C74.5748 45.3539 74.0382 44.1305 73.0034 43.4565L71.1996 42.2815C69.9931 41.4955 68.5564 41.1403 67.1226 41.2734L65.8464 41.3918L61.3259 41.9583C60.5319 42.0578 59.775 42.3528 59.123 42.8168C57.9828 43.6285 57.2501 44.8943 57.1144 46.2873L56.9242 48.2391C56.8092 49.4196 56.4635 50.566 55.9068 51.6134L55.455 52.4634C55.0919 53.1466 54.5747 53.7359 53.9443 54.1846L52.1147 55.487C50.8828 56.3638 50.595 58.0733 51.4718 59.3052C52.0264 60.0843 52.7993 60.6819 53.6929 61.0225L55.7829 61.8192C56.1108 61.9442 56.4281 62.0955 56.7317 62.2716C58.9437 63.5545 61.7013 63.4261 63.7845 61.9433L64.7452 61.2594C66.8208 59.782 68.4007 57.7109 69.2769 55.3186L69.3589 55.0947L69.8216 53.3377C70.0306 52.5438 70.3537 51.7846 70.7809 51.0836L71.1642 50.4546C71.509 49.8888 71.9652 49.3988 72.5051 49.0145Z" fill="#BABF6C"/>
<path d="M33.9021 72.9133L33.288 73.3291C32.6066 73.7905 32.1363 74.5037 31.9807 75.3118C31.7472 76.5244 32.255 77.7601 33.2737 78.4582L35.0495 79.6751C36.2373 80.4891 37.6652 80.8779 39.1017 80.7784L40.3804 80.6899L44.9129 80.2295C45.709 80.1486 46.4726 79.8714 47.1353 79.4228C48.2942 78.6381 49.0563 77.3897 49.2247 76.0003L49.4605 74.0535C49.6032 72.876 49.9756 71.738 50.5566 70.704L51.0283 69.8647C51.4073 69.1902 51.9382 68.6132 52.5788 68.1794L54.4385 66.9203C55.6906 66.0725 56.0184 64.3702 55.1706 63.1181C54.6344 62.3262 53.8758 61.7107 52.9904 61.3492L50.9196 60.5038C50.5947 60.3712 50.281 60.2125 49.9817 60.0294C47.8004 58.695 45.0405 58.7588 42.9232 60.1924L41.9467 60.8536C39.837 62.282 38.2091 64.3154 37.277 66.6866L37.1898 66.9085L36.6861 68.6542C36.4586 69.4429 36.1177 70.1944 35.6742 70.8852L35.2763 71.505C34.9183 72.0626 34.4508 72.5418 33.9021 72.9133Z" fill="#D0D587"/>
<path d="M43.9304 60.6914L43.3163 61.1071C42.6349 61.5685 42.1646 62.2817 42.009 63.0899C41.7755 64.3025 42.2833 65.5382 43.302 66.2362L45.0778 67.4532C46.2656 68.2671 47.6936 68.6559 49.13 68.5565L50.4087 68.468L54.9412 68.0076C55.7373 67.9267 56.501 67.6495 57.1636 67.2008C58.3225 66.4161 59.0846 65.1678 59.253 63.7783L59.4888 61.8315C59.6315 60.6541 60.0039 59.5161 60.585 58.4821L61.0566 57.6428C61.4356 56.9683 61.9665 56.3913 62.6072 55.9575L64.4668 54.6984C65.7189 53.8506 66.0467 52.1483 65.1989 50.8962C64.6627 50.1043 63.9041 49.4888 63.0187 49.1273L60.9479 48.2819C60.623 48.1492 60.3094 47.9906 60.01 47.8074C57.8287 46.4731 55.0688 46.5368 52.9515 47.9705L51.975 48.6316C49.8653 50.06 48.2374 52.0935 47.3053 54.4646L47.2181 54.6865L46.7144 56.4323C46.4869 57.221 46.146 57.9725 45.7026 58.6633L45.3047 59.2831C44.9467 59.8407 44.4791 60.3198 43.9304 60.6914Z" fill="#C1C676"/>
<path d="M69.6848 54.3366L69.9968 53.6639C70.343 52.9173 70.3785 52.0638 70.0954 51.291C69.6706 50.1315 68.5987 49.3342 67.366 49.2609L65.2169 49.133C63.7796 49.0476 62.3555 49.4502 61.1757 50.2756L60.1254 51.0104L56.4783 53.7407C55.8377 54.2202 55.3261 54.8513 54.9895 55.5773C54.4006 56.847 54.3908 58.3095 54.9625 59.587L55.7636 61.377C56.2481 62.4596 56.5154 63.6268 56.5502 64.8123L56.5785 65.7746C56.6013 66.548 56.4437 67.316 56.1181 68.0179L55.1733 70.0554C54.5371 71.4271 55.1334 73.0549 56.5051 73.6911C57.3728 74.0934 58.3401 74.23 59.2852 74.0835L61.4955 73.741C61.8423 73.6872 62.1929 73.6615 62.5438 73.6642C65.1007 73.6837 67.4331 72.2069 68.5089 69.8872L69.0051 68.8173C70.077 66.5061 70.4242 63.9245 70.0012 61.4121L69.9616 61.177L69.4936 59.4213C69.2822 58.6281 69.187 57.8085 69.2111 56.9879L69.2327 56.2517C69.2522 55.5893 69.406 54.9378 69.6848 54.3366Z" fill="#979C4D"/>
<path d="M43.0661 72.3344L42.4521 72.7501C41.7706 73.2115 41.3004 73.9247 41.1448 74.7329C40.9113 75.9455 41.4191 77.1812 42.4377 77.8792L44.2136 79.0962C45.4014 79.9101 46.8293 80.2989 48.2658 80.1995L49.5445 80.111L54.0769 79.6506C54.8731 79.5697 55.6367 79.2925 56.2993 78.8438C57.4583 78.0591 58.2204 76.8108 58.3887 75.4213L58.6246 73.4745C58.7672 72.2971 59.1396 71.1591 59.7207 70.1251L60.1923 69.2858C60.5714 68.6113 61.1022 68.0343 61.7429 67.6005L63.6026 66.3414C64.8547 65.4936 65.1824 63.7913 64.3347 62.5392C63.7985 61.7473 63.0399 61.1318 62.1544 60.7703L60.0837 59.9249C59.7588 59.7922 59.4451 59.6336 59.1457 59.4504C56.9644 58.1161 54.2046 58.1799 52.0872 59.6135L51.1107 60.2746C49.0011 61.703 47.3732 63.7365 46.4411 66.1076L46.3538 66.3295L45.8502 68.0753C45.6226 68.864 45.2818 69.6155 44.8383 70.3063L44.4404 70.9261C44.0824 71.4837 43.6149 71.9628 43.0661 72.3344Z" fill="#BABF6C"/>
<path d="M41.8336 42.7913L42.5826 45.4125C42.6476 45.6401 42.6805 45.8755 42.6805 46.1122C42.6805 47.3262 41.8237 48.3714 40.6332 48.6095L40.0898 48.7182C39.2448 48.8872 38.3674 48.7108 37.6534 48.2283L36.602 47.5179C35.6531 46.8768 34.8983 45.9876 34.4197 44.9472L33.5059 42.9607C33.1206 42.123 33.0963 41.1638 33.4387 40.3077C33.7243 39.5936 34.2462 38.9991 34.9172 38.6233L35.6057 38.2378C36.0771 37.9738 36.6085 37.8351 37.1488 37.8351C38.1661 37.8351 39.121 38.3251 39.7143 39.1515L40.8141 40.6833C41.2727 41.3221 41.6176 42.0352 41.8336 42.7913Z" fill="#BA211E"/>
<path d="M25.1211 36.3645L25.9207 38.6215C26.0115 38.8776 26.0578 39.1473 26.0578 39.419C26.0578 40.5913 25.2071 41.5902 24.0498 41.7769L22.5971 42.0112C21.6965 42.1565 20.7732 41.9984 19.9722 41.562L18.4406 40.7274C17.3168 40.1151 16.3857 39.2019 15.7517 38.0903L14.7421 36.3204C14.2363 35.4335 14.205 34.3531 14.6586 33.4384C14.9734 32.8038 15.4981 32.2978 16.1437 32.0062L17.2806 31.4928C17.8712 31.2261 18.5117 31.0881 19.1597 31.0881C20.4626 31.0881 21.7034 31.6448 22.5697 32.6179L23.5709 33.7425C24.2524 34.508 24.7788 35.3984 25.1211 36.3645Z" fill="#DD1E1B"/>
<path d="M58.9534 59.2767L60.8381 57.7997C61.052 57.6321 61.2929 57.5022 61.5504 57.4157C62.6616 57.0422 63.8795 57.5304 64.4251 58.568L65.11 59.8704C65.5346 60.6777 65.6789 61.6033 65.5204 62.5016L65.2172 64.2193C64.9948 65.4796 64.4258 66.653 63.574 67.6082L62.218 69.129C61.5385 69.891 60.5243 70.2649 59.5127 70.1262C58.8109 70.03 58.1641 69.6938 57.6821 69.1748L56.8332 68.2606C56.3923 67.7858 56.0575 67.2225 55.851 66.6083C55.436 65.3733 55.5684 64.0198 56.2148 62.8887L56.9619 61.5814C57.4704 60.6916 58.1467 59.9088 58.9534 59.2767Z" fill="#DD1E1B"/>
<path d="M66.168 34.2375L68.0527 32.7605C68.2666 32.5929 68.5075 32.4631 68.765 32.3765C69.8762 32.0031 71.0941 32.4913 71.6397 33.5288L72.3246 34.8312C72.7492 35.6386 72.8935 36.5641 72.735 37.4624L72.4318 39.1801C72.2094 40.4404 71.6404 41.6138 70.7886 42.569L69.4326 44.0898C68.7531 44.8518 67.7389 45.2257 66.7273 45.087C66.0255 44.9908 65.3787 44.6546 64.8967 44.1356L64.0478 43.2214C63.6069 42.7466 63.2721 42.1834 63.0656 41.5691C62.6506 40.3341 62.783 38.9807 63.4294 37.8495L64.1765 36.5422C64.685 35.6524 65.3613 34.8697 66.168 34.2375Z" fill="#E42B28"/>
<path d="M47.9485 21.6911L50.2155 22.4618C50.4728 22.5493 50.7132 22.68 50.9265 22.8483C51.8466 23.5746 52.1037 24.8613 51.5332 25.8854L50.8171 27.1708C50.3731 27.9677 49.677 28.5946 48.8381 28.9529L47.2342 29.6381C46.0573 30.1408 44.7636 30.3059 43.4982 30.1149L41.4834 29.8108C40.4739 29.6584 39.6064 29.0135 39.1695 28.0907C38.8664 27.4505 38.7943 26.7251 38.9654 26.0377L39.2668 24.8272C39.4233 24.1984 39.7119 23.6101 40.1134 23.1015C40.9206 22.0788 42.1262 21.4497 43.4268 21.3726L44.9299 21.2835C45.953 21.2228 46.9781 21.3612 47.9485 21.6911Z" fill="#BA211E"/>
<path d="M29.0767 41.4535L28.781 40.895C28.0566 39.5265 27.0618 38.3194 25.857 37.3469C26.5809 38.9335 27.4763 40.4361 28.5272 41.8278L29.6186 43.2731C30.5451 44.5744 30.8021 46.2369 30.312 47.7572L30.2551 47.9336L29.016 51.9598C30.0263 50.7081 30.738 49.2426 31.0973 47.6747L31.5475 45.7096L32.6394 47.4705C33.4953 48.7315 33.9085 50.2408 33.8142 51.7619L33.7944 52.0819C33.7515 52.7745 33.6166 53.4584 33.3933 54.1154L32.7243 56.0837L33.1089 55.432C33.9795 53.9564 34.5037 52.3022 34.6417 50.5944L35.7923 52.9053L37.2772 55.0745C38.1976 56.419 39.4099 57.5382 40.8235 58.3483C40.0672 57.7379 39.4099 57.014 38.8749 56.2025L37.0271 53.3993L35.8618 50.9509L36.7999 51.2396C38.5115 51.7664 40.2981 52.0081 42.0881 51.9552L38.6239 51.421L37.5272 51.181C36.7033 51.0008 35.9327 50.6311 35.2763 50.1014C34.7294 49.66 34.2734 49.1166 33.9334 48.5015L33.0693 46.9378L31.5208 44.8084L33.0715 45.0496C33.4514 45.1086 33.8351 45.1391 34.2196 45.1408L34.6572 45.1427C35.6349 45.1469 36.5987 44.9098 37.4628 44.4523L37.1852 44.4744C35.674 44.5945 34.1543 44.5494 32.6529 44.3399C31.4131 44.2096 30.3067 43.5041 29.6654 42.435L29.0767 41.4535Z" fill="#4B6B0E"/>
<path d="M28.0542 44.5974L29.6682 43.3326C29.8513 43.189 30.0576 43.0778 30.2782 43.0037C31.2298 42.6839 32.2729 43.102 32.7401 43.9905L33.3266 45.1058C33.6902 45.7973 33.8139 46.5899 33.6781 47.3593L33.4184 48.8302C33.2279 49.9095 32.7407 50.9145 32.0112 51.7325L30.8499 53.0349C30.268 53.6875 29.3994 54.0077 28.5331 53.8889C27.9321 53.8065 27.3782 53.5186 26.9654 53.0741L26.2384 52.2912C25.8608 51.8846 25.5741 51.4022 25.3973 50.8762C25.0418 49.8186 25.1552 48.6595 25.7088 47.6907L26.3486 46.5712C26.7841 45.8091 27.3633 45.1388 28.0542 44.5974Z" fill="#DD1E1B"/>
<path d="M55.042 34.428L56.656 33.1632C56.8391 33.0197 57.0454 32.9084 57.266 32.8343C58.2176 32.5145 59.2606 32.9326 59.7279 33.8211L60.3144 34.9365C60.678 35.6279 60.8016 36.4206 60.6659 37.1899L60.4062 38.6609C60.2157 39.7402 59.7285 40.7451 58.999 41.5631L57.8377 42.8655C57.2558 43.5181 56.3872 43.8383 55.5209 43.7195C54.9199 43.6372 54.366 43.3493 53.9532 42.9047L53.2262 42.1219C52.8486 41.7152 52.5619 41.2329 52.3851 40.7068C52.0296 39.6492 52.143 38.4901 52.6966 37.5213L53.3364 36.4018C53.7719 35.6398 54.3511 34.9694 55.042 34.428Z" fill="#DD1E1B"/>
<path d="M44.8725 60.4381L46.4865 59.1733C46.6697 59.0297 46.876 58.9185 47.0966 58.8444C48.0482 58.5246 49.0912 58.9427 49.5585 59.8312L50.145 60.9465C50.5086 61.638 50.6322 62.4306 50.4964 63.2L50.2368 64.6709C50.0463 65.7502 49.559 66.7552 48.8296 67.5732L47.6683 68.8756C47.0863 69.5282 46.2178 69.8484 45.3515 69.7296C44.7505 69.6472 44.1965 69.3593 43.7838 68.9148L43.0568 68.1319C42.6791 67.7253 42.3924 67.2429 42.2156 66.7169C41.8602 65.6593 41.9735 64.5002 42.5272 63.5314L43.1669 62.4119C43.6024 61.6498 44.1817 60.9795 44.8725 60.4381Z" fill="#E42B28"/>
<path d="M40.6271 58.4672L40.3781 59.048C39.7682 60.4712 39.4537 62.0035 39.4537 63.5518C40.2336 61.992 40.8405 60.3515 41.2634 58.6596L41.7027 56.9027C42.1334 55.3645 43.2656 54.1202 44.7565 53.5468L44.9295 53.4803L48.8407 51.9158C47.2322 51.9158 45.6448 52.2823 44.1991 52.9875L42.3871 53.8714L43.0716 51.9158C43.5153 50.4578 44.4304 49.1883 45.6732 48.3063L45.9346 48.1207C46.5006 47.7191 47.1174 47.3945 47.769 47.1556L49.7208 46.44L48.9721 46.5501C47.277 46.7994 45.6606 47.4304 44.245 48.3956L45.3206 46.0489L46.076 43.531C46.5441 41.9704 46.6536 40.3241 46.3962 38.7152C46.3962 39.6872 46.2458 40.6533 45.9503 41.5792L44.9295 44.7777L43.7561 47.2222L43.3916 46.311C42.7265 44.6482 41.7925 43.1061 40.6271 41.7465L42.3871 44.7777L42.8892 45.7818C43.2664 46.5362 43.4627 47.368 43.4627 48.2114C43.4627 48.9142 43.3264 49.6104 43.0612 50.2612L42.3871 51.9158L41.7027 54.4581L40.9164 53.1C40.7238 52.7673 40.5065 52.4495 40.2663 52.1493L39.993 51.8076C39.3821 51.0441 38.5923 50.4431 37.6936 50.0579L37.8852 50.2601C38.9277 51.3606 39.8471 52.5715 40.6271 53.8714C41.3043 54.9181 41.4502 56.2222 41.0211 57.3926L40.6271 58.4672Z" fill="#5D8F00"/>
<path d="M55.1966 65.1163L54.9477 65.6972C54.3378 67.1203 54.0233 68.6526 54.0233 70.2009C54.8032 68.6411 55.41 67.0006 55.833 65.3087L56.2722 63.5518C56.7029 62.0136 57.8352 60.7693 59.3261 60.1959L59.499 60.1294L63.4103 58.5649C61.8018 58.5649 60.2144 58.9314 58.7687 59.6366L56.9567 60.5205L57.6412 58.5649C58.0849 57.1069 58.9999 55.8374 60.2428 54.9554L60.5042 54.7698C61.0702 54.3682 61.687 54.0437 62.3386 53.8048L64.2904 53.0891L63.5417 53.1992C61.8466 53.4485 60.2302 54.0795 58.8146 55.0447L59.8902 52.698L60.6455 50.1801C61.1137 48.6195 61.2232 46.9732 60.9658 45.3643C60.9658 46.3363 60.8154 47.3024 60.5198 48.2283L59.499 51.4268L58.3257 53.8714L57.9612 52.9601C57.2961 51.2973 56.3621 49.7553 55.1966 48.3956L56.9567 51.4268L57.4588 52.4309C57.8359 53.1853 58.0323 54.0171 58.0323 54.8605C58.0323 55.5633 57.896 56.2595 57.6308 56.9104L56.9567 58.5649L56.2722 61.1072L55.486 59.7491C55.2934 59.4164 55.0761 59.0986 54.8359 58.7984L54.5625 58.4567C53.9517 57.6932 53.1619 57.0922 52.2632 56.707L52.4548 56.9092C53.4973 58.0097 54.4167 59.2206 55.1966 60.5205C55.8739 61.5672 56.0198 62.8713 55.5906 64.0417L55.1966 65.1163Z" fill="#517017"/>
<path d="M44.7217 31.0886L44.426 30.53C43.7017 29.1616 42.7069 27.9545 41.502 26.982C42.2259 28.5686 43.1214 30.0711 44.1723 31.4629L45.2636 32.9082C46.1901 34.2094 46.4472 35.8719 45.957 37.3922L45.9001 37.5686L44.661 41.5948C45.6713 40.3431 46.3831 38.8777 46.7423 37.3098L47.1925 35.3446L48.2844 37.1055C49.1403 38.3665 49.5535 39.8759 49.4592 41.397L49.4394 41.717C49.3965 42.4096 49.2616 43.0935 49.0383 43.7505L48.3694 45.7188L48.7539 45.0671C49.6246 43.5914 50.1487 41.9373 50.2867 40.2295L51.4373 42.5404L52.9222 44.7096C53.8426 46.0541 55.0549 47.1732 56.4685 47.9834C55.7122 47.3729 55.0549 46.6491 54.5199 45.8376L52.6721 43.0344L51.5069 40.586L52.4449 40.8747C54.1565 41.4014 55.9431 41.6432 57.7331 41.5903L54.2689 41.0561L53.1723 40.8161C52.3483 40.6358 51.5777 40.2662 50.9213 39.7365C50.3744 39.295 49.9184 38.7517 49.5784 38.1366L48.7143 36.5729L47.1659 34.4435L48.7165 34.6846C49.0964 34.7437 49.4802 34.7742 49.8646 34.7759L50.3022 34.7778C51.28 34.782 52.2437 34.5449 53.1079 34.0874L52.8302 34.1095C51.319 34.2296 49.7993 34.1845 48.2979 33.975C47.0581 33.8446 45.9517 33.1391 45.3104 32.0701L44.7217 31.0886Z" fill="#5D8F00"/>
<path d="M34.2354 64.9208L35.9848 66.6489C36.6625 67.3185 36.6801 68.4072 36.0243 69.0983C35.2814 69.8811 34.0139 69.8114 33.3613 68.9518L33.2209 68.7669C33.155 68.6801 33.082 68.599 33.0026 68.5245L32.0821 67.6606C31.4825 67.0979 31.1423 66.3122 31.1423 65.4898V64.4822C31.1423 64.1442 31.307 63.8273 31.5836 63.633C31.9775 63.3562 32.51 63.3867 32.8698 63.7066L34.2354 64.9208Z" fill="#B46D4F"/>
<path d="M49.1267 58.6208L51.4933 57.9533C52.4102 57.6946 53.3656 58.2171 53.6426 59.1286C53.9564 60.1612 53.2698 61.2289 52.2001 61.3718L51.9699 61.4025C51.8619 61.417 51.7553 61.4404 51.6513 61.4727L50.4455 61.8464C49.6601 62.0898 48.8089 61.9976 48.0938 61.5914L47.2177 61.0938C46.9238 60.9268 46.7295 60.6272 46.6972 60.2907C46.6511 59.8114 46.9406 59.3635 47.3965 59.2086L49.1267 58.6208Z" fill="#B46D4F"/>
<path d="M61.4744 46.3005L63.4574 45.7412C64.2257 45.5244 65.0262 45.9622 65.2583 46.726C65.5212 47.5911 64.9459 48.4858 64.0496 48.6055L63.8568 48.6313C63.7663 48.6433 63.677 48.663 63.5898 48.69L62.5795 49.0032C61.9214 49.2071 61.2082 49.1298 60.609 48.7895L59.8749 48.3726C59.6286 48.2327 59.4659 47.9816 59.4388 47.6996C59.4002 47.2981 59.6428 46.9227 60.0247 46.793L61.4744 46.3005Z" fill="#B46D4F"/>
<path d="M39.5716 33.9799L41.5546 33.4206C42.3229 33.2039 43.1233 33.6416 43.3554 34.4054C43.6184 35.2706 43.0431 36.1652 42.1468 36.2849L41.9539 36.3107C41.8634 36.3228 41.7741 36.3424 41.6869 36.3695L40.6767 36.6826C40.0185 36.8866 39.3053 36.8093 38.7062 36.469L37.9721 36.052C37.7258 35.9121 37.5631 35.661 37.536 35.3791C37.4974 34.9775 37.7399 34.6022 38.1219 34.4724L39.5716 33.9799Z" fill="#B46D4F"/>
<path d="M21.9708 44.1493L23.9538 43.5899C24.722 43.3732 25.5225 43.8109 25.7546 44.5747C26.0175 45.4399 25.4422 46.3345 24.5459 46.4543L24.3531 46.48C24.2626 46.4921 24.1733 46.5118 24.0861 46.5388L23.0758 46.8519C22.4177 47.0559 21.7045 46.9786 21.1054 46.6383L20.3713 46.2213C20.125 46.0814 19.9622 45.8303 19.9351 45.5484C19.8965 45.1469 20.1391 44.7715 20.521 44.6417L21.9708 44.1493Z" fill="#B46D4F"/>
</svg>
